<svg width="686" height="479" viewBox="0 0 686 479" fill="none" xmlns="http://www.w3.org/2000/svg">
<path d="M58.7878 476.024H658.667C708.389 434.518 682.8 309.624 641.283 284.304C596.579 257.05 667.568 162.794 598.7 132.203C553.738 112.229 482.225 134.001 491.845 80.5576C505.17 6.43912 349.265 -12.5465 234.4 7.42755C110.221 29.0252 223.624 135.216 87.0609 156.603C16.8391 167.605 30.4093 261.734 36.9574 281.173C42.6705 298.108 80.389 324.993 27.9545 361.984C-48.9339 416.239 56.9756 475.015 58.7878 476.024Z" fill="white"/>
<path d="M591.635 159.012C591.635 159.012 581.816 180.404 575.207 189.442C568.599 198.48 562.301 207.12 557.033 232.202C551.765 257.285 552.666 259.804 551.222 266.283C549.779 272.762 540.386 299.009 540.334 303.822C540.281 308.635 521.353 336.034 516.504 348.86C511.655 361.686 503.071 380.002 503.55 389.327L505.707 388.779C505.707 388.779 507.467 367.034 522.428 345.057C537.389 323.079 535.25 318.931 552.239 307.628C569.228 296.326 580.201 265.16 580.201 265.16C580.201 265.16 597.486 231.285 596.682 213.673C595.879 196.06 600.465 180.185 591.635 159.012Z" fill="#4BBE9C"/>
<path d="M568.638 126.106C568.638 126.106 568.067 140.16 563.536 148.511C559.006 156.861 555.108 161.929 554.283 170.962C553.459 179.995 550.614 203.28 537.984 214.648C525.354 226.016 523.74 260.081 514.123 270.384C504.506 280.688 503.253 288.097 505.028 305.77C506.803 323.443 512.835 347.924 498.875 379.902L495.714 371.949C495.714 371.949 505.692 345.649 503.276 330.249C500.861 314.848 492.453 291.579 495.532 280.432C498.612 269.285 487.167 267.092 494.057 250.213C500.948 233.333 498.116 227.468 507.491 212.874C507.491 212.874 508.452 212.191 510.915 199.843C513.378 187.494 533.259 164.863 542.417 157.143C551.576 149.423 564.809 137.027 568.638 126.106Z" fill="#5AC3A5"/>
<path d="M531.328 195.689C531.328 195.689 520.358 214.482 520.202 226.577C520.047 238.673 521.353 248.515 515.804 265.078C510.254 281.642 521.264 292.116 518.103 301.271C514.942 310.425 514.679 321.245 514.779 329.455C514.879 337.666 502.215 364.843 500.292 378.602C498.369 392.361 500.819 392.408 500.819 392.408C500.819 392.408 502.926 374.242 505.823 368.235C508.721 362.228 517.595 341.516 519.665 333.504C521.735 325.491 527.343 320.348 532.182 306.779C537.02 293.21 543.916 281.766 543.389 262.524C542.862 243.283 550.598 222.935 531.328 195.689Z" fill="#3C8F7C"/>
<path d="M508.094 379.791C508.094 379.791 513.212 355.94 534.781 353.557C556.351 351.174 569.023 355.444 584.263 338.019C599.503 320.594 608.353 292.947 613.221 288.179C613.221 288.179 605.564 284.225 592.834 296.144C580.104 308.063 571.164 317.088 563.794 324.02C556.425 330.952 550.44 326.435 542.662 331.005C536.14 334.835 527.709 345.908 523.995 351.707C522.794 353.593 521.355 355.317 519.715 356.836C518.221 358.217 516.441 359.909 515.298 361.153C513.014 363.644 506.427 379.867 506.427 379.867L508.094 379.791Z" fill="#3C8F7C"/>
<path d="M500.5 375.584C500.5 375.584 508.102 346.414 503.01 332.138C497.919 317.863 481.978 307.301 482.618 298.334C483.258 289.367 493.494 265.123 485.149 247.089C485.149 247.089 481.989 263.184 478.852 266.763C475.714 270.342 454.256 284.781 458.062 303.851C461.868 322.921 482.737 327.376 487.876 332.99C493.014 338.604 499.952 338.596 499.992 342.328C500.031 346.061 501.39 359.632 499.086 373.025L500.5 375.584Z" fill="#3C8F7C"/>
<path d="M508.813 356.061L519.494 325.277C519.494 325.277 525.765 300.514 529.403 279.865C533.04 259.217 531.328 195.689 531.328 195.689C531.328 195.689 520.358 214.482 520.202 226.577C520.047 238.673 521.353 248.515 515.804 265.079C510.254 281.642 521.264 292.116 518.103 301.271C514.942 310.425 514.679 321.245 514.779 329.455C514.879 337.666 502.215 364.843 500.292 378.602C499.239 386.141 499.502 389.559 499.952 391.112C498.224 379.069 508.813 356.061 508.813 356.061Z" fill="#327F6B"/>
<path d="M561.419 337.724C551.892 339.627 543.373 338.978 532.063 347.402C520.753 355.826 514.102 364.822 514.102 364.822C514.102 364.822 509.016 373.913 506.916 378.708C506.614 379.44 506.434 379.878 506.434 379.878L508.102 379.791C508.102 379.791 513.22 355.94 534.789 353.557C556.359 351.174 569.031 355.444 584.271 338.019C599.511 320.594 608.361 292.947 613.229 288.179C613.229 288.179 597.019 300.796 587.005 311.964C576.991 323.132 570.946 335.818 561.419 337.724Z" fill="#327F6B"/>
<path d="M478.857 266.763C475.728 270.345 454.261 284.781 458.067 303.851C461.873 322.921 482.742 327.376 487.881 332.99C493.02 338.604 499.957 338.596 499.997 342.328C500.037 346.061 501.396 359.632 499.091 373.025L499.705 374.142C500.832 368.916 502.394 360.963 502.905 354.901C503.735 345.088 502.144 341.024 498.993 333.074C495.843 325.125 476.252 308.928 471.337 300.414C466.422 291.9 480.803 277.667 483.98 270.796C487.156 263.924 485.131 247.073 485.131 247.073C485.131 247.073 481.978 263.183 478.857 266.763Z" fill="#327F6B"/>
<path d="M529.772 361.49L533.117 353.38C535.716 347.415 542.375 344.569 547.985 347.02C562.125 353.196 568.267 370.386 561.716 385.418L556.923 396.407C554.815 401.22 555.553 406.518 558.384 410.25C560.958 413.642 561.377 418.358 559.593 422.446L557.067 428.245C555.739 431.295 553.767 434.022 551.286 436.237C548.805 438.453 545.873 440.104 542.694 441.078C540.764 441.678 538.987 442.691 537.486 444.046C535.985 445.401 534.796 447.065 534.002 448.925L530.422 457.128C526.471 466.195 516.343 470.525 507.815 466.801L502.947 464.674C494.416 460.947 490.707 450.575 494.663 441.505C501.059 430.662 500.55 422.57 498.282 417.079C496.615 413.006 495.784 408.638 495.837 404.236C495.89 399.835 496.828 395.489 498.593 391.457L499.099 390.297C500.947 386.049 503.678 382.245 507.111 379.136C510.544 376.028 514.599 373.688 519.006 372.271C522.894 371.035 526.922 368.027 529.772 361.49Z" fill="#50BFA5"/>
<path d="M469.396 476.024C476.257 467.12 513.883 419.428 538.419 411.478C565.499 402.696 539.965 437.541 539.965 437.541C539.965 437.541 588.006 384.973 605.635 389.712C621.797 394.056 605.635 426.639 605.635 426.639C605.635 426.639 623.836 408.595 645.911 408.595C667.391 408.595 630.898 472.587 628.933 476.013L469.396 476.024Z" fill="#96D9C9"/>
<path d="M614.177 372.838C594.386 403.788 580.125 437.947 572.034 473.788L570.69 473.427C578.859 437.905 593.055 404.047 612.663 373.328C617.217 366.211 622.145 357.758 630.663 354.98C630.827 354.927 630.89 355.178 630.732 355.244C622.948 358.172 618.436 366.18 614.177 372.838Z" fill="#3C8F7C"/>
<path d="M576.764 475.067C599.451 444.176 626.503 416.747 657.072 393.639C657.388 393.399 657.817 393.953 657.498 394.198C627.37 417.358 600.737 444.745 578.421 475.512L576.764 475.067Z" fill="#3C8F7C"/>
<path d="M615.971 353.815C616.477 354.558 618.41 356.498 618.979 359.044C619.74 361.461 619.139 364.487 619.074 364.382C618.929 364.442 621.312 362.426 622.058 359.218C623.022 356.14 622.345 351.872 621.147 350.46C619.076 347.262 615.457 346.938 614.754 348.488C614.008 350.033 614.954 352.123 615.971 353.815Z" fill="#3C8F7C"/>
<path d="M620.667 381.196C619.932 380.669 618.033 378.702 615.499 378.083C613.1 377.274 610.063 377.819 610.168 377.883C610.105 378.027 612.167 375.682 615.389 375.002C618.481 374.097 622.732 374.857 624.12 376.085C627.281 378.22 627.526 381.847 625.964 382.519C624.41 383.244 622.337 382.247 620.667 381.196Z" fill="#3C8F7C"/>
<path d="M613.579 393.197C612.847 392.669 610.945 390.703 608.411 390.086C606.012 389.275 602.977 389.823 603.083 389.883C603.02 390.028 605.082 387.683 608.301 387.003C611.393 386.098 615.644 386.858 617.035 388.086C620.196 390.221 620.441 393.848 618.879 394.52C617.325 395.237 615.249 394.248 613.579 393.197Z" fill="#3C8F7C"/>
<path d="M638.858 421.033C638.123 420.506 636.224 418.54 633.69 417.923C631.29 417.111 628.256 417.659 628.359 417.72C628.296 417.865 630.358 415.519 633.579 414.839C636.671 413.935 640.923 414.694 642.311 415.922C645.471 418.057 645.716 421.684 644.154 422.356C642.6 423.073 640.527 422.085 638.858 421.033Z" fill="#3C8F7C"/>
<path d="M651.772 409.649C651.037 409.122 649.138 407.156 646.604 406.536C644.205 405.724 641.168 406.273 641.273 406.336C641.21 406.481 643.272 404.135 646.491 403.452C649.586 402.551 653.837 403.31 655.225 404.536C658.386 406.671 658.631 410.298 657.069 410.972C655.515 411.687 653.442 410.698 651.772 409.649Z" fill="#3C8F7C"/>
<path d="M606.054 367.395C606.67 368.049 608.886 369.659 609.85 372.087C610.985 374.351 610.866 377.435 610.785 377.34C610.65 377.424 612.686 375.054 612.915 371.77C613.384 368.578 612.046 364.472 610.637 363.265C608.09 360.434 604.466 360.684 604.015 362.326C603.52 363.966 604.785 365.885 606.054 367.395Z" fill="#3C8F7C"/>
<path d="M595.634 381.003C596.511 381.47 599.585 382.321 601.115 384.609C602.859 386.649 603.083 390.144 602.959 390.07C602.793 390.221 605.143 386.702 605.04 382.935C605.258 379.174 603.025 375.165 601.057 374.424C597.415 372.36 592.753 374.2 592.365 376.227C591.939 378.267 593.806 379.865 595.634 381.003Z" fill="#3C8F7C"/>
<path d="M584.666 401.618C585.609 401.929 588.773 402.245 590.677 404.254C592.739 405.972 593.543 409.377 593.419 409.327C593.282 409.501 594.999 405.637 594.272 401.947C593.853 398.202 590.98 394.625 588.915 394.224C584.964 392.806 580.691 395.403 580.655 397.464C580.562 399.541 582.675 400.803 584.666 401.618Z" fill="#3C8F7C"/>
<path d="M617.122 415.978C617.807 416.407 620.251 417.266 621.376 419.222C622.677 420.98 622.659 423.835 622.569 423.769C622.427 423.882 624.537 421.154 624.676 418.086C625.066 415.037 623.48 411.65 621.921 410.933C619.074 409.048 615.178 410.279 614.751 411.905C614.269 413.539 615.7 414.947 617.122 415.978Z" fill="#3C8F7C"/>
<path d="M634.016 358.641C633.605 358.301 632.57 357.06 631.098 356.572C629.712 355.987 627.892 356.177 627.953 356.222C627.908 356.303 629.23 355.007 631.166 354.743C633.034 354.345 635.515 354.98 636.284 355.768C638.057 357.168 638.046 359.324 637.093 359.653C636.139 359.983 634.959 359.335 634.016 358.641Z" fill="#3C8F7C"/>
<path d="M630.081 349.88C630.099 350.407 630.458 351.989 629.936 353.457C629.554 354.912 628.293 356.237 628.295 356.166C628.203 356.15 630.036 355.903 631.424 354.519C632.881 353.283 633.895 350.926 633.74 349.838C633.713 347.579 632.001 346.269 631.158 346.825C630.315 347.381 630.107 348.715 630.081 349.88Z" fill="#3C8F7C"/>
<path d="M661.07 398.052C660.659 397.714 659.621 396.47 658.151 395.985C656.766 395.4 654.946 395.59 655.006 395.632C654.962 395.716 656.284 394.419 658.22 394.156C660.087 393.758 662.568 394.393 663.338 395.178C665.11 396.581 665.1 398.737 664.146 399.066C663.193 399.396 662.013 398.747 661.07 398.052Z" fill="#3C8F7C"/>
<path d="M656.323 389.216C656.384 389.744 656.871 391.299 656.471 392.793C656.207 394.274 655.062 395.692 655.056 395.627C654.964 395.627 656.768 395.213 658.041 393.732C659.392 392.377 660.209 389.949 659.966 388.876C659.753 386.625 657.941 385.45 657.145 386.082C656.35 386.715 656.252 388.049 656.323 389.216Z" fill="#3C8F7C"/>
<path d="M653.021 446.313C632.976 448.511 614.301 457.365 596.34 465.997C584.224 471.82 584.835 473.478 582.364 474.345C582.272 474.375 582.174 474.378 582.081 474.352C581.987 474.327 581.904 474.275 581.839 474.203C581.775 474.131 581.734 474.041 581.72 473.946C581.706 473.85 581.72 473.752 581.761 473.665C582.709 471.783 585.198 470.502 586.931 469.426C588.956 468.174 591.046 467.03 593.192 466C597.765 463.778 602.459 461.783 607.121 459.753C616.603 455.628 626.246 451.748 636.266 449.123C641.754 447.664 647.354 446.665 653.007 446.137C653.113 446.137 653.123 446.287 653.007 446.3L653.021 446.313Z" fill="#3C8F7C"/>
<path d="M634.954 440.093C635.086 440.918 635.942 443.306 635.415 445.665C635.102 447.992 633.403 450.291 633.389 450.177C633.245 450.177 636.023 449.421 637.925 447.014C639.948 444.816 641.065 440.973 640.617 439.315C640.14 435.817 637.235 434.117 636.037 435.14C634.838 436.163 634.77 438.274 634.954 440.093Z" fill="#3C8F7C"/>
<path d="M617.298 446.421C617.427 447.243 618.286 449.631 617.757 451.993C617.443 454.32 615.744 456.619 615.734 456.503C615.586 456.503 618.381 455.746 620.27 453.34C622.29 451.142 623.407 447.296 622.959 445.638C622.485 442.141 619.579 440.44 618.378 441.463C617.177 442.486 617.114 444.602 617.298 446.421Z" fill="#3C8F7C"/>
<path d="M599.359 454.423C599.488 455.246 600.344 457.634 599.817 459.995C599.503 462.323 597.805 464.621 597.791 464.505C597.647 464.505 600.439 463.749 602.33 461.342C604.35 459.144 605.467 455.298 605.019 453.64C604.542 450.145 601.637 448.443 600.439 449.465C599.24 450.488 599.172 452.605 599.359 454.423Z" fill="#3C8F7C"/>
<path d="M640.227 456.603C639.864 455.923 639.174 453.685 637.456 452.241C635.928 450.699 633.395 449.956 633.45 450.045C633.347 450.132 635.82 449.125 638.549 449.834C641.265 450.325 644.234 452.533 644.826 454.007C646.428 456.848 645.234 459.724 643.773 459.642C642.311 459.56 641.11 458.045 640.227 456.603Z" fill="#3C8F7C"/>
<path d="M621.86 463.108C621.497 462.428 620.807 460.19 619.09 458.746C617.562 457.204 615.028 456.461 615.083 456.55C614.981 456.637 617.454 455.631 620.183 456.34C622.898 456.83 625.867 459.039 626.462 460.512C628.061 463.353 626.868 466.229 625.408 466.147C623.949 466.066 622.738 464.55 621.86 463.108Z" fill="#3C8F7C"/>
<path d="M654.214 449.905C653.898 449.526 653.16 448.213 651.898 447.533C650.734 446.766 649.046 446.634 649.093 446.684C649.041 446.753 650.46 445.794 652.267 445.878C654.037 445.828 656.192 446.822 656.761 447.668C658.141 449.249 657.77 451.205 656.848 451.345C655.926 451.484 654.956 450.696 654.214 449.905Z" fill="#3C8F7C"/>
<path d="M652.093 441.266C652.022 441.753 652.093 443.258 651.361 444.5C650.771 445.76 649.402 446.759 649.415 446.69C649.333 446.661 651.048 446.735 652.541 445.718C654.077 444.832 655.394 442.858 655.438 441.84C655.794 439.776 654.451 438.295 653.595 438.661C652.739 439.028 652.315 440.203 652.093 441.266Z" fill="#3C8F7C"/>
<path d="M135.892 323.675C112.342 302.66 100.234 272.482 94.2202 250.864C87.6959 227.405 86.745 208.667 86.7345 208.48L85.4543 208.401C85.4543 208.591 86.4184 227.458 92.9849 251.082C99.043 272.912 111.288 303.4 135.128 324.674L135.892 323.675Z" fill="#3C8F7C"/>
<path d="M89.4184 203.058C90.5774 208.462 89.608 213.567 87.1321 217.252C83.2523 214.392 80.1995 209.814 79.0379 204.411C77.8763 199.007 78.8509 193.902 81.3242 190.217C85.2067 193.074 88.2568 197.655 89.4184 203.058Z" fill="#3C8F7C"/>
<path d="M82.1934 218.446C86.2524 222.223 88.623 227.187 89.0839 231.963C84.6299 232.166 79.728 230.357 75.6717 226.58C71.6154 222.803 69.2422 217.84 68.7812 213.061C73.2248 212.858 78.1371 214.669 82.1934 218.446Z" fill="#3C8F7C"/>
<path d="M80.2919 234.611C85.2006 236.173 89.3497 239.513 91.9262 243.976C88.2676 246.33 83.3657 247.005 78.3217 245.424C73.4158 243.859 69.27 240.518 66.6953 236.056C70.346 233.705 75.2478 233.027 80.2919 234.611Z" fill="#3C8F7C"/>
<path d="M88.0568 254.058C92.0499 255.321 95.2449 258.539 97.0545 262.617C94.0254 265.163 90.0586 266.128 86.0655 264.868C82.0724 263.608 78.8774 260.387 77.0679 256.309C80.0969 253.763 84.0611 252.798 88.0568 254.058Z" fill="#3C8F7C"/>
<path d="M94.8762 226.303C96.3335 224.811 98.1095 223.669 100.071 222.962C102.033 222.255 104.129 222.001 106.202 222.221C106.331 224.379 106.007 226.541 105.251 228.566C104.494 230.592 103.323 232.436 101.811 233.982C100.354 235.473 98.5774 236.615 96.6159 237.322C94.6545 238.029 92.5587 238.283 90.4853 238.064C90.3571 235.906 90.6814 233.745 91.4376 231.719C92.1938 229.694 93.3651 227.849 94.8762 226.303Z" fill="#3C8F7C"/>
<path d="M98.511 240.241C99.9684 238.749 101.744 237.607 103.706 236.899C105.667 236.192 107.764 235.938 109.837 236.156C109.966 238.314 109.641 240.476 108.885 242.501C108.129 244.527 106.958 246.372 105.446 247.917C103.989 249.409 102.213 250.551 100.251 251.259C98.2898 251.966 96.1937 252.221 94.1202 252.002C93.9911 249.844 94.3151 247.682 95.0713 245.657C95.8276 243.631 96.9993 241.786 98.511 240.241V240.241Z" fill="#3C8F7C"/>
<path d="M121.69 352.184C99.9412 349.021 81.3295 336.105 69.5372 325.86C56.744 314.726 49.0107 304.204 48.9343 304.099L48.1599 304.544C48.2363 304.65 56.0276 315.251 68.9025 326.461C80.8001 336.822 99.6041 349.846 121.624 353.059L121.69 352.184Z" fill="#50BFA5"/>
<path d="M48.4287 299.911C51.1759 302.604 52.5667 305.947 52.5429 309.038C49.1899 308.867 45.6604 307.375 42.9131 304.681C40.1659 301.988 38.7752 298.645 38.7989 295.551C42.4292 295.795 45.8492 297.343 48.4287 299.911Z" fill="#50BFA5"/>
<path d="M50.1302 311.629C53.9362 312.267 57.2182 314.239 59.3174 316.84C56.8073 318.67 53.2593 319.5 49.4559 318.862C45.6524 318.224 42.3678 316.25 40.2686 313.648C42.7787 311.814 46.3214 310.989 50.1302 311.629Z" fill="#50BFA5"/>
<path d="M55.2217 321.756C58.673 320.782 62.3635 321.131 65.5706 322.737C64.3458 325.509 61.7566 327.784 58.2166 328.799C54.7653 329.773 51.0749 329.424 47.8677 327.818C49.0925 325.048 51.6843 322.774 55.2217 321.756Z" fill="#50BFA5"/>
<path d="M67.193 330.08C69.9982 329.289 73.0931 329.927 75.706 331.598C75.3382 332.919 74.6357 334.123 73.6667 335.092C72.6976 336.062 71.4948 336.765 70.1747 337.133C67.3695 337.924 64.2772 337.286 61.6643 335.615C62.0319 334.294 62.7339 333.091 63.7025 332.121C64.6711 331.151 65.8733 330.448 67.193 330.08Z" fill="#50BFA5"/>
<path d="M60.5158 311.326C60.7903 309.898 61.3849 308.551 62.255 307.385C63.125 306.22 64.2478 305.268 65.5388 304.6C66.4414 305.805 67.0818 307.185 67.4189 308.653C67.756 310.121 67.7822 311.643 67.4958 313.121C67.2209 314.549 66.6262 315.897 65.7562 317.062C64.8862 318.227 63.7636 319.179 62.4728 319.848C61.5702 318.643 60.9297 317.262 60.5927 315.794C60.2556 314.327 60.2294 312.805 60.5158 311.326V311.326Z" fill="#50BFA5"/>
<path d="M67.978 318.029C68.2534 316.601 68.8484 315.253 69.7183 314.088C70.5882 312.923 71.7105 311.969 73.001 311.3C73.9028 312.506 74.5427 313.887 74.8798 315.355C75.2168 316.823 75.2434 318.345 74.958 319.824C74.6831 321.252 74.0884 322.599 73.2184 323.764C72.3484 324.929 71.2258 325.882 69.935 326.551C69.0326 325.345 68.3922 323.965 68.0551 322.497C67.7181 321.029 67.6918 319.507 67.978 318.029V318.029Z" fill="#50BFA5"/>
<path d="M134.797 417.322C109.708 426.853 82.0935 421.819 63.3449 415.917C42.9896 409.51 28.3947 400.727 28.2499 400.63L27.6941 401.684C27.839 401.773 42.5418 410.624 63.0288 417.077C81.9618 423.039 109.864 428.121 135.26 418.471L134.797 417.322Z" fill="#96D9C9"/>
<path d="M25.1626 395.54C29.5318 397.227 33.0783 400.542 35.0585 404.789C31.3709 406.668 26.722 406.95 22.1678 405.182C17.7987 403.494 14.2522 400.18 12.272 395.933C15.9464 394.051 20.6085 393.771 25.1626 395.54Z" fill="#96D9C9"/>
<path d="M34.0498 409.657C36.1566 408.912 38.3957 408.616 40.6237 408.787C42.8516 408.958 45.0193 409.593 46.9879 410.651C46.1597 412.698 44.902 414.543 43.2997 416.061C41.6974 417.579 39.7879 418.736 37.7005 419.452C35.5935 420.198 33.354 420.495 31.1255 420.324C28.897 420.154 26.7288 419.519 24.7598 418.461C25.5886 416.414 26.8469 414.568 28.4496 413.05C30.0523 411.531 31.962 410.374 34.0498 409.657V409.657Z" fill="#96D9C9"/>
<path d="M45.5917 419.589C48.7525 416.051 53.0195 414.288 57.2102 414.367C57.397 416.62 57.1235 418.888 56.4062 421.032C55.6889 423.176 54.5429 425.151 53.0379 426.837C49.8772 430.374 45.6101 432.138 41.4195 432.059C41.2328 429.806 41.5064 427.538 42.2237 425.394C42.941 423.25 44.0869 421.275 45.5917 419.589V419.589Z" fill="#96D9C9"/>
<path d="M61.7407 424.715C64.9015 421.181 69.1685 419.417 73.3592 419.497C73.5457 421.75 73.272 424.017 72.5547 426.161C71.8375 428.305 70.6916 430.28 69.187 431.966C66.0262 435.501 61.7565 437.264 57.5658 437.188C57.3802 434.934 57.6546 432.667 58.3723 430.522C59.09 428.378 60.236 426.402 61.7407 424.715V424.715Z" fill="#96D9C9"/>
<path d="M46.5478 408.149C43.769 404.53 42.531 400.168 42.826 396.212C46.4846 396.639 50.2249 398.766 53.0011 402.385C55.7773 406.004 57.0179 410.366 56.7229 414.322C53.0643 413.895 49.324 411.768 46.5478 408.149Z" fill="#96D9C9"/>
<path d="M63.3237 413.403C60.4922 409.826 59.1884 405.48 59.4175 401.51C63.0735 401.874 66.8401 403.938 69.6716 407.514C72.5031 411.091 73.8069 415.44 73.5751 419.41C69.9192 419.046 66.1526 416.982 63.3237 413.403Z" fill="#96D9C9"/>
<path d="M82.9706 426.12C83.3057 425.24 83.835 424.447 84.5192 423.801C85.2033 423.154 86.0245 422.67 86.9215 422.385C87.3472 423.268 87.5874 424.23 87.6273 425.209C87.6671 426.189 87.5058 427.166 87.1533 428.081C86.8182 428.961 86.2889 429.754 85.6048 430.401C84.9207 431.048 84.0994 431.531 83.2024 431.816C82.7767 430.933 82.5365 429.972 82.4967 428.992C82.4568 428.013 82.6181 427.035 82.9706 426.12V426.12Z" fill="#96D9C9"/>
<path d="M188.64 474.179C188.64 474.179 220.604 347.661 210.005 334.961C195.354 317.394 183.272 375.669 182.084 370.719C170.887 323.975 167.906 264.167 131.776 257.838C111.244 254.238 136.517 302.312 134.999 315.314C133.482 328.317 96.4855 285.148 73.9993 262.525C51.5131 239.902 39.9025 254.227 54.1102 282.665C67.849 310.164 112.292 340.215 103.131 343.781C93.9701 347.347 38.3511 311.84 31.5423 327.022C23.1899 345.636 106.611 370.966 98.7613 375.149C90.912 379.332 51.0337 365.558 52.1215 379.791C53.2093 394.024 106.813 393.497 105.897 399.757C104.414 409.894 68.9605 386.947 67.4038 400.975C65.8103 415.322 114.044 412.704 113.209 423.906C112.727 430.335 102.378 420.635 100.853 429.544C97.3758 449.853 160.96 474.595 160.96 474.595L188.64 474.179Z" fill="#4BB49C"/>
<path d="M213.012 474.946C213.012 474.946 182.593 428.274 167.953 419.462C152.357 410.074 164.231 438.176 164.231 438.176C164.231 438.176 132.36 400.221 123.499 407.933C114.639 415.646 122.68 424.576 122.68 424.576C122.68 424.576 94.0648 416.091 88.9233 426.6C81.0214 442.752 128.13 456.145 128.13 456.145C128.13 456.145 107.906 455.928 111.628 466.833C117.239 483.285 213.012 474.946 213.012 474.946Z" fill="#50BFA5"/>
<path d="M88.9233 426.608C94.0649 416.099 122.68 424.584 122.68 424.584C122.68 424.584 114.639 415.654 123.5 407.941C132.36 400.229 157.854 423.308 157.854 423.308C157.854 423.308 155.184 404.272 174.383 421.041C188.095 433.018 213.013 474.94 213.013 474.94L88.9233 426.608Z" fill="#96D9C9"/>
<path d="M176.087 357.761L177.451 356.828C152.692 319.292 145.125 274.731 143.144 243.955C140.994 210.56 144.769 185.739 144.806 185.491L143.115 184.998C143.075 185.261 139.274 210.236 141.432 243.831C143.426 274.868 151.056 319.827 176.087 357.761Z" fill="#96D9C9"/>
<path d="M149.681 179.645C149.737 187.183 147.121 193.417 142.949 197.157C138.477 191.363 136.017 184.266 135.945 176.946C135.892 169.405 138.505 163.171 142.678 159.431C147.151 165.225 149.611 172.323 149.681 179.645V179.645Z" fill="#96D9C9"/>
<path d="M136.266 196.593C140.481 203.259 142.222 210.744 141.534 217.168C135.74 215.518 129.905 211.055 125.683 204.389C121.461 197.723 119.73 190.238 120.415 183.812C126.213 185.462 132.044 189.924 136.266 196.593Z" fill="#96D9C9"/>
<path d="M129.5 216.841C135.439 221.04 139.823 227.087 141.972 234.039C136.63 235.534 130.119 234.303 124.061 230.086C118.117 225.888 113.728 219.841 111.578 212.887C116.925 211.39 123.423 212.61 129.5 216.841Z" fill="#96D9C9"/>
<path d="M137.425 252.192C140.031 253.781 142.035 256.192 143.12 259.045C140.944 259.857 138.21 259.572 135.561 257.975C132.953 256.388 130.949 253.976 129.863 251.122C132.039 250.31 134.773 250.608 137.425 252.192Z" fill="#96D9C9"/>
<path d="M139.577 265.287C142.183 266.876 144.188 269.286 145.275 272.14C143.099 272.949 140.362 272.651 137.712 271.07C135.106 269.481 133.102 267.07 132.015 264.217C134.191 263.408 136.927 263.705 139.577 265.287Z" fill="#96D9C9"/>
<path d="M150.516 212.281C155.405 209.503 161.136 209.545 166.204 211.828C165.353 217.487 162.303 222.492 157.407 225.27C152.51 228.048 146.787 228.019 141.708 225.724C142.57 220.062 145.62 215.057 150.516 212.281Z" fill="#96D9C9"/>
<path d="M151.493 232.007C156.39 229.232 162.113 229.261 167.194 231.556C166.341 237.216 163.291 242.221 158.397 244.999C153.503 247.777 147.774 247.745 142.696 245.45C143.552 239.791 146.597 234.783 151.493 232.007Z" fill="#96D9C9"/>
<path d="M150.521 260.242C153.709 258.436 157.436 258.455 160.741 259.949C160.185 263.639 158.202 266.889 155.015 268.697C151.828 270.506 148.101 270.485 144.795 268.99C145.348 265.308 147.334 262.05 150.521 260.242Z" fill="#96D9C9"/>
<path d="M500 371.549C502.879 372.018 502.708 372.487 503.079 372.537C503.516 372.595 508.71 369.986 508.71 369.986C508.71 369.986 524.074 362.397 524.888 361.957L535.977 347.987L544.522 351.941C544.522 351.941 532.063 366.783 531.273 367.429C530.483 368.075 508.457 375.813 506.54 376.559C506.54 376.559 504.609 378.325 503.361 379.393C502.112 380.46 500.44 380.882 500.039 381.124C498.967 381.666 497.829 382.065 496.655 382.313C494.977 382.68 496.375 381.538 496.375 381.538C496.375 381.538 499.344 380.284 499.199 380.057C499.086 379.88 497.508 380.666 495.654 381.09C495.18 381.198 494.708 381.306 494.276 381.399C493.138 381.644 492.638 380.993 493.781 380.539C494.294 380.325 494.822 380.148 495.361 380.012C495.912 379.896 496.375 379.606 496.821 379.438C497.706 379.1 498.356 378.866 498.319 378.837C498.282 378.808 498.401 378.599 497.89 378.7C497.276 378.821 496.046 379.372 495.124 379.474C494.598 379.535 493.528 379.738 493.528 379.738C493.528 379.738 491.621 379.92 491.608 379.654C491.579 379.069 492.754 378.744 493.473 378.758C493.989 378.567 494.524 378.433 495.069 378.36C495.069 378.36 497.279 377.484 497.15 377.158C497.1 377.028 495.762 377.229 494.339 377.326C492.838 377.429 491.753 377.429 491.671 377.137C491.545 376.675 492.741 376.501 492.741 376.501C492.741 376.501 493.794 376.348 494.139 376.269C494.542 376.177 495.72 375.803 495.72 375.803C495.72 375.803 499.784 374.308 499.639 374.01C499.494 373.713 498.82 373.08 498.533 373.083C498.246 373.085 497.742 373.37 497.447 373.373C497.152 373.375 496.544 373.317 496.499 372.956C496.454 372.595 498.048 371.849 498.048 371.849C498.048 371.849 499.17 371.414 500 371.549Z" fill="#F8A492"/>
<path d="M528.26 356.643C528.26 356.643 531.028 359.158 532.176 359.986C533.135 360.673 537.795 362.922 537.795 362.922C537.795 362.922 542.433 355.805 544.461 352.252C546.921 347.927 548.625 341.498 548.043 341.324C546.41 340.834 544.166 340.533 542.091 341.487C534.916 344.782 528.26 356.643 528.26 356.643Z" fill="#355389"/>
<path d="M502.689 375.263C501.456 375.458 500.197 375.223 499.652 374.095C499.531 375.434 501.556 376.098 502.689 375.263Z" fill="#FE875E"/>
<path d="M158.829 325.414C159 321.276 158.394 317.188 156.553 313.337C154.973 310.021 151.046 308.139 147.469 308.137C136.111 308.121 134.665 323.203 127.435 329.02C125.227 330.797 122.757 332.244 120.668 334.163C112.948 341.24 116.425 354.342 123.513 360.55C128.43 364.854 136.156 367.303 142.214 363.934C145.375 362.179 147.779 359.258 149.491 356.056C151.92 351.514 153.485 346.274 155.212 341.432C157.072 336.279 158.613 330.915 158.829 325.414Z" fill="#13375B"/>
<path d="M160.696 345.454C157.149 334.685 152.465 334.853 152.465 334.853L156.248 357.785C158.439 357.186 161.292 355.853 163.481 355.233C162.756 351.828 161.568 348.106 160.696 345.454Z" fill="#F7CC7F"/>
<path d="M178.626 382.19L165.656 372.29C165.656 372.29 164.339 363.051 162.604 354.857C160.415 355.473 158.439 357.192 156.248 357.79L159.548 376.146L176.545 384.923L181.347 391.096L182.44 384.77L178.626 382.19Z" fill="#F48C7F"/>
<path d="M296.849 366.72C300.727 366.716 304.54 367.723 307.912 369.641C308.344 369.883 308.791 370.099 309.25 370.286C319.217 374.382 330.121 366.796 330.121 356.013V302.989H277.147C266.371 302.989 258.791 292.074 262.884 282.103C263.07 281.642 263.286 281.194 263.529 280.762C265.506 277.263 266.51 273.298 266.436 269.279C266.361 265.26 265.212 261.335 263.107 257.912C261.001 254.489 258.018 251.693 254.466 249.815C250.915 247.938 246.925 247.048 242.913 247.237C231.245 247.764 221.842 257.369 221.523 269.053C221.403 273.046 222.354 276.997 224.275 280.498C224.515 280.938 224.728 281.392 224.913 281.858C228.974 291.995 221.273 303.002 210.357 303.002H157.825V423.825C157.825 452.325 180.915 475.428 209.396 475.428H330.135V422.58C330.135 411.745 319.193 404.111 309.166 408.194C308.704 408.38 308.255 408.594 307.82 408.835C304.824 410.507 301.485 411.47 298.059 411.65C294.633 411.831 291.211 411.224 288.056 409.876C284.901 408.528 282.097 406.474 279.858 403.874C277.619 401.273 276.005 398.193 275.139 394.871C274.274 391.549 274.18 388.073 274.866 384.71C275.551 381.346 276.997 378.184 279.093 375.466C281.189 372.748 283.879 370.547 286.957 369.031C290.035 367.515 293.419 366.724 296.849 366.72Z" fill="#FFE492"/>
<path d="M411.69 337.307C411.863 333.427 413.043 329.658 415.115 326.374C415.378 325.95 415.615 325.51 415.823 325.056C420.377 315.285 413.313 304.03 402.551 303.527L349.621 301.049L347.145 354.029C346.642 364.798 335.395 371.865 325.631 367.308C325.177 367.101 324.737 366.865 324.314 366.601C320.913 364.458 317.001 363.267 312.984 363.152C308.967 363.036 304.992 364.001 301.475 365.946C297.957 367.891 295.025 370.744 292.985 374.208C290.944 377.672 289.869 381.621 289.872 385.642C289.872 397.332 299.001 407.171 310.649 408.047C314.628 408.35 318.617 407.584 322.201 405.827C322.653 405.609 323.117 405.418 323.592 405.255C333.899 401.668 344.527 409.881 344.016 420.791L341.564 473.301L462.171 478.944C490.618 480.262 514.763 458.274 516.093 429.805L521.73 309.115L468.977 306.648C458.159 306.141 450.031 316.719 453.637 326.943C453.799 327.413 453.992 327.872 454.213 328.316C455.749 331.39 456.56 334.775 456.585 338.211C456.61 341.647 455.847 345.043 454.355 348.138C452.863 351.234 450.682 353.945 447.98 356.066C445.278 358.186 442.126 359.658 438.766 360.369C435.406 361.08 431.929 361.01 428.6 360.166C425.271 359.322 422.18 357.726 419.564 355.5C416.948 353.274 414.876 350.478 413.509 347.326C412.141 344.174 411.514 340.75 411.675 337.318L411.69 337.307Z" fill="#A7CEFC"/>
<path d="M264.206 253.908C264.403 257.788 263.586 261.653 261.836 265.121C261.614 265.565 261.42 266.023 261.256 266.491C257.669 276.658 265.79 287.177 276.549 286.634L329.471 283.972L326.811 231.014C326.268 220.246 336.78 212.12 346.94 215.71C347.408 215.873 347.866 216.066 348.309 216.287C351.902 218.096 355.914 218.906 359.926 218.633C363.938 218.36 367.803 217.015 371.118 214.737C374.434 212.46 377.077 209.333 378.773 205.685C380.469 202.036 381.155 197.999 380.76 193.994C379.635 182.36 369.589 173.451 357.913 173.711C353.923 173.795 350.027 174.945 346.631 177.043C346.207 177.305 345.767 177.541 345.314 177.75C335.403 182.317 324.032 175.172 323.481 164.265L320.847 111.762L200.246 117.82C171.799 119.251 149.9 143.487 151.33 171.951L157.388 292.62L210.134 289.966C220.949 289.423 228.016 278.105 223.438 268.286C223.23 267.833 222.994 267.393 222.732 266.968C220.906 264.058 219.772 260.768 219.415 257.35C219.059 253.933 219.49 250.479 220.675 247.254C221.861 244.029 223.769 241.119 226.254 238.747C228.738 236.375 231.733 234.605 235.008 233.572C238.283 232.539 241.751 232.271 245.146 232.789C248.54 233.306 251.771 234.596 254.59 236.558C257.409 238.52 259.741 241.102 261.407 244.107C263.074 247.111 264.029 250.458 264.201 253.89L264.206 253.908Z" fill="#4F9CF9"/>
<path d="M372.523 224.68C368.645 224.684 364.832 223.677 361.461 221.759C361.028 221.517 360.581 221.301 360.123 221.114C350.156 217.018 339.251 224.603 339.251 235.386V288.411H392.239C403.014 288.411 410.595 299.325 406.502 309.299C406.315 309.759 406.099 310.206 405.856 310.638C403.876 314.137 402.87 318.104 402.942 322.125C403.015 326.145 404.164 330.073 406.269 333.498C408.375 336.923 411.36 339.721 414.913 341.599C418.467 343.477 422.458 344.367 426.472 344.176C438.141 343.649 447.544 334.044 447.863 322.36C447.981 318.367 447.031 314.416 445.11 310.915C444.869 310.476 444.656 310.021 444.473 309.555C440.411 299.418 448.113 288.411 459.026 288.411H511.56V167.589C511.56 139.088 488.471 115.985 459.99 115.985H339.24V168.833C339.24 179.668 350.179 187.302 360.209 183.219C360.67 183.033 361.119 182.819 361.553 182.578C364.549 180.9 367.89 179.931 371.319 179.746C374.748 179.561 378.174 180.165 381.333 181.512C384.492 182.858 387.301 184.912 389.543 187.514C391.786 190.116 393.403 193.198 394.269 196.524C395.135 199.849 395.229 203.328 394.542 206.695C393.854 210.062 392.405 213.226 390.305 215.945C388.206 218.664 385.511 220.865 382.428 222.379C379.346 223.894 375.957 224.681 372.523 224.68V224.68Z" fill="#043873"/>
<path d="M123.336 458.651C123.336 458.651 122.546 464.218 121.16 466.013C120.697 466.617 119.843 467.378 119.301 468.47C118.437 470.164 118.914 472.687 119.551 474.081C119.878 474.795 119.527 474.793 120.27 475.025C121.342 475.34 122.492 475.251 123.502 474.775C124.512 474.299 125.314 473.469 125.754 472.442C126.403 470.941 126.768 469.332 126.829 467.697C127.063 462.644 128.63 460.075 128.63 460.075L123.336 458.651Z" fill="#F7A491"/>
<path d="M147.421 461.197C147.421 461.197 147.914 467.473 147.513 469.513C147.3 470.607 146.104 472.856 146.652 473.883C147.2 474.911 147.827 475.167 147.827 475.167L162.05 475.396C162.825 475.41 162.314 474.911 161.687 474.45C160.665 473.696 159.843 473.198 156.577 471.614C156.364 471.511 155.586 471.016 155.307 470.844C154.55 470.341 153.865 469.735 153.274 469.044C152.255 467.903 152.165 462.376 152.165 462.376L147.421 461.197Z" fill="#F7A491"/>
<path d="M158.531 377.759C158.531 377.759 160.323 387.949 159.148 394.628C157.973 401.307 152.331 463.246 152.331 463.246L146.06 463.599C146.06 463.599 144.743 437.728 144.982 434.131C145.222 430.533 147.089 424.513 147.089 424.513L146.449 403.627L154.351 376.185L158.531 377.759Z" fill="#355389"/>
<path d="M140.107 375.613C140.107 375.613 135.168 383.067 133.993 389.235C132.819 395.403 134.857 414.357 132.595 422.446C131.37 426.819 126.731 433.577 126.028 439.231C125.325 444.885 122.554 459.682 122.554 459.682L128.823 460.929L143.386 423.943L154.81 390.513L157.736 373.297L140.107 375.613Z" fill="#466EB6"/>
<path d="M144.102 333.211C144.102 333.211 137.565 332.795 134.981 335.62C132.397 338.446 140.715 360.811 141.187 364.408C141.658 368.006 138.79 377.572 138.79 377.572C138.79 377.572 154.143 380.671 158.544 377.759C158.544 377.759 159.016 351.886 158.544 349.316C158.073 346.746 154.156 336.295 153.216 335.267C152.276 334.239 144.102 333.211 144.102 333.211Z" fill="#F7CC7F"/>
<path d="M146.278 324.466C146.278 324.466 146.244 324.658 146.183 324.993C145.891 326.574 144.769 331.799 144.01 333.235C143.096 334.975 147.147 340.512 151.048 339.825C152.21 339.622 150.069 334.735 150.171 334.216C150.369 333.224 150.635 331.872 150.909 330.486C151.062 329.695 151.22 328.904 151.367 328.164L152.123 324.313L146.278 324.466Z" fill="#F7A491"/>
<path d="M146.186 324.972C146.247 324.645 146.281 324.445 146.281 324.445L152.126 324.297L151.367 328.156C151.22 328.896 151.064 329.687 150.911 330.465C149.864 330.277 148.894 329.789 148.119 329.06C147.153 328.208 146.427 327.117 146.012 325.897C146.078 325.536 146.139 325.217 146.186 324.972Z" fill="#F47458"/>
<path d="M150.213 311.126C150.213 311.126 147.458 310.807 145.735 313.047C144.013 315.288 142.148 322.215 146.436 325.981C150.724 329.748 154.965 325.483 155.594 320.973C156.224 316.463 156.458 310.962 150.213 311.126Z" fill="#F7A491"/>
<path d="M156.859 320.897C156.345 321.896 155.486 322.449 154.939 322.133C154.391 321.817 154.362 320.749 154.873 319.761C155.384 318.772 156.245 318.211 156.793 318.527C157.341 318.844 157.37 319.898 156.859 320.897Z" fill="#F7A491"/>
<path d="M150.522 310.385C150.522 310.385 146.834 316.975 144.2 317.278C141.566 317.581 141.224 321.081 141.224 321.081C141.224 321.081 142.164 313.016 144.772 311.461C147.379 309.906 150.522 310.385 150.522 310.385Z" fill="#13375B"/>
<path d="M126.181 471.329C122.757 471.954 120.492 469.951 119.309 468.451C118.442 470.149 118.018 472.684 118.656 474.081C119.219 475.312 120.863 475.275 122.156 475.325C123.526 475.375 124.582 474.614 125.262 473.417C125.637 472.753 125.945 472.054 126.181 471.329V471.329Z" fill="#F47458"/>
<path d="M155.302 470.844C151.541 471.812 148.762 471.153 147.208 470.525C146.808 471.664 146.275 473.095 146.557 473.918C146.902 474.927 147.392 475.156 147.827 475.167C151.251 475.259 160.407 475.38 163.025 475.415C163.107 475.416 163.188 475.394 163.257 475.35C163.327 475.307 163.383 475.244 163.418 475.17C163.453 475.096 163.466 475.013 163.455 474.931C163.444 474.85 163.41 474.773 163.357 474.711C162.709 473.933 155.581 471.016 155.302 470.844Z" fill="#F47458"/>
<path d="M144.898 318.93C145.111 320.101 144.679 321.174 143.934 321.326C143.188 321.479 142.411 320.657 142.198 319.481C141.985 318.306 142.414 317.238 143.159 317.085C143.905 316.933 144.682 317.763 144.898 318.93Z" fill="#F7A491"/>
<path d="M149.197 322.984L152.521 323.135C152.521 323.135 152.386 324.395 150.924 324.371C149.139 324.342 149.197 322.984 149.197 322.984Z" fill="white"/>
<path d="M432.602 57.7919C433.015 57.8077 434.15 58.1873 435.807 61.3239C437.914 65.3303 441.022 77.4285 441.022 77.4285L431.782 80.8709L430.595 78.3458L428.64 58.9042C428.64 58.9042 432.499 57.7866 432.602 57.7919Z" fill="#DD513A"/>
<path d="M420.383 56.047C423.017 56.047 429.562 56.8219 432.596 57.7919C432.596 57.7919 434.825 76.962 430.589 91.53C429.641 94.7905 431.38 105.046 431.38 105.046L404.002 104.685C404.002 104.685 407.244 79.8904 406.025 75.884C404.805 71.8776 404.774 57.921 404.774 57.921C404.774 57.921 404.961 57.8921 410.924 56.8667C414.051 56.3517 417.213 56.0777 420.383 56.047V56.047Z" fill="#F47458"/>
<path d="M417.198 140.63C417.198 140.63 417.804 147.625 418.918 149.562C420.032 151.5 418.86 154.792 418.8 155.245C418.739 155.698 416.455 156.342 412.823 155.954C409.191 155.567 409.246 154.728 409.541 153.371C409.836 152.014 411.767 150.271 411.885 148.98C412.004 147.688 410.771 143.041 410.771 143.041L417.198 140.63Z" fill="#F7A491"/>
<path d="M428.285 99.2741C428.285 99.2741 447.183 98.2198 451.403 100.782C455.623 103.344 448.405 115.89 448.405 115.89C448.405 115.89 435.257 115.284 409.496 116.773C403.399 117.124 402.872 100.858 404.012 99.5113C405.153 98.1644 428.285 99.2741 428.285 99.2741Z" fill="#E0973F"/>
<path d="M412.37 156.497C408.627 156.099 409.091 154.259 409.391 152.862C409.581 151.987 410.653 150.957 411.293 149.984C411.627 150.248 412.172 150.72 413.798 151.202C415.483 151.7 417.799 150.712 419.271 150.095C419.655 151.674 419.824 153.299 419.771 154.924C419.711 155.39 416.11 156.898 412.37 156.497Z" fill="#DD513A"/>
<path d="M414.435 112.811C415.188 118.529 418.929 146.992 418.929 146.992L410.252 148.068C410.252 148.068 399.587 110.903 400.133 105.234C400.678 99.564 404.674 99.0737 404.674 99.0737C404.674 99.0737 412.436 97.6688 414.435 112.811Z" fill="#F7CC7F"/>
<path d="M404.473 60.0508C407.034 59.0913 408.287 82.1703 408.632 91.6803C413.165 92.1178 421.065 91.6803 423.032 91.5353C423.957 91.4668 426.09 90.6839 427.012 90.5653C427.758 90.4359 428.517 90.3996 429.272 90.4573C429.443 90.4863 434.169 92.4209 434.572 92.8453C435.075 93.3725 436.429 94.6904 436.2 95.2702C435.97 95.8501 433.595 93.6729 433.595 93.6729L432.43 93.0193C433.879 94.4347 436.645 96.2955 436.239 96.9729C435.833 97.6503 433.363 95.7447 431.59 94.4584C433.11 95.8316 435.014 98.2935 434.566 98.6757C434.174 99.021 432.025 96.1717 429.728 95.3519C428.874 95.0488 428.026 95.8791 427.357 95.9924C426.865 96.0662 426.104 96.2244 425.622 96.0873L423.135 95.3836C422.287 95.46 422.266 95.9608 421.41 96.1427C420.417 96.3535 418.776 96.5776 417.519 96.886C410.234 98.6678 407.805 99.4954 405.574 99.4954C398.816 99.4796 398.426 62.3228 404.473 60.0508Z" fill="#F7A491"/>
<path d="M399.616 81.709C399.137 71.9776 399.208 59.9848 404.658 57.9394C406.81 57.1302 410.6 61.9853 409.926 81.9066C407.01 82.157 402.735 82.3521 399.616 81.709Z" fill="#DD513A"/>
<path d="M442.563 146.613C442.563 146.613 441.807 149.04 443.161 150.648C444.515 152.256 450.149 153.83 450.889 154.7C451.629 155.569 451.571 156.31 451.571 156.31L435.768 155.875L435.941 151.096L436.668 147.67L442.563 146.613Z" fill="#F7A491"/>
<path d="M444.146 151.447C444.146 151.447 440.085 153.092 438.122 152.119C436.16 151.146 436.221 150.875 435.652 151.239C435.083 151.602 434.88 156.081 434.88 156.081L452.654 156.608C453.892 156.579 454.516 155.667 453.513 154.887C452.898 154.452 452.25 154.067 451.574 153.735C450.183 152.931 444.146 151.447 444.146 151.447Z" fill="#DD513A"/>
<path d="M441.965 103.757C443.187 101.185 445.964 97.8348 450.852 99.8512C455.517 101.775 456.768 106.504 455.296 111.346C453.823 116.188 444.141 144.654 443.804 148.569L436.071 148.619C436.071 148.619 437.477 126.08 437.819 120.632C438.151 115.389 439.85 108.209 441.965 103.757Z" fill="#F7CC7F"/>
<path d="M454.519 77.5393H428.669C428.334 77.54 428.006 77.6407 427.729 77.8285C427.451 78.0163 427.235 78.2827 427.11 78.5936L419.15 98.0853H404.9C404.708 98.086 404.525 98.1627 404.39 98.2986C404.254 98.4344 404.178 98.6184 404.178 98.8102C404.178 99.0017 404.254 99.1854 404.39 99.3208C404.525 99.4563 404.709 99.5324 404.9 99.5324H445.463C446.01 99.5323 446.545 99.3737 447.004 99.0757C447.462 98.7778 447.825 98.3532 448.047 97.8534L456.06 79.93C456.176 79.6722 456.227 79.3892 456.206 79.1069C456.185 78.8247 456.094 78.5521 455.941 78.3143C455.787 78.0764 455.577 77.8809 455.328 77.7455C455.08 77.6101 454.802 77.5392 454.519 77.5393V77.5393Z" fill="black"/>
<path d="M440.601 88.8891C440.427 89.7642 439.666 90.3493 438.902 90.207C438.138 90.0646 437.661 89.2186 437.848 88.3435C438.035 87.4684 438.783 86.8833 439.547 87.0256C440.311 87.1679 440.775 88.014 440.601 88.8891Z" fill="white"/>
<path d="M426.53 32.6332C425.75 32.375 424.986 32.0687 424.244 31.716C423.406 31.3127 422.324 30.8382 421.636 30.7328C420.196 30.5088 417.717 30.659 416.347 32.143C414.643 33.988 411.606 32.4777 412.225 42.1721C412.915 53.145 419.01 51.9404 419.16 51.7533C419.311 51.5661 424.597 44.7341 424.597 44.7341C424.597 44.7341 426.441 48.7827 426.441 48.6351C426.441 48.4875 435.889 35.7856 426.53 32.6332Z" fill="#0E2E35"/>
<path d="M421.902 52.5652L422.429 56.4846C422.429 56.4846 423.609 62.1331 422.092 63.2217C420.575 64.3103 415.641 56.3238 415.641 56.3238L416.168 46.3895L421.902 52.5652Z" fill="#F7A491"/>
<path d="M415.994 49.6105C417.248 52.9975 420.23 55.0797 422.35 55.8889L421.902 52.5652L416.168 46.3895L415.994 49.6105Z" fill="#F47458"/>
<path d="M421.592 35.5828C422.345 35.4669 423.114 35.5173 423.846 35.7305C424.577 35.9436 425.253 36.3143 425.826 36.8166C426.4 37.3189 426.856 37.9406 427.164 38.6381C427.471 39.3357 427.623 40.0921 427.608 40.8544C427.568 42.5384 427.421 44.2182 427.168 45.8835C426.47 50.4092 423.383 54.3945 421.344 54.0386C419.305 53.6828 414.169 49.7792 415.072 43.34C415.641 39.3731 418.217 36.1232 421.592 35.5828Z" fill="#F7A491"/>
<path d="M416.49 44.1174C416.316 45.1138 415.52 45.8043 414.709 45.6646C413.898 45.525 413.392 44.6103 413.553 43.6061C413.713 42.6019 414.522 41.9192 415.333 42.0589C416.145 42.1986 416.661 43.1237 416.49 44.1174Z" fill="#F7A491"/>
<path d="M415.333 42.0589C415.333 42.0589 417.799 42.673 418.715 41.0862C419.632 39.4995 422.903 36.0783 427.065 37.491C431.227 38.9038 423.404 34.0381 423.072 34.0381L418.744 34.0092C418.744 34.0092 415.662 36.5448 415.552 36.8242C415.441 37.1036 414.554 40.1374 414.554 40.1374L415.333 42.0589Z" fill="#0E2E35"/>
<path d="M419.856 48.6853L424.334 49.5419C424.334 49.5419 423.907 51.2341 421.921 50.9152C419.5 50.5251 419.856 48.6853 419.856 48.6853Z" fill="white"/>
<path d="M343.916 361.414C344.023 361.83 344.188 362.23 344.406 362.6C345.812 365.165 349.078 368.823 349.078 368.823L351.604 363.127C351.604 363.127 351.193 361.338 350.48 358.781C348.038 359.419 345.715 359.785 343.916 361.414Z" fill="#F8A492"/>
<path d="M358.4 356.475C358.4 356.475 344.311 362.537 343.855 362.432C343.56 362.355 338.06 353.167 338.016 344.524C337.989 340.533 342.13 335.731 346.752 336.682C349.078 337.16 349.044 337.808 352.487 342.813C355.929 347.819 358.4 356.475 358.4 356.475Z" fill="#13375B"/>
<path d="M370.429 465.341C370.429 465.341 370.095 470.876 370.092 470.876C369.971 471.58 369.486 473.317 369.486 473.957C369.486 476.359 380.881 471.917 378.326 470.852C378.094 470.758 376.885 470.03 376.809 469.213C376.69 467.953 376.395 465.404 376.395 465.404L370.429 465.341Z" fill="#F7A491"/>
<path d="M378.299 470.844C378.299 470.844 375.623 471.577 374.254 471.762C372.884 471.946 371.077 470.399 370.108 470.818C369.041 471.277 369.083 475.415 369.083 475.415C369.083 475.415 383.428 476.593 387.463 475.375C389.059 474.89 383.77 472.555 378.299 470.844Z" fill="#DD513A"/>
<path d="M347.121 465.341C347.121 465.341 346.787 470.876 346.784 470.876C346.66 471.58 346.178 473.317 346.178 473.957C346.178 476.359 357.573 471.917 355.018 470.852C354.786 470.758 353.216 469.484 353.14 468.667C353.024 467.41 353.087 465.404 353.087 465.404L347.121 465.341Z" fill="#F7A491"/>
<path d="M354.989 470.844C354.989 470.844 352.315 471.577 350.946 471.762C349.576 471.946 347.769 470.399 346.8 470.818C345.733 471.277 345.691 475.415 345.691 475.415C345.691 475.415 360.101 476.788 364.155 475.375C365.728 474.824 360.46 472.555 354.989 470.844Z" fill="#DD513A"/>
<path d="M350.603 364.485L360.639 350.415C360.681 350.294 360.771 350.041 360.902 349.656C361.408 348.259 362.459 345.354 363.376 342.466V342.434C363.663 341.424 364.274 339.664 364.864 337.953C365.52 336.058 366.333 333.707 366.362 333.306L366.225 332.95C365.859 331.996 365.362 329.719 365.172 328.733C365.061 328.103 364.948 326.569 365.699 326.569C366.876 326.569 366.315 328.1 366.858 329.055C367.202 328.012 367.475 326.948 367.674 325.868L367.872 322.876C367.909 322.652 367.669 321.002 368.496 321.002H368.535C369.276 321.058 369.26 322.81 369.568 325.778C369.665 325.436 369.763 325.024 369.831 324.648C369.881 324.12 369.969 323.597 370.095 323.082C369.947 322.254 370.032 320.95 370.914 321.073C371.354 321.134 371.317 322.955 371.317 322.955C371.317 323.203 371.285 325.127 371.301 325.509C371.391 324.864 371.744 322.109 372.434 322.109C373.005 322.109 373.053 322.85 373.04 323.427C373.04 323.772 372.673 326.756 372.652 327.117C372.916 326.664 373.242 324.036 373.508 324.036C374.625 324.036 374.222 327.774 373.811 328.746C373.759 328.919 373.717 329.095 373.685 329.273C373.517 330.245 373.194 331.184 372.729 332.054C372.028 333.253 371.061 335.162 370.914 335.454C370.806 336.05 370.469 338.193 370.047 340.889C369.866 342.041 369.668 343.306 369.463 344.616C369.426 344.901 369.218 345.802 368.409 349.184C367.324 353.813 367.211 354.013 367.163 354.097C366.692 354.933 355.871 369.635 355.41 370.263L355.147 370.632L350.603 364.485Z" fill="#F7A491"/>
<path d="M369.268 331.675C369.268 331.675 368.454 329.59 367.002 329.584C367.256 329.505 367.526 329.488 367.788 329.533C368.05 329.579 368.297 329.687 368.509 329.848C369.204 330.394 369.268 331.675 369.268 331.675Z" fill="#F47458"/>
<path d="M348.177 327.647L346.887 335.818C346.887 335.818 351.81 339.772 354.678 338.939C357.086 338.24 355.434 335.091 355.434 335.091C355.434 335.091 354.151 330.726 354.546 328.438C354.941 326.15 348.177 327.647 348.177 327.647Z" fill="#F7A491"/>
<path d="M349.107 330.117C350.878 330.91 352.755 331.443 354.678 331.698C354.496 330.552 354.391 329.342 354.546 328.448C354.728 327.394 353.385 327.144 351.886 327.18C349.926 327.346 348.178 327.655 348.178 327.655L347.93 329.236C348.265 329.6 348.664 329.898 349.107 330.117V330.117Z" fill="#FE875E"/>
<path d="M341.967 318.216C341.764 318.216 343.913 327.349 347.235 328.92C350.556 330.491 355.521 329.674 356.453 327.212C357.483 324.492 353.727 315.174 349.052 313.991C344.377 312.807 341.967 318.216 341.967 318.216Z" fill="#F7A491"/>
<path d="M345.815 309.824C343.928 310.921 342.43 312.579 341.529 314.568C340.283 315.161 338.774 316.44 338.05 319.89C337.16 324.134 340.326 327.405 343.681 328.388C347.037 329.371 347.556 331.593 347.556 331.593L347.948 329.21C347.948 329.21 347.203 327.128 346.081 326.084C344.959 325.04 346.608 323.525 346.758 322.286C346.868 321.332 346.168 319.479 346.321 317.913C346.321 317.913 348.185 315.085 350.024 314.386C353.143 313.182 349.223 307.86 345.815 309.824Z" fill="#13375B"/>
<path d="M347.229 323.862C347.664 324.916 347.493 325.971 346.832 326.203C346.17 326.435 345.296 325.776 344.861 324.721C344.427 323.667 344.598 322.613 345.256 322.381C345.915 322.149 346.795 322.808 347.229 323.862Z" fill="#F7A491"/>
<path d="M359.617 364.709L378.974 361.546C378.974 361.546 376.769 356.011 375.984 356.011C375.199 356.011 361.347 362.073 361.347 362.073L360.246 364.284L359.617 364.709Z" fill="#F8A492"/>
<path d="M349.7 377.991C349.7 377.991 347.769 387.332 348.557 394.417C349.344 401.502 349.405 426.661 349.405 426.661L346.402 466.92L353.514 467.075C353.514 467.075 361.964 426.835 361.806 427.868C361.648 428.901 364.64 399.536 364.64 399.536L354.567 377.105L349.7 377.991Z" fill="#184655"/>
<path d="M351.588 377.548C351.588 377.548 350.329 385.959 351.905 389.649C353.48 393.339 365.404 429.536 365.559 432.486C365.714 435.435 369.684 468.069 369.684 468.069L377.968 467.837L379.761 431.568L376.008 385.985L372.365 374.459L351.588 377.548Z" fill="#13375B"/>
<path d="M346.895 335.821C346.895 335.821 348.939 337.162 350.846 337.007C352.753 336.851 355.445 335.093 355.445 335.093L355.071 333.823C355.071 333.823 350.142 333.103 350.016 333.182C349.889 333.261 346.895 335.821 346.895 335.821Z" fill="#F7A491"/>
<path d="M368.662 355.729C368.662 355.729 375.984 362.645 379.29 361.464C382.596 360.283 383.96 356.248 375.897 350.344C368.68 345.059 368.662 355.729 368.662 355.729Z" fill="#F8A492"/>
<path d="M373.622 364.266C372.536 358.346 364.666 339.919 364.023 336.524C363.715 334.874 359.464 334.838 355.413 335.054C351.135 335.28 346.887 335.821 346.887 335.821C346.887 335.821 343.099 336.445 341.435 338.006C339.77 339.566 339.327 343.889 341.719 352.091C343.61 358.568 345.954 362.123 347.113 366.852C347.35 368.433 347.551 369.994 347.817 371.818C348.243 378.871 347.817 388.186 347.817 388.186C347.817 388.186 368.435 392.466 376.145 385.972C376.132 385.959 374.738 370.328 373.622 364.266Z" fill="#355389"/>
<path d="M378.879 351.535C378.879 351.535 370.79 358.217 370.319 358.217C370.013 358.217 358.774 349.943 356.179 343.145C354.744 339.387 357.76 335.183 361.184 335.196C363.555 335.196 364.627 335.821 369.349 339.803C374.072 343.786 378.879 351.535 378.879 351.535Z" fill="#466EB6"/>
<path d="M236.571 53.2424C237.888 50.0505 239.244 46.8533 242.684 45.2349C245.468 43.917 248.376 44.4204 250.849 46.2892C257.856 51.5608 251.75 57.3595 259.729 67.3755C262.207 70.4831 265.207 72.9924 266.693 76.6324C268.771 81.7301 266.295 84.1761 262.326 86.6195C243.337 98.296 233.384 74.3288 233.742 68.8279C234.008 64.7477 235.717 55.3062 236.571 53.2424Z" fill="#13375B"/>
<path d="M216.863 115.408C217.654 115.281 219.608 113.887 220.288 113.76C220.814 113.663 221.968 113.497 222.461 113.415C223.059 111.169 226.109 98.9367 226.451 95.3494C226.822 91.4642 229.567 74.6558 229.567 74.6558L236.679 75.9499C236.679 75.9499 233.731 88.8811 232.915 95.1517C232.214 100.537 226.309 112.645 225.558 113.924C225.558 113.955 225.558 113.984 225.558 114.016C225.445 115.916 224.528 115.284 224.528 115.284L223.043 115.663C223.043 115.663 217.775 116.17 217.438 116.296C217.1 116.423 216.063 115.534 216.863 115.408Z" fill="#F7A491"/>
<path d="M235.773 64.8401C230.747 66.5454 227.889 80.2173 227.889 80.2173C227.889 80.2173 235.775 82.4182 237.796 81.2716C237.796 81.2716 240.09 71.1001 240.912 71.4559L235.773 64.8401Z" fill="#6A97CE"/>
<path d="M196.898 139.03C195.867 141.771 195.062 144.592 194.49 147.464C194.456 147.694 194.778 148.782 194.754 149.046C191.667 153.263 187.231 154.18 183.428 154.449C185.366 152.557 188.214 150.759 188.351 150.161C189.283 146.518 189.939 142.809 190.313 139.067C192.67 140.155 194.277 139.285 196.898 139.03Z" fill="#F7A491"/>
<path d="M240.638 93.6256L247.428 112.769C247.428 112.769 236.515 114.825 232.433 115.574C228.35 116.322 205.566 117.319 204.976 117.725C204.549 118.025 199.84 133.276 197.735 141.671C195.349 142.198 191.264 141.565 189.091 140.817C190.265 128.79 194.506 109.738 195.863 107.664C198.075 104.287 240.638 93.6256 240.638 93.6256Z" fill="#256653"/>
<path d="M214.103 147.422C213.601 150.31 213.337 153.234 213.313 156.165C213.313 156.394 213.84 157.417 213.858 157.654C211.614 162.372 207.428 164.109 203.744 165.087C205.292 162.863 207.752 160.567 207.774 159.953C208.01 156.198 207.961 152.431 207.626 148.685C210.163 149.317 211.577 148.165 214.103 147.422Z" fill="#F7A491"/>
<path d="M248.566 94.6245L251.2 99.1264C252.141 100.739 252.721 102.536 252.901 104.395C253.08 106.253 252.855 108.129 252.241 109.892C251.627 111.655 250.637 113.263 249.342 114.607C248.046 115.951 246.475 116.997 244.736 117.675L244.618 117.722C240.751 119.222 218.541 124.477 218.051 124.984C217.685 125.358 215.915 141.215 215.417 149.865C213.17 150.827 209.038 150.975 206.765 150.656C205.666 138.624 206.264 119.114 207.21 116.821C208.753 113.075 248.566 94.6245 248.566 94.6245Z" fill="#327F6B"/>
<path d="M212.978 156.302C213.571 155.648 215.741 159.246 216.284 160.013C216.895 160.875 216.721 161.526 216.647 161.661C216.455 162.017 205.008 168.756 202.216 169.236C201.921 169.252 201.629 169.175 201.381 169.015C200.288 168.047 205.311 160.909 207.565 159.974C209.025 159.362 210.318 159.236 212.978 156.302Z" fill="#13375B"/>
<path d="M194.124 147.604C194.828 147.077 196.287 151.015 196.677 151.869C197.114 152.831 196.821 153.45 196.724 153.558C196.461 153.872 183.962 158.345 181.131 158.303C180.834 158.265 180.557 158.133 180.341 157.926C179.45 156.774 185.719 150.704 188.111 150.205C189.665 149.868 190.963 149.989 194.124 147.604Z" fill="#13375B"/>
<path d="M240.54 64.7925C240.367 64.7806 240.196 64.7451 240.032 64.6871C239.099 64.521 237.058 64.2759 235.472 64.9507C233.539 65.7678 230.547 73.3852 230.731 81.203C230.802 82.3996 230.873 83.4698 230.937 84.2157C231.424 90.1225 233.118 101.206 233.21 101.267C235.512 102.751 249.411 96.9966 250.367 95.7315C251.324 94.4663 251.885 79.1128 252.351 78.3484L253.262 64.9955C251.645 64.5131 243.011 64.7741 240.54 64.7925Z" fill="#9BC1F9"/>
<path d="M246.174 59.8742C246.174 59.8742 245.279 64.508 245.458 66.3346C245.637 68.1612 244.776 74.0495 240.909 74.0653C237.042 74.0812 240.177 66.5797 240.54 64.79C240.904 63.0003 240.991 57.4598 240.991 57.4598L246.174 59.8742Z" fill="#F7A491"/>
<path d="M240.912 60.2406C240.97 58.7224 240.991 57.4598 240.991 57.4598L246.174 59.8742C246.174 59.8742 245.99 60.8205 245.806 62.0277C243.538 62.4837 241.894 61.6455 240.912 60.2406Z" fill="#F47458"/>
<path d="M248.068 47.0906C249.366 47.9004 250.333 49.1473 250.794 50.6067C251.524 53.0106 250.694 59.21 245.526 60.7071C240.358 62.2042 238.133 57.2806 239.205 53.456C240.277 49.6315 242.589 44.75 248.068 47.0906Z" fill="#F7A491"/>
<path d="M238.559 51.9615C238.659 52.9921 239.228 53.7802 239.829 53.7222C240.429 53.6642 240.832 52.7786 240.732 51.748C240.632 50.7174 240.063 49.9293 239.463 49.9873C238.862 50.0452 238.457 50.9309 238.559 51.9615Z" fill="#F7A491"/>
<path d="M247.462 46.777C247.462 46.777 248.397 53.6933 250.623 54.9479C252.849 56.2026 251.922 59.2654 251.922 59.2654C251.922 59.2654 253.947 52.1487 252.185 49.8503C250.423 47.5519 247.462 46.777 247.462 46.777Z" fill="#13375B"/>
<path d="M249.309 55.9363C248.703 56.8378 248.705 57.9 249.309 58.3086C249.912 58.7171 250.902 58.3217 251.508 57.4203C252.114 56.5188 252.111 55.4566 251.508 55.0481C250.905 54.6395 249.914 55.0349 249.309 55.9363Z" fill="#F7A491"/>
<path d="M241.799 56.3212L245.437 57.2358C245.437 57.2358 244.999 58.6169 243.387 58.2611C241.417 57.8288 241.799 56.3212 241.799 56.3212Z" fill="white"/>
<path d="M259.844 114.83L275.519 114.04C275.519 114.04 269.087 118.665 268.955 118.665C268.824 118.665 263.832 116.694 263.614 116.694C263.395 116.694 259.844 114.83 259.844 114.83Z" fill="#50BFA5"/>
<path d="M573.68 465.567C573.68 465.567 573.985 471.008 573.988 471.018C574.101 471.709 574.544 473.417 574.544 474.044C574.544 476.416 564.084 472.041 566.428 470.997C566.642 470.902 567.745 470.185 567.822 469.384C567.93 468.145 568.204 465.644 568.204 465.644L573.68 465.567Z" fill="#F7A491"/>
<path d="M566.318 471.016C566.318 471.016 568.775 471.735 570.032 471.917C571.288 472.099 572.948 470.578 573.838 470.989C574.818 471.44 574.778 475.504 574.778 475.504C574.778 475.504 561.608 476.661 557.908 475.465C556.44 474.996 561.3 472.7 566.318 471.016Z" fill="#F7CC7F"/>
<path d="M591.085 465.286C591.085 465.286 591.393 470.726 591.393 470.736C591.506 471.427 591.952 473.135 591.952 473.762C591.952 476.121 581.492 471.759 583.837 470.715C584.047 470.621 585.491 469.371 585.559 468.567C585.667 467.331 585.609 465.362 585.609 465.362L591.085 465.286Z" fill="#F7A491"/>
<path d="M583.863 470.691C585.084 471.055 586.324 471.356 587.577 471.593C588.833 471.775 590.49 470.256 591.38 470.665C592.36 471.118 592.399 475.183 592.399 475.183C592.399 475.183 579.324 475.71 575.45 475.143C573.927 474.916 578.842 472.373 583.863 470.691Z" fill="#F7CC7F"/>
<path d="M587.982 378.868C587.982 378.868 589.755 388.046 589.036 395.005C588.317 401.963 588.246 426.687 588.246 426.687L591.578 466.224L584.466 466.39C584.466 466.39 576.709 426.853 576.854 427.87C576.999 428.888 574.254 400.034 574.254 400.034L583.499 377.996L587.982 378.868Z" fill="#355389"/>
<path d="M585.504 372.94C585.504 372.94 593.535 381.407 590.548 390.65C589.347 394.364 578.155 429.839 578.013 432.739C577.871 435.638 574.228 467.687 574.228 467.687L566.621 467.457L564.988 431.824L567.161 383.813L571.776 375.716L585.504 372.94Z" fill="#466EB6"/>
<path d="M536.751 345.394C539.385 342.458 545.104 338.277 545.104 338.277C545.104 338.277 548.512 335.365 549.903 334.885C551.949 334.179 555.453 332.297 560.52 339.983C564.147 345.483 587.034 373.963 590.79 374.92L566.257 386.67C565.586 381.061 553.461 370.463 551.715 368.483C547.817 364.066 534.262 348.188 536.751 345.394Z" fill="#F47458"/>
<path d="M537.895 333.462L545.533 337.943C545.533 337.943 545.747 344.471 543.25 346.166C541.142 347.59 539.562 344.174 539.562 344.174C539.562 344.174 536.72 340.22 534.557 339.007C532.395 337.795 537.895 333.462 537.895 333.462Z" fill="#F7A491"/>
<path d="M539.175 336.327C538.795 338.077 538.124 339.751 537.191 341.279C536.349 340.367 535.403 339.474 534.557 338.994C533.562 338.427 534.194 337.204 535.166 336.05C536.538 334.621 537.889 333.454 537.889 333.454L539.359 334.313C539.459 334.88 539.272 335.881 539.175 336.327Z" fill="#F47458"/>
<path d="M533.907 322.241C534.036 322.083 540.318 329.908 539.544 333.575C538.769 337.241 534.971 340.594 532.332 339.674C529.411 338.654 523.985 329.442 525.931 324.969C527.878 320.496 533.907 322.241 533.907 322.241Z" fill="#F7A491"/>
<path d="M527.037 319.774C529.774 318.248 534.241 317.81 537.573 319.56C541.677 321.708 542.609 327.12 541.327 330.42C540.044 333.72 541.511 335.583 541.511 335.583L539.335 334.313C539.335 334.313 538.063 332.325 537.897 330.744C537.731 329.162 535.424 329.426 534.297 328.722C533.43 328.169 532.324 326.374 530.92 325.441C530.92 325.441 527.385 325.008 525.652 325.984C522.694 327.647 523.108 321.956 527.037 319.774Z" fill="#13375B"/>
<path d="M536.072 330.043C536.051 331.216 536.599 332.175 537.31 332.188C538.021 332.202 538.601 331.258 538.627 330.08C538.653 328.902 538.1 327.945 537.389 327.934C536.678 327.924 536.09 328.867 536.072 330.043Z" fill="#F7A491"/>
<path d="M529.637 336.271L532.964 333.783C532.964 333.783 533.841 335.13 532.411 336.266C530.667 337.645 529.637 336.271 529.637 336.271Z" fill="white"/>
<path d="M521.285 385.777C522.117 384.559 522.481 382.801 523.632 381.46C524.145 380.911 524.716 380.421 525.336 379.997C530.867 376.752 545.312 368.399 545.881 367.74C546.547 366.971 556.398 350.592 556.398 350.592L547.551 348.586L538.903 363.874C538.182 364.446 524.456 374.599 524.456 374.599C524.456 374.599 521.727 376.731 520.242 377.73C519.567 378.115 518.856 378.433 518.119 378.679C517.313 378.958 515.777 379.733 515.469 379.997C515.108 380.316 514.386 380.993 513.957 381.407C513.528 381.821 513.009 382.29 512.806 382.538C512.57 382.743 512.303 382.91 512.016 383.033C511.925 383.08 511.85 383.152 511.8 383.242C511.751 383.331 511.729 383.434 511.739 383.536C511.748 383.638 511.788 383.734 511.853 383.814C511.918 383.893 512.005 383.95 512.103 383.979C512.522 384.098 513.091 383.834 513.441 383.671C514.434 383.202 515.648 381.942 515.714 382.09C515.78 382.237 514.545 384.947 514.423 385.266C514.302 385.585 512.888 388.734 512.814 389.435C512.74 390.137 513.164 390.3 513.48 390.044C513.744 389.823 516.027 385.616 516.027 385.616C516.027 385.616 516.317 385.089 516.43 385.387C516.544 385.685 514.484 389.517 514.284 390.145C514.084 390.772 514.244 391.286 514.811 391.067C515.514 390.803 517.463 386.586 517.463 386.586C517.463 386.586 517.726 386.059 517.887 386.244C518.048 386.428 516.254 389.649 516.236 390.021C516.217 390.392 516.549 390.759 517.026 390.448C517.6 390.081 519.307 386.304 519.307 386.304C519.307 386.304 519.517 386.054 519.57 386.23C519.623 386.407 518.293 389.264 518.393 389.681C518.399 389.726 518.415 389.769 518.439 389.808C518.463 389.847 518.495 389.881 518.532 389.907C518.57 389.933 518.612 389.951 518.657 389.961C518.702 389.97 518.748 389.97 518.793 389.96C519.528 389.955 520.45 386.995 521.285 385.777Z" fill="#F8A492"/>
<path d="M553.967 359.258C553.967 359.258 551.086 358.341 549.226 357.492C547.991 356.926 542.591 354.237 542.591 354.237C542.591 354.237 544.917 344.411 546.492 340.876C552.266 327.911 558.83 336.854 559.72 338.939C561.722 343.586 553.967 359.258 553.967 359.258Z" fill="#355389"/>
<path d="M352.689 325.291L355.431 323.237C355.431 323.237 356.156 324.347 354.976 325.285C353.548 326.429 352.689 325.291 352.689 325.291Z" fill="white"/>
<path d="M674.611 475.233H37.5345C36.7443 475.233 36.0911 476.058 36.0911 477.078C36.0911 478.095 36.7364 478.923 37.5345 478.923H674.611C675.401 478.923 676.052 478.101 676.052 477.078C676.052 476.045 675.406 475.233 674.611 475.233Z" fill="#184655"/>
<path d="M275.875 114.027C275.809 113.861 275.664 113.858 275.517 113.853C274.077 113.831 272.64 113.724 271.213 113.531C270.977 113.499 270.745 113.44 270.523 113.354C270.142 113.205 269.722 113.19 269.332 113.312C269.116 113.365 268.894 113.388 268.671 113.381C267.949 113.381 265.884 112.674 264.825 112.49C264.707 112.469 264.597 112.414 264.509 112.332C264.421 112.249 264.359 112.143 264.33 112.026C263.277 107.898 261.051 98.6389 260.759 95.5919C260.39 91.6988 257.701 74.1392 257.701 74.1392L250.51 76.1476C250.51 76.1476 253.47 89.1078 254.29 95.3889C254.919 100.241 259.768 110.539 261.285 113.499C262.028 115.706 263.693 115.766 264.08 115.814C264.301 115.84 264.504 115.948 264.649 116.117C264.91 116.425 265.216 116.692 265.558 116.908C265.805 117.068 266.015 117.278 266.177 117.524C266.482 117.97 266.756 118.436 267.025 118.905C267.204 119.214 267.394 119.314 267.66 119.24C267.796 119.205 267.914 119.12 267.991 119.002C268.068 118.884 268.098 118.741 268.076 118.602C268.058 118.1 267.909 117.611 267.644 117.184C267.526 117.036 267.466 116.85 267.477 116.661C267.488 116.471 267.568 116.293 267.702 116.159C267.852 115.938 268.029 115.736 268.229 115.558C268.325 115.464 268.44 115.391 268.567 115.346C268.694 115.3 268.829 115.283 268.963 115.294C269.483 115.428 270.011 115.526 270.544 115.587L270.978 115.677L271.215 115.727C271.252 115.727 272.006 115.819 272.269 115.819C272.48 115.819 272.82 115.835 273.109 115.848C273.392 115.832 273.672 115.79 273.947 115.724C274.195 115.721 274.434 115.628 274.619 115.46C274.695 115.389 274.771 115.31 274.732 115.197C274.715 115.148 274.683 115.104 274.641 115.073C274.6 115.041 274.55 115.023 274.497 115.02C274.143 114.979 273.792 114.92 273.444 114.844C273.707 114.844 274.54 114.823 274.806 114.817C274.977 114.817 275.147 114.78 275.305 114.711C275.462 114.642 275.603 114.541 275.72 114.414C275.828 114.298 275.938 114.193 275.875 114.027Z" fill="#F7A491"/>
<path d="M253.347 64.9639C256.895 64.3181 259.821 80.2093 259.821 80.2093C259.821 80.2093 251.937 82.4102 249.917 81.2636C249.917 81.2636 247.623 71.0921 246.801 71.4479L253.347 64.9639Z" fill="#9BC1F9"/>
<path d="M167.534 350.56C167.769 349.885 164.497 349.342 164.323 348.662C164.15 347.982 168.456 347.927 168.609 347.328C168.893 346.227 163.889 347.096 163.986 346.58C164.084 346.063 169.202 344.914 168.648 344.028C168.095 343.143 163.467 345.776 163.328 345.178C163.188 344.579 167.853 343.116 167.769 341.798C167.724 341.095 160.114 345.307 159.232 344.925C158.35 344.542 160.18 341.234 159.477 340.744C158.774 340.254 156.759 347.465 156.274 347.705C155.789 347.945 145.509 353.818 141.85 354.751C141.405 353.525 140.446 351.872 140.054 350.713C138 352.173 136.477 352.908 134.359 354.239C135.892 358.088 138.079 362.302 139.148 362.787C142.404 364.258 154.994 353.807 157.507 352.02C160.02 350.233 161.458 350.81 163.165 350.244C164.871 349.677 167.3 351.24 167.534 350.56Z" fill="#F7A491"/>
<path d="M133.919 356.095C133.919 356.095 131.101 343.641 131.588 340.017C132.076 336.393 136.369 333.037 139.343 334.284C142.317 335.531 143.665 352.932 143.665 352.932L133.919 356.095Z" fill="#F7CC7F"/>
</svg>
