<svg width="824" height="549" viewBox="0 0 824 549" fill="none" xmlns="http://www.w3.org/2000/svg">
<g clip-path="url(#clip0_20449_23)">
<path d="M760.775 430.259C751.48 379.919 707.885 334.851 656.676 333.86C637.655 333.493 617.583 338.675 600.218 330.907C587.375 325.161 578.459 313.289 567.027 305.104C549.583 292.6 526.879 289.265 505.532 291.532C484.185 293.8 463.764 301.184 443.59 308.513C412.552 272.125 363.997 251.39 316.232 254.121C268.468 256.852 222.598 282.993 195.928 322.683C142.827 322.01 92.4254 363.987 83.4988 416.282C78.9146 443.117 85.5533 470.992 99.8799 494.081H755.078C762.283 473.079 764.452 450.18 760.775 430.259Z" fill="#F6F5F5"/>
<path d="M701.431 494.597L700.835 493.565C712.838 486.647 723.838 476.233 733.52 462.609C742.697 449.708 750.335 434.221 755.609 417.825C766.098 385.206 769.798 350.429 773.319 316.759C745.303 325.313 718.919 347.778 700.837 378.492C682.561 409.554 672.994 448.698 674.601 485.865L673.412 485.917C671.794 448.53 681.418 409.156 699.816 377.89C718.213 346.625 745.212 323.814 773.841 315.365L774.695 315.112L774.605 315.999C771.048 350.004 767.37 385.173 756.751 418.193C751.442 434.701 743.746 450.309 734.503 463.304C724.709 477.065 713.585 487.594 701.431 494.597Z" fill="#DADADA"/>
<path d="M677.372 487.786L676.186 487.685C677.265 475.162 681.179 462.579 688.147 449.219C694.874 436.318 703.545 424.544 710.351 415.73C711.999 413.581 713.713 411.393 715.361 409.279C729.765 390.797 744.66 371.673 751.634 348.382L752.776 348.725C745.737 372.241 730.773 391.442 716.301 410.012C714.653 412.126 712.95 414.311 711.293 416.458C704.52 425.242 695.887 436.963 689.205 449.776C682.308 462.988 678.427 475.434 677.372 487.786Z" fill="#DADADA"/>
<path d="M708.879 426.279C707.24 426.281 705.602 426.172 703.977 425.952L704.136 424.772C711.258 425.73 718.784 424.498 725.901 421.204C733.179 417.78 739.501 412.614 744.303 406.164L745.256 406.878C740.335 413.487 733.856 418.778 726.395 422.282C720.916 424.869 714.939 426.233 708.879 426.279V426.279Z" fill="#DADADA"/>
<path d="M720.617 402.812C716.714 389.087 719.39 372.617 727.432 360.814L728.415 361.484C720.565 373.013 717.953 389.087 721.763 402.472L720.617 402.812Z" fill="#DADADA"/>
<path d="M742.151 494.745L741.73 493.631C755.236 488.533 767.404 478.113 775.995 464.292C783.285 452.563 788.221 438.247 790.668 421.731C775.69 422.401 760.713 428.431 749.468 438.335L748.68 437.443C760.303 427.202 775.85 421.031 791.335 420.512L792.047 420.487L791.945 421.19C789.512 438.171 784.482 452.884 777.003 464.921C768.274 478.964 755.884 489.554 742.151 494.745Z" fill="#DADADA"/>
<path d="M705.928 491.591L705.42 490.515C732.579 477.696 757.035 459.807 777.473 437.811L778.35 438.635C757.805 460.736 733.223 478.71 705.928 491.591V491.591Z" fill="#DADADA"/>
<path d="M601.91 495.472C591.473 491.555 581.956 484.243 574.4 474.336C567.442 465.209 562.254 454.116 559.386 442.255C553.717 418.788 556.401 393.756 559.362 372.14L559.493 371.171L560.295 371.72C579.316 385.041 598.985 398.816 613.251 417.816C629.138 438.975 634.78 463.85 628.358 484.355L627.221 484.001C633.538 463.858 627.965 439.384 612.309 418.53C598.356 399.946 579.116 386.35 560.422 373.257C557.53 394.544 555.019 419.046 560.556 441.964C563.383 453.666 568.502 464.608 575.358 473.603C582.774 483.342 592.113 490.518 602.339 494.358L601.91 495.472Z" fill="#DADADA"/>
<path d="M572.377 393.695L571.309 394.222L617.255 487.172L618.324 486.644L572.377 393.695Z" fill="#DADADA"/>
<path d="M596.302 447.16C589.961 447.095 583.742 445.42 578.227 442.293C572.712 439.165 568.083 434.688 564.775 429.282L565.797 428.673C569.064 434.013 573.663 438.415 579.143 441.446C584.623 444.478 590.797 446.035 597.06 445.966L597.087 447.158C596.823 447.16 596.56 447.16 596.302 447.16Z" fill="#DADADA"/>
<path d="M149.518 493.773C135.949 490.987 123.265 484.243 111.822 473.735C101.528 464.278 92.7001 452.049 86.2949 438.404C73.8854 411.939 70.0895 382.639 66.4447 354.303L66.3184 353.323L67.244 353.669C102.569 366.88 127.253 382.079 144.933 401.5C167.525 426.326 177.086 458.906 169.884 486.535L168.731 486.236C175.833 458.992 166.377 426.831 144.052 402.302C126.66 383.194 102.399 368.192 67.7549 355.132C71.3612 383.073 75.1873 411.909 87.3743 437.896C93.7136 451.415 102.445 463.504 112.627 472.859C123.91 483.227 136.405 489.878 149.759 492.623L149.518 493.773Z" fill="#DADADA"/>
<path d="M161.883 486.828C152.11 467.762 140.563 449.656 127.396 432.752C114.23 415.853 99.5025 400.229 83.408 386.087L84.1935 385.192C100.346 399.388 115.125 415.071 128.335 432.036C141.549 448.993 153.136 467.157 162.943 486.285L161.883 486.828Z" fill="#DADADA"/>
<path d="M119.92 426.159C108.49 422.163 97.3014 417.51 86.4102 412.222L86.9293 411.152C97.7771 416.419 108.921 421.055 120.304 425.036L119.92 426.159Z" fill="#DADADA"/>
<path d="M141.007 419.36L138.342 445.814L139.528 445.934L142.193 419.479L141.007 419.36Z" fill="#DADADA"/>
<path d="M101.246 493.452C94.261 493.452 87.0703 491.374 80.3354 487.399C73.6528 483.458 67.5882 477.792 62.7925 471.031C58.9636 465.632 54.8134 455.933 50.46 442.225C47.2216 432.033 45.0765 423.304 45.0545 423.219L44.832 422.304L45.7522 422.494C46.9937 422.746 76.2209 428.807 86.6775 438.192L85.881 439.079C81.6703 435.302 73.3617 431.44 61.8586 427.91C54.9178 425.78 48.7241 424.358 46.4416 423.858C47.8671 429.452 55.6182 458.854 63.7621 470.342C68.4616 476.971 74.3999 482.516 80.937 486.375C88.0426 490.567 95.6591 492.587 102.954 492.217L103.015 493.405C102.43 493.436 101.836 493.452 101.246 493.452Z" fill="#DADADA"/>
<path d="M97.3415 478.5C85.5621 462.134 71.9991 447.128 56.9023 433.757L57.6934 432.865C72.8554 446.296 86.4773 461.37 98.3083 477.808L97.3415 478.5Z" fill="#DADADA"/>
<path d="M247.75 495.127L246.972 494.223C262.217 481.106 272.895 463.485 277.465 443.906C282.034 424.327 280.259 403.804 272.395 385.299C262.247 387.086 252.4 392.184 243.891 400.053C235.925 407.421 229.333 416.943 224.829 427.594C216.314 447.704 214.685 470.24 213.661 493.493L212.469 493.441C213.501 470.076 215.139 447.424 223.73 427.13C228.303 416.326 234.991 406.661 243.08 399.181C251.889 391.031 262.117 385.796 272.659 384.045L273.121 383.968L273.305 384.396C281.393 403.167 283.277 424.028 278.682 443.943C274.088 463.858 263.256 481.789 247.761 495.127H247.75Z" fill="#DADADA"/>
<path d="M229.14 490.916L228.006 490.551C236.385 464.559 248.123 439.772 262.921 416.817L263.921 417.462C249.181 440.331 237.489 465.024 229.14 490.916Z" fill="#DADADA"/>
<path d="M246.706 446.37L246.027 445.39C253.591 440.168 262.205 436.66 271.266 435.113L271.467 436.285C262.577 437.806 254.127 441.248 246.706 446.37V446.37Z" fill="#DADADA"/>
<path d="M523.389 457.762C522.387 457.762 521.408 457.465 520.575 456.909C519.742 456.352 519.093 455.562 518.71 454.637C518.326 453.712 518.226 452.694 518.422 451.712C518.617 450.731 519.099 449.829 519.808 449.121C520.516 448.413 521.419 447.931 522.401 447.735C523.384 447.54 524.402 447.64 525.327 448.023C526.253 448.407 527.044 449.055 527.6 449.888C528.157 450.72 528.454 451.699 528.454 452.7C528.453 454.042 527.919 455.329 526.969 456.278C526.019 457.226 524.732 457.76 523.389 457.762V457.762ZM523.389 448.829C522.623 448.829 521.874 449.056 521.237 449.482C520.601 449.907 520.104 450.512 519.811 451.219C519.518 451.926 519.441 452.704 519.591 453.455C519.74 454.206 520.109 454.895 520.651 455.437C521.192 455.978 521.882 456.347 522.634 456.496C523.385 456.645 524.164 456.569 524.871 456.276C525.579 455.983 526.184 455.487 526.609 454.85C527.035 454.214 527.262 453.465 527.262 452.7C527.261 451.674 526.852 450.69 526.126 449.965C525.4 449.239 524.416 448.831 523.389 448.829V448.829Z" fill="#DADADA"/>
<path d="M722.978 312.477C721.976 312.478 720.996 312.181 720.163 311.625C719.33 311.07 718.68 310.279 718.296 309.354C717.913 308.429 717.812 307.412 718.007 306.43C718.202 305.447 718.684 304.545 719.393 303.837C720.101 303.129 721.003 302.647 721.986 302.451C722.969 302.255 723.987 302.356 724.913 302.739C725.838 303.122 726.63 303.77 727.186 304.603C727.743 305.435 728.04 306.414 728.04 307.415C728.039 308.757 727.505 310.043 726.556 310.992C725.607 311.941 724.32 312.475 722.978 312.477ZM722.978 303.545C722.212 303.545 721.463 303.772 720.826 304.197C720.189 304.622 719.693 305.227 719.4 305.934C719.107 306.641 719.03 307.42 719.179 308.17C719.329 308.921 719.698 309.611 720.239 310.152C720.781 310.693 721.471 311.062 722.222 311.211C722.974 311.361 723.752 311.284 724.46 310.991C725.168 310.698 725.772 310.202 726.198 309.566C726.624 308.929 726.851 308.181 726.851 307.415C726.849 306.389 726.441 305.406 725.715 304.68C724.989 303.955 724.005 303.546 722.978 303.545V303.545Z" fill="#DADADA"/>
<path d="M789.705 392.562C792.173 392.562 794.174 390.563 794.174 388.096C794.174 385.63 792.173 383.63 789.705 383.63C787.237 383.63 785.236 385.63 785.236 388.096C785.236 390.563 787.237 392.562 789.705 392.562Z" fill="#DADADA"/>
<path d="M73.8692 309.202C76.3373 309.202 78.338 307.203 78.338 304.736C78.338 302.27 76.3373 300.27 73.8692 300.27C71.4012 300.27 69.4004 302.27 69.4004 304.736C69.4004 307.203 71.4012 309.202 73.8692 309.202Z" fill="#DADADA"/>
<path d="M35.432 387.501C34.4303 387.501 33.4511 387.204 32.6182 386.648C31.7853 386.092 31.1361 385.301 30.7527 384.376C30.3694 383.451 30.2691 382.433 30.4645 381.451C30.6599 380.47 31.1423 379.568 31.8507 378.86C32.559 378.152 33.4615 377.67 34.4439 377.474C35.4264 377.279 36.4448 377.379 37.3703 377.763C38.2958 378.146 39.0868 378.794 39.6433 379.627C40.1999 380.459 40.4969 381.438 40.4969 382.439C40.4955 383.781 39.9614 385.068 39.0118 386.017C38.0623 386.966 36.7749 387.499 35.432 387.501ZM35.432 378.569C34.6661 378.569 33.9173 378.796 33.2804 379.221C32.6436 379.646 32.1472 380.251 31.854 380.958C31.5609 381.665 31.4842 382.443 31.6337 383.194C31.7831 383.945 32.1519 384.635 32.6936 385.176C33.2352 385.717 33.9253 386.086 34.6765 386.235C35.4278 386.384 36.2064 386.308 36.9141 386.015C37.6218 385.722 38.2266 385.226 38.6522 384.589C39.0777 383.953 39.3049 383.204 39.3049 382.439C39.3034 381.413 38.8949 380.429 38.1689 379.704C37.4429 378.978 36.4587 378.57 35.432 378.569V378.569Z" fill="#DADADA"/>
<path d="M310.991 446.15C309.989 446.15 309.01 445.854 308.177 445.297C307.344 444.741 306.695 443.951 306.311 443.026C305.928 442.101 305.828 441.083 306.023 440.101C306.219 439.119 306.701 438.217 307.409 437.509C308.118 436.802 309.02 436.319 310.003 436.124C310.985 435.929 312.003 436.029 312.929 436.412C313.854 436.795 314.645 437.444 315.202 438.276C315.758 439.109 316.055 440.088 316.055 441.089C316.054 442.431 315.52 443.717 314.57 444.666C313.621 445.615 312.333 446.149 310.991 446.15V446.15ZM310.991 437.218C310.225 437.218 309.476 437.445 308.839 437.87C308.202 438.296 307.706 438.9 307.413 439.607C307.12 440.315 307.043 441.093 307.192 441.844C307.342 442.595 307.711 443.284 308.252 443.825C308.794 444.367 309.484 444.735 310.235 444.885C310.986 445.034 311.765 444.957 312.473 444.664C313.18 444.372 313.785 443.875 314.211 443.239C314.636 442.602 314.863 441.854 314.863 441.089C314.862 440.063 314.453 439.079 313.728 438.353C313.002 437.628 312.017 437.22 310.991 437.218V437.218Z" fill="#DADADA"/>
<path d="M124.425 173.347C124.425 163.701 111.09 155.88 94.6373 155.88C78.1848 155.88 64.8223 163.701 64.8223 173.347C64.8223 182.993 78.1601 190.813 94.6126 190.813C98.048 190.821 101.475 190.467 104.836 189.756C107.066 192.436 110.922 194.829 117.426 196.21C115.849 193.207 114.562 190.061 113.581 186.814C120.201 183.61 124.425 178.768 124.425 173.347Z" fill="white"/>
<path d="M119.151 197.486L117.253 197.091C111.485 195.867 107.209 193.734 104.514 190.742C101.259 191.392 97.9464 191.717 94.6264 191.711C86.5127 191.711 78.8715 189.85 73.109 186.473C67.1982 183.006 63.9434 178.348 63.9434 173.352C63.9434 168.356 67.1982 163.698 73.109 160.231C78.877 156.855 86.5127 154.994 94.6264 154.994C102.74 154.994 110.381 156.855 116.141 160.231C122.052 163.698 125.309 168.356 125.309 173.352C125.309 178.754 121.442 183.802 114.666 187.283C115.61 190.217 116.804 193.064 118.237 195.793L119.151 197.486ZM105.198 188.768L105.542 189.185C107.673 191.746 111.112 193.665 115.784 194.898C114.563 192.371 113.546 189.751 112.741 187.063L112.529 186.339L113.208 186.012C119.767 182.833 123.527 178.216 123.527 173.347C123.527 164.209 110.565 156.775 94.6319 156.775C78.6985 156.775 65.7259 164.209 65.7259 173.347C65.7259 182.485 78.6902 189.918 94.6236 189.918C97.9925 189.925 101.353 189.578 104.649 188.883L105.198 188.768Z" fill="#86A7FF"/>
<path d="M111.401 168.979H77.4414V170.171H111.401V168.979Z" fill="#86A7FF"/>
<path d="M102.464 175.529H77.4414V176.72H102.464V175.529Z" fill="#86A7FF"/>
<path d="M691.498 153.102C691.498 143.456 704.836 135.636 721.288 135.636C737.741 135.636 751.079 143.456 751.079 153.102C751.079 162.748 737.741 170.569 721.288 170.569C717.853 170.577 714.426 170.222 711.065 169.512C708.835 172.191 704.979 174.585 698.472 175.966C700.049 172.963 701.337 169.816 702.317 166.569C695.711 163.366 691.498 158.524 691.498 153.102Z" fill="white"/>
<path d="M696.762 177.242L697.69 175.54C699.122 172.811 700.317 169.964 701.261 167.03C694.484 163.55 690.617 158.502 690.617 153.1C690.617 148.104 693.872 143.445 699.783 139.978C705.551 136.602 713.187 134.741 721.3 134.741C729.414 134.741 737.055 136.602 742.818 139.978C748.729 143.445 751.983 148.104 751.983 153.1C751.983 158.095 748.729 162.754 742.818 166.221C737.05 169.597 729.414 171.458 721.3 171.458C717.98 171.464 714.668 171.139 711.412 170.489C708.721 173.481 704.438 175.614 698.676 176.838L696.762 177.242ZM721.289 136.531C705.359 136.531 692.394 143.964 692.394 153.102C692.394 157.972 696.154 162.589 702.714 165.768L703.392 166.094L703.181 166.819C702.372 169.507 701.35 172.127 700.126 174.653C704.796 173.421 708.237 171.502 710.366 168.941L710.712 168.524L711.242 168.639C714.542 169.335 717.906 169.682 721.278 169.674C737.209 169.674 750.173 162.24 750.173 153.102C750.173 143.964 737.223 136.531 721.289 136.531V136.531Z" fill="#86A7FF"/>
<path d="M738.466 148.735H704.506V149.926H738.466V148.735Z" fill="#86A7FF"/>
<path d="M729.528 155.285H704.506V156.476H729.528V155.285Z" fill="#86A7FF"/>
<path d="M461.734 377.38H358.067V494.084H461.734V377.38Z" fill="#D3DFFF"/>
<path d="M462.627 494.976H357.174V376.485H462.627V494.976ZM358.959 493.189H460.839V378.261H358.959V493.189Z" fill="#86A7FF"/>
<path opacity="0.2" d="M461.734 377.38H358.067V427.114H461.734V377.38Z" fill="#1F3C88"/>
<path d="M429.42 435.191C440.2 424.418 440.2 406.95 429.42 396.177C418.64 385.403 401.162 385.403 390.382 396.177C379.602 406.95 379.602 424.418 390.382 435.191C401.162 445.965 418.64 445.965 429.42 435.191Z" fill="white"/>
<path d="M623.954 86.8105H195.845C190.787 86.8105 186.688 90.908 186.688 95.9624V400.056C186.688 405.111 190.787 409.208 195.845 409.208H623.954C629.012 409.208 633.111 405.111 633.111 400.056V95.9624C633.111 90.908 629.012 86.8105 623.954 86.8105Z" fill="#D3DFFF"/>
<path d="M623.183 410.103H196.625C193.756 410.099 191.004 408.958 188.975 406.93C186.946 404.902 185.804 402.153 185.801 399.285V96.7365C185.804 93.8699 186.945 91.1217 188.972 89.0939C191 87.0662 193.749 85.9243 196.617 85.9185H623.175C626.044 85.9221 628.795 87.0631 630.824 89.0912C632.853 91.1192 633.994 93.8687 633.996 96.7365V399.285C633.994 402.151 632.854 404.9 630.827 406.927C628.8 408.955 626.051 410.097 623.183 410.103V410.103ZM196.617 87.7055C194.221 87.7084 191.925 88.6608 190.231 90.3538C188.537 92.0468 187.584 94.3422 187.581 96.7365V399.285C187.583 401.679 188.536 403.975 190.23 405.668C191.924 407.362 194.221 408.314 196.617 408.316H623.175C625.571 408.314 627.868 407.362 629.562 405.668C631.256 403.975 632.209 401.679 632.211 399.285V96.7365C632.208 94.3422 631.255 92.0468 629.561 90.3538C627.867 88.6608 625.57 87.7084 623.175 87.7055H196.617Z" fill="#86A7FF"/>
<path d="M625.007 98.1804H194.791V362.938H625.007V98.1804Z" fill="white"/>
<path d="M625.902 363.833H193.898V97.2937H625.902V363.833ZM195.686 362.046H624.114V99.0752H195.686V362.046Z" fill="#86A7FF"/>
<path d="M454.745 121.351H357.436V132.718H454.745V121.351Z" fill="#D3DFFF"/>
<path d="M532.246 143.819H279.932V148.071H532.246V143.819Z" fill="#D3DFFF"/>
<path d="M580.784 271.052H483.434V275.304H580.784V271.052Z" fill="#86A7FF"/>
<path d="M567.259 281.618H483.434V285.87H567.259V281.618Z" fill="#86A7FF"/>
<path d="M536.307 292.183H483.434V296.435H536.307V292.183Z" fill="#86A7FF"/>
<path d="M569.058 311.848H483.434V316.1H569.058V311.848Z" fill="#D3DFFF"/>
<path d="M557.165 322.414H483.434V326.666H557.165V322.414Z" fill="#D3DFFF"/>
<path d="M273.01 260.627H231.689V325.357H273.01V260.627Z" fill="#D3DFFF"/>
<path d="M329.949 260.525H283.5V281.906H329.949V260.525Z" fill="#86A7FF"/>
<path d="M329.949 292.326H283.5V325.444H329.949V292.326Z" fill="#D3DFFF"/>
<path d="M449.081 325.911H363.086C361.324 325.909 359.635 325.209 358.39 323.964C357.144 322.719 356.444 321.031 356.441 319.271V276.098C356.444 274.337 357.144 272.65 358.39 271.405C359.635 270.16 361.324 269.46 363.086 269.458H449.081C450.843 269.459 452.532 270.159 453.779 271.404C455.025 272.649 455.726 274.337 455.728 276.098V319.271C455.726 321.032 455.025 322.72 453.779 323.965C452.532 325.21 450.843 325.91 449.081 325.911V325.911ZM363.086 270.498C361.6 270.499 360.175 271.09 359.124 272.139C358.073 273.189 357.482 274.613 357.48 276.098V319.271C357.482 320.756 358.073 322.18 359.124 323.23C360.175 324.28 361.599 324.871 363.086 324.874H449.081C450.567 324.872 451.992 324.281 453.043 323.231C454.094 322.181 454.685 320.756 454.687 319.271V276.098C454.685 274.612 454.094 273.189 453.043 272.139C451.992 271.089 450.567 270.499 449.081 270.498H363.086Z" fill="#86A7FF"/>
<path d="M366.775 313.943L365.844 313.476L371.722 301.733L378.981 309.334L387.628 290.671L399.224 301.557L411.98 288.807L424.449 296.422L440.451 279.751L441.201 280.47L424.622 297.745L412.136 290.119L399.246 303.004L387.968 292.414L379.283 311.157L371.988 303.52L366.775 313.943Z" fill="#3A6BEA"/>
<path d="M420.377 311.544H410.5V316.74H420.377V311.544Z" fill="#86A7FF"/>
<path d="M444.031 313.622H426.875V314.662H444.031V313.622Z" fill="#3A6BEA"/>
<path d="M444.862 200.009C443.138 193.622 439.864 187.76 435.329 182.941C430.795 178.123 425.14 174.497 418.868 172.386L406.096 210.423L444.862 200.009Z" fill="#D3DFFF"/>
<path d="M406.089 210.434L388.318 246.418C395.243 249.832 403.006 251.178 410.677 250.295C418.347 249.412 425.601 246.337 431.568 241.44C437.535 236.542 441.962 230.029 444.32 222.681C446.678 215.333 446.866 207.461 444.861 200.009L406.089 210.434Z" fill="#86A7FF"/>
<path d="M418.866 172.386C409.216 169.154 398.698 169.706 389.439 173.929C380.18 178.153 372.871 185.733 368.991 195.136C365.111 204.539 364.949 215.064 368.538 224.583C372.127 234.101 379.199 241.902 388.323 246.408L406.094 210.423L418.866 172.386Z" fill="#3A6BEA"/>
<path d="M309.097 238.612H252.543V242.864H309.097V238.612Z" fill="#D3DFFF"/>
<path d="M330.469 229.304H231.172V171.933H330.469V229.304ZM232.213 228.263H329.428V172.973H232.213V228.263Z" fill="#86A7FF"/>
<path d="M323.192 184.464C319.896 183.802 316.633 185.946 314.548 188.581C313.585 189.855 312.714 191.195 311.941 192.592C311.091 194.15 310.142 195.653 309.101 197.091C307.058 199.767 303.883 202.004 300.565 201.499C295.176 200.676 292.229 193.286 286.779 193.382C284.236 193.426 282.055 195.186 280.319 197.055C278.583 198.925 277.004 201.049 274.746 202.229C271.59 203.876 267.695 203.344 264.424 201.941C261.153 200.539 258.285 198.343 255.165 196.608C249.923 193.722 244.061 192.144 238.078 192.01V220.075H323.557V184.552C323.431 184.519 323.315 184.483 323.192 184.464Z" fill="#D3DFFF"/>
<path d="M264.424 201.936C267.696 203.339 271.59 203.874 274.746 202.224C277.004 201.044 278.592 198.93 280.319 197.05C282.047 195.169 284.236 193.421 286.78 193.377C292.229 193.281 295.176 200.673 300.565 201.494C303.886 201.999 307.058 199.762 309.102 197.085C310.142 195.65 311.091 194.15 311.942 192.595C308.646 192.748 305.322 192.91 302.452 191.381C299.582 189.852 297.728 186.893 294.885 185.342C289.779 182.597 283.533 185.216 278.446 188.01C275.406 189.682 272.013 191.477 268.646 190.651C264.836 189.721 262.603 185.842 259.431 183.514C253.358 179.086 244.234 181.236 239.04 186.679C238.434 187.309 238.096 188.149 238.098 189.023V191.971C244.077 192.121 249.933 193.712 255.165 196.608C258.286 198.343 261.153 200.53 264.424 201.936Z" fill="#86A7FF"/>
<path d="M581.277 252.265H481.828V171.837H581.277V252.265ZM483.02 251.077H580.096V173.047H483.02V251.077Z" fill="#86A7FF"/>
<path d="M508.68 205.359H498.281V240.344H508.68V205.359Z" fill="#86A7FF"/>
<path d="M508.68 187.695H498.281V205.359H508.68V187.695Z" fill="#D3DFFF"/>
<path d="M527.395 187.695H516.996V213.932H527.395V187.695Z" fill="#D3DFFF"/>
<path d="M527.395 213.932H516.996V240.344H527.395V213.932Z" fill="#86A7FF"/>
<path d="M546.112 199.254H535.713V240.344H546.112V199.254Z" fill="#86A7FF"/>
<path d="M546.112 187.695H535.713V199.254H546.112V187.695Z" fill="#D3DFFF"/>
<path d="M564.826 214.582H554.428V240.344H564.826V214.582Z" fill="#86A7FF"/>
<path d="M564.826 187.695H554.428V214.582H564.826V187.695Z" fill="#D3DFFF"/>
<path d="M205.14 494.081L185.677 473.836L185.719 458.901L162.078 459.604L164.031 494.081H205.14Z" fill="#102048"/>
<path d="M185.877 402.782L159.066 406.356L160.124 425.044L185.816 424.421L185.877 402.782Z" fill="#E28B6D"/>
<path d="M185.813 424.421L160.121 425.044L162.077 459.604L185.717 458.901L185.813 424.421Z" fill="#F9B384"/>
<path d="M185.163 472.767L175.035 477.53L176.05 479.686L186.178 474.923L185.163 472.767Z" fill="white"/>
<path d="M242.476 396.631L216.657 395.64L213.268 415.382L238.002 418.991L242.476 396.631Z" fill="#E28B6D"/>
<path d="M248.235 474.037L232.345 447.243L234.4 436.977C227.396 435.371 216.579 432.903 210.504 431.544L205.15 462.722L248.235 474.037Z" fill="#102048"/>
<path d="M238.002 418.991L213.282 415.382L210.508 431.544C216.594 432.917 227.411 435.371 234.404 436.977L238.002 418.991Z" fill="#F9B384"/>
<path d="M231.986 446.092L221.957 449.467L222.718 451.725L232.747 448.35L231.986 446.092Z" fill="white"/>
<path d="M259.753 399.612C259.753 399.612 249.041 413.103 229.166 408.733C209.291 404.363 212.889 415.87 201.76 418.261C190.63 420.652 159.662 401.195 149.332 419.452C149.332 419.452 143.182 350.322 145.983 306.57C146.747 294.766 148.153 284.791 150.524 278.538L198.055 277.885L208.517 277.739C208.517 277.739 208.552 277.967 208.635 278.42C208.813 279.359 209.184 281.277 209.769 284.017C213.653 302.032 227.285 355.477 259.753 399.612Z" fill="#FBC343"/>
<path d="M209.768 284.017C199.139 291.03 176.976 303.081 145.983 306.57C146.746 294.766 148.153 284.791 150.523 278.538L198.054 277.885L208.634 278.42C208.813 279.359 209.172 281.277 209.768 284.017Z" fill="#E49B31"/>
<path d="M157.396 344.043L168.74 305.173L116.692 290.002L105.349 328.871L157.396 344.043Z" fill="white"/>
<path d="M157.601 343.866L104.453 328.22L116.245 288.225L169.393 303.871L157.601 343.866ZM105.934 327.396L156.794 342.378L167.912 304.695L117.049 289.71L105.934 327.396Z" fill="#86A7FF"/>
<path d="M158.455 307.253L155.045 318.817L156.188 319.154L159.598 307.59L158.455 307.253Z" fill="#86A7FF"/>
<path d="M151.311 305.146L143.102 332.988L144.245 333.325L152.455 305.483L151.311 305.146Z" fill="#86A7FF"/>
<path d="M144.171 303.049L135.961 330.891L137.104 331.228L145.314 303.386L144.171 303.049Z" fill="#86A7FF"/>
<path d="M137.026 300.937L128.816 328.779L129.96 329.116L138.17 301.274L137.026 300.937Z" fill="#86A7FF"/>
<path d="M129.885 298.841L123.611 320.116L124.755 320.453L131.028 299.178L129.885 298.841Z" fill="#86A7FF"/>
<path d="M238.578 207.484C238.578 207.484 240.048 193.333 241.369 193.572C242.69 193.811 242.544 197.269 242.544 197.269C242.544 197.269 245.634 189.378 247.071 189.386C248.507 189.394 247.041 192.611 247.041 192.611C247.041 192.611 248.636 189.386 249.828 189.636C251.021 189.885 250.04 192.622 250.04 192.622C250.04 192.622 251.287 189.976 252.496 190.445C253.704 190.915 252.943 193.081 252.943 193.081C252.943 193.081 253.605 191.368 254.729 192.51C255.852 193.651 250.078 210.22 250.078 210.22L241.94 212.543L238.578 207.484Z" fill="#F9B384"/>
<path d="M250.117 210.267C250.117 210.267 243.017 239.454 225.106 247.98C220.632 250.14 215.59 250.832 210.699 249.957L207.494 244.253L186.477 206.885L193.816 204.313C193.816 204.313 210.296 210.456 219.244 224.151C219.244 224.151 227.586 223.366 238.702 206.693L250.117 210.267Z" fill="#3A6BEA"/>
<path d="M225.106 247.98C220.632 250.14 215.59 250.832 210.7 249.957L207.494 244.253L208.318 230.308C208.318 230.308 220.472 237.204 225.106 247.98Z" fill="#102048"/>
<path d="M151.122 304.291C151.122 304.291 149.516 318.016 148.101 317.799C146.687 317.583 146.865 314.107 146.865 314.107C146.865 314.107 143.536 322.013 142.009 322.013C140.482 322.013 142.056 318.785 142.056 318.785C142.056 318.785 140.342 322.019 139.073 321.777C137.804 321.535 138.859 318.79 138.859 318.79C138.859 318.79 137.521 321.442 136.236 320.986C134.95 320.531 135.771 318.351 135.771 318.351C135.771 318.351 135.06 320.07 133.865 318.93C132.67 317.791 138.9 301.192 138.9 301.192L147.582 298.832L151.122 304.291Z" fill="#F9B384"/>
<path d="M179.631 204.607C144.38 208.872 134.004 257.698 138.025 303.545L151.132 304.341C151.132 304.341 153.304 259.485 171.391 238.049L186.47 206.888L179.631 204.607Z" fill="#3A6BEA"/>
<path d="M186.472 206.888L210.901 223.358C210.901 223.358 217.652 254.925 217.254 282.9C217.254 282.9 169.989 300.366 146.555 282.106L165.023 222.167L186.472 206.888Z" fill="#3A6BEA"/>
<path d="M200.507 178.359C202.77 170.47 194.827 161.239 179.633 169.078C179.633 169.078 164.526 171.659 167.22 197.857L183.096 198.464L200.507 178.359Z" fill="#102048"/>
<path d="M182.795 168.543C184.874 160.206 175.81 158.872 174.3 163.984C174.099 164.667 169.683 162.232 168.447 166.207C167.032 170.766 171.951 173.797 177.511 172.655L182.795 168.543Z" fill="#102048"/>
<path d="M193.815 188.628V204.313L186.965 213.934L179.623 204.61L180.016 188.332L193.815 188.628Z" fill="#F9B384"/>
<path d="M193.817 193.989V204.049C188.908 201.919 186.799 195.477 186.799 195.477L193.817 193.989Z" fill="#102048"/>
<path d="M200.507 178.359C200.507 178.359 205.387 204.11 186.814 195.477L180.717 188.48L184.51 174.338L194.272 171.958L200.507 178.359Z" fill="#F9B384"/>
<path d="M200.506 178.359C200.506 178.359 196.614 172.304 191.747 175.232C186.88 178.161 187.13 188.43 182.065 185.85C177 183.27 179.906 175.331 179.906 175.331L187.355 169.674L195.694 170.618L200.506 178.359Z" fill="#102048"/>
<path d="M182.772 190.274C184.458 189.301 184.924 186.955 183.813 185.033C182.703 183.111 180.437 182.341 178.751 183.313C177.066 184.286 176.599 186.632 177.71 188.555C178.82 190.477 181.087 191.246 182.772 190.274Z" fill="#F9B384"/>
<path d="M187.068 224.752C188.384 224.752 189.452 223.686 189.452 222.37C189.452 221.054 188.384 219.987 187.068 219.987C185.751 219.987 184.684 221.054 184.684 222.37C184.684 223.686 185.751 224.752 187.068 224.752Z" fill="#102048"/>
<path d="M153.096 286.095L151.926 285.867C151.945 285.779 153.678 276.943 156.595 267.056C160.528 253.72 164.626 244.92 168.779 240.896L169.603 241.752C160.023 251.041 153.165 285.755 153.096 286.095Z" fill="#102048"/>
<path d="M148.68 257.975C146.482 256.328 141.365 256.506 141.313 256.506L141.269 255.318C141.497 255.318 146.872 255.131 149.394 257.022L148.68 257.975Z" fill="#102048"/>
<path d="M665.683 457.762L665.285 480.386L660.121 494.081H688.123L686.536 457.166L665.683 457.762Z" fill="#102048"/>
<path d="M624.474 460.142V478.898L602.43 494.081H646.816L644.135 458.058L624.474 460.142Z" fill="#102048"/>
<path d="M625.2 477.969L623.756 479.865L630.408 484.926L631.852 483.031L625.2 477.969Z" fill="white"/>
<path d="M661.706 276.147L661.588 276.6L657.632 292.189L649.005 326.164C647.764 331.904 646.837 337.709 646.228 343.55C642.023 382.217 647.456 431.637 650.28 452.952C650.453 454.271 650.343 455.611 649.957 456.883C649.57 458.155 648.916 459.33 648.039 460.329C647.161 461.328 646.08 462.128 644.868 462.676C643.655 463.223 642.34 463.506 641.01 463.504H625.315C623.545 463.501 621.813 462.998 620.316 462.054C618.819 461.11 617.62 459.763 616.855 458.168C596.849 416.298 600.101 353.767 604.119 338.464C610.469 314.256 614.831 278.137 614.831 278.137L628.166 277.566L661.706 276.147Z" fill="#3A6BEA"/>
<path d="M691.745 452.582C691.682 455.168 690.61 457.628 688.758 459.435C686.906 461.243 684.421 462.256 681.832 462.258H668.39C665.986 462.261 663.663 461.388 661.857 459.803C660.05 458.218 658.883 456.03 658.574 453.647C656.011 434.116 649.768 384.912 646.227 343.553C644.382 321.868 643.286 302.326 643.857 290.369C644.06 285.831 644.511 282.392 645.263 280.33L661.587 276.603L678.209 272.817C678.209 272.817 682.329 277.209 686.123 300.611C690.064 325.03 693.629 370.15 691.745 452.582Z" fill="#3A6BEA"/>
<path d="M644.533 376.614C643.794 361.363 644.258 348.36 645.966 336.861C646.529 333.133 648.494 329.761 651.46 327.432L662.627 318.56L663.369 319.493L652.201 328.365C649.471 330.506 647.662 333.608 647.142 337.037C645.453 348.456 644.986 361.385 645.719 376.565L644.533 376.614Z" fill="#102048"/>
<path d="M611.044 381.555L610.898 380.375C618.378 379.447 624.791 379.315 630.501 379.977L630.364 381.16C624.75 380.495 618.43 380.627 611.044 381.555Z" fill="#102048"/>
<path d="M664.663 378.763L664.518 377.583C671.999 376.652 678.413 376.523 684.12 377.185L683.983 378.368C678.372 377.712 672.052 377.846 664.663 378.763Z" fill="#102048"/>
<path d="M631.76 449.356C621.569 449.356 614.019 447.542 613.906 447.515L614.181 446.356C614.354 446.4 631.694 450.559 649.226 446.123L649.519 447.278C643.339 448.851 637.176 449.356 631.76 449.356Z" fill="#102048"/>
<path d="M673.74 449.433C672.13 449.433 670.606 449.384 669.219 449.312C665.305 449.114 661.408 448.67 657.551 447.984L657.779 446.815C657.977 446.853 677.582 450.583 690.632 445.76L691.044 446.878C685.646 448.882 679.203 449.433 673.74 449.433Z" fill="#102048"/>
<path d="M686.118 300.616C678.526 296.567 668.053 293.924 657.626 292.197C652.943 291.412 648.26 290.824 643.852 290.374C629.899 288.958 618.709 288.958 618.709 288.958L628.171 277.574L661.7 276.155L661.582 276.608L678.204 272.823C678.204 272.823 682.333 277.218 686.118 300.616Z" fill="#1F3C88"/>
<path d="M641.137 186.534H627.352V209.529H641.137V186.534Z" fill="#E28B6D"/>
<path d="M633.812 196.095C632.637 199.538 630.369 202.503 627.352 204.538V194.5L633.812 196.095Z" fill="#102048"/>
<path d="M620.245 174.799L619.276 184.478C619.276 184.478 614.766 190.517 617.581 190.517C620.602 190.517 620.125 191.724 620.125 191.724C620.125 191.724 618.43 204.308 633.803 196.081L637.071 177.206L620.245 174.799Z" fill="#E28B6D"/>
<path d="M620.244 174.799C620.244 174.799 624.419 174.25 625.51 178.669C626.6 183.089 628.053 185.806 631.744 182.724L635.801 176.07L628.838 173.166L620.244 174.799Z" fill="#102048"/>
<path d="M620.244 174.799C620.244 171.653 623.977 164.151 635.741 166.146C646.983 168.068 648.755 183.811 642.943 191.011C642.943 191.011 639.976 195.677 635.983 187.14L629.141 177.944L627.69 175.04L620.244 174.799Z" fill="#102048"/>
<path d="M636.601 186.564C635.502 188.485 633.228 189.262 631.547 188.293C629.866 187.324 629.41 184.98 630.52 183.056C631.63 181.132 633.896 180.357 635.574 181.326C637.252 182.295 637.714 184.64 636.601 186.564Z" fill="#E28B6D"/>
<path d="M662.701 204.502C689.116 213.037 709.969 248.76 685.54 249.356C661.111 249.951 646.219 227.327 646.219 227.327L662.701 204.502Z" fill="#E49B31"/>
<path d="M545.827 231.757C545.827 231.757 532.778 226.073 532.336 227.341C531.893 228.609 534.978 230.182 534.978 230.182C534.978 230.182 526.584 228.988 525.884 230.242C525.183 231.497 528.71 231.804 528.71 231.804C528.71 231.804 525.115 231.604 524.744 232.762C524.373 233.921 527.241 234.409 527.241 234.409C527.241 234.409 524.324 234.192 524.14 235.474C523.956 236.756 526.213 237.162 526.213 237.162C526.213 237.162 524.395 236.888 524.84 238.433C525.285 239.979 542.556 243.1 542.556 243.1L548.599 237.16L545.827 231.757Z" fill="#E28B6D"/>
<path d="M676.269 284.182L617.298 290.613C616.128 290.739 614.944 290.612 613.827 290.243C612.71 289.873 611.686 289.268 610.822 288.47C609.958 287.671 609.276 286.697 608.82 285.612C608.365 284.528 608.147 283.359 608.182 282.183L608.92 257.865L609.267 246.66V246.386C608.862 246.845 608.433 247.282 607.981 247.695C607.981 247.695 607.981 247.695 607.956 247.72C607.407 248.23 606.657 248.862 605.74 249.553C597.912 255.461 577.034 265.606 542.539 243.111L545.816 231.76L583.052 233.286C583.052 233.286 599.747 219.806 614.57 210.552C624.258 204.513 635.47 201.156 646.885 201.455C652.043 201.584 657.597 202.408 662.697 204.502C675.269 209.696 681.501 256.043 683.55 275.131C683.785 277.296 683.15 279.466 681.784 281.163C680.419 282.86 678.435 283.946 676.269 284.182Z" fill="#FBC343"/>
<path d="M578.952 244.239C577.875 236.844 582.495 232.985 582.69 232.825L583.445 233.748C582.62 234.5 581.932 235.388 581.41 236.375C580.152 238.67 579.721 241.255 580.133 244.061L578.952 244.239Z" fill="#E49B31"/>
<path d="M614.545 242.216C614.545 242.216 614.174 251.824 608.92 257.863L609.266 246.657C611.233 245.063 613.485 243.207 614.545 242.216Z" fill="#E49B31"/>
<path d="M597.085 255.01L596.852 253.841C605.476 252.12 617.092 237.678 617.207 237.533L618.138 238.274C615.937 240.958 613.582 243.513 611.085 245.924C605.616 251.187 600.906 254.245 597.085 255.01Z" fill="#E49B31"/>
<path d="M786.725 493.189H41.9941V494.976H786.725V493.189Z" fill="#102048"/>
</g>
<defs>
<clipPath id="clip0_20449_23">
<rect width="824" height="549" fill="white"/>
</clipPath>
</defs>
</svg>
