<svg width="748" height="547" viewBox="0 0 748 547" fill="none" xmlns="http://www.w3.org/2000/svg">
<g clip-path="url(#clip0_20449_157)">
<path d="M84.3497 75.7002C197.024 33.8175 311.54 70.8451 389.207 151.495C466.874 232.144 629.873 95.8298 716.318 176.348C775.313 231.298 748.291 372.575 667.399 433.766C557.447 516.939 147.829 519.435 79.8658 490.895C-36.2716 442.125 79.125 351.808 24.9131 265.231C-39.0424 163.091 34.5585 94.2085 84.3497 75.7002Z" fill="#A7CEFC"/>
<path d="M718.579 466.851C662.178 464.09 470.313 468.768 411.96 470.59C353.608 472.413 285.874 468.184 250.691 461.965C215.507 455.747 12.1293 462.495 21.3595 479.215C30.5896 495.936 111.972 486.696 204.265 493.416C296.555 500.137 504.122 492.575 550.942 493.416C597.761 494.256 640.695 491.735 701.032 488.374C761.369 485.014 751.271 468.45 718.579 466.851Z" fill="#CCE2FF"/>
<path opacity="0.5" d="M596.257 98.7923C596.48 96.7969 596.598 94.7686 596.598 92.714C596.598 91.6288 596.563 90.5545 596.5 89.4846L586.468 86.2354C585.849 82.0016 584.637 77.9604 582.917 74.2014L589.569 66.0051C588.03 63.2942 586.267 60.7299 584.3 58.3362L574.268 61.6138C571.344 58.6228 568.003 56.0432 564.336 53.969L564.907 43.414C562.108 42.1384 559.179 41.0948 556.149 40.3071L549.954 48.8665C547.539 48.4596 545.059 48.2451 542.528 48.2451C540.804 48.2451 539.102 48.348 537.428 48.5383L531.692 39.6616C528.62 40.2874 525.641 41.1735 522.781 42.2982L522.794 52.8684C519.016 54.7479 515.546 57.1481 512.471 59.9772L502.629 56.1745C500.538 58.4631 498.639 60.9312 496.961 63.5546L503.171 72.0921C501.248 75.7636 499.821 79.7348 498.985 83.9205L488.797 86.6358C488.574 88.6312 488.456 90.6595 488.456 92.714C488.456 93.7993 488.491 94.8758 488.555 95.9435L498.587 99.1927C499.205 103.426 500.418 107.468 502.138 111.227L495.486 119.423C497.024 122.134 498.788 124.698 500.755 127.092L510.787 123.814C513.71 126.805 517.052 129.385 520.718 131.459L520.148 142.014C522.947 143.29 525.875 144.336 528.906 145.121L535.101 136.562C537.516 136.969 539.996 137.183 542.526 137.183C544.25 137.183 545.953 137.08 547.624 136.89L553.36 145.766C556.433 145.141 559.411 144.255 562.271 143.13L562.258 132.56C566.036 130.68 569.509 128.28 572.581 125.451L582.423 129.254C584.514 126.965 586.413 124.497 588.091 121.874L581.881 113.336C583.804 109.664 585.231 105.693 586.068 101.508L596.257 98.7923ZM542.528 113.949C530.816 113.949 521.321 104.442 521.321 92.714C521.321 80.9864 530.816 71.4795 542.528 71.4795C554.241 71.4795 563.736 80.9864 563.736 92.714C563.736 104.442 554.241 113.949 542.528 113.949Z" fill="#9EC8FF"/>
<path d="M571.453 117.233C571.206 117.233 570.959 117.15 570.756 116.979C570.292 116.592 570.229 115.902 570.614 115.439C575.899 109.076 578.81 101.004 578.81 92.714C578.81 88.7428 578.161 84.8459 576.883 81.1263C576.686 80.5553 576.99 79.9317 577.56 79.7348C578.131 79.5378 578.753 79.842 578.95 80.413C580.307 84.3602 580.997 88.4999 580.997 92.7118C580.997 101.512 577.908 110.08 572.296 116.837C572.078 117.097 571.765 117.233 571.453 117.233Z" fill="white"/>
<path d="M568.384 67.1143C568.116 67.1143 567.847 67.0158 567.635 66.8167C564.084 63.4691 559.969 60.931 555.407 59.2725C554.839 59.0668 554.546 58.4389 554.751 57.87C554.957 57.3011 555.584 57.0079 556.152 57.2158C560.994 58.9749 565.362 61.6684 569.132 65.2239C569.571 65.6374 569.593 66.331 569.178 66.7708C568.966 66.9983 568.675 67.1143 568.384 67.1143Z" fill="white"/>
<path d="M534.302 58.2641C533.813 58.2641 533.369 57.9337 533.245 57.437C533.096 56.8507 533.452 56.2555 534.036 56.1089C537.045 55.3475 540.159 54.9624 543.292 54.9624C543.895 54.9624 544.385 55.4525 544.385 56.0564C544.385 56.6603 543.895 57.1504 543.292 57.1504C540.34 57.1504 537.405 57.5136 534.571 58.2313C534.479 58.2532 534.39 58.2641 534.302 58.2641Z" fill="white"/>
<path opacity="0.5" d="M509.825 39.8169H171.9V243.056H509.825V39.8169Z" fill="#9EC8FF"/>
<path d="M506.289 44.7769H188.364V231.354H506.289V44.7769Z" fill="white"/>
<path d="M459.465 141.2C474.615 126.759 500.509 127.088 499.963 149.077C499.417 171.066 501.23 173.134 507.465 184.669C529.098 224.694 481.68 222.34 461.904 223.653C442.128 224.966 443.767 187.66 447.263 166.984C450.76 146.307 455.032 145.427 459.465 141.2Z" fill="#303C60"/>
<path d="M466.526 267.281C461.669 308.125 452.843 338.319 451.86 357.681C450.876 377.045 446.943 453.283 446.943 453.283C446.943 453.283 457.759 452.526 458.743 450.885C459.726 449.244 479.065 406.252 478.082 379.67C477.098 353.088 497.396 312.669 497.396 312.669L492.504 273.012L466.526 267.281Z" fill="#212529"/>
<path d="M471.191 285.061L463.595 288.245C461.53 301.195 459.24 312.84 457.228 323.169C469.316 330.996 475.561 357.066 478.236 373.005C479.6 355.171 488.004 333.619 493.218 321.701L471.191 285.061Z" fill="#373D44"/>
<path d="M506.268 263.164C506.268 263.164 522.639 284.074 522.126 307.797C521.343 343.91 517.41 354.219 524.254 392.085C526.927 406.874 518.354 455.252 518.354 455.252C518.354 455.252 511.032 455.828 507.098 453.868C507.426 450.312 502.365 392.49 492.51 365.908C487.738 353.036 481.029 316.986 477.424 296.312C473.818 275.635 473.163 271.371 474.474 271.371C475.785 271.371 506.268 263.164 506.268 263.164Z" fill="#212529"/>
<path d="M412.995 205.09C412.995 205.09 413.723 194.27 412.558 190.927C411.394 187.586 401.342 184.667 401.342 184.667C401.342 184.667 400.905 200.129 401.925 202.024C402.946 203.919 408.918 209.317 408.918 209.317L412.995 205.09Z" fill="#F09959"/>
<path d="M469.514 197.206C446.497 222.012 438.987 232.448 437.239 232.448C431.776 222.793 413.63 202.372 413.63 202.372L405.892 207.352C405.892 207.352 423.772 254.125 435.134 254.608C446.497 255.092 469.592 238.479 469.887 236.571C470.182 234.663 469.514 197.206 469.514 197.206Z" fill="#4F9CF9"/>
<path d="M445.509 252.184C456.767 247.594 469.669 237.995 469.887 236.573C470.18 234.665 469.513 197.209 469.513 197.209C464.496 202.615 460.115 207.411 456.315 211.606C452.192 226.979 452.463 243.719 445.509 252.184Z" fill="#043873"/>
<path d="M492.898 180.877C492.898 180.877 514.922 191.931 519.73 211.499C524.537 231.066 510.312 255.239 508.563 268.139C506.815 281.04 466.61 283.309 466.61 269.5C466.61 256.263 456.537 228.16 457.105 221.003C458.438 204.208 482.958 183.634 482.958 183.634L492.898 180.877Z" fill="#4F9CF9"/>
<path d="M486.498 155.529L495.953 184.724C495.953 184.724 485.858 192.524 468.58 211.29C469.251 198.804 479.7 185.19 479.7 185.19L472.548 157.621L486.498 155.529Z" fill="#F09959"/>
<path d="M490.907 169.145L486.497 155.527L472.545 157.619L479.697 185.188C479.697 185.188 479 186.301 477.969 188.054C484.708 183.048 488.842 176.816 490.907 169.145Z" fill="#E38540"/>
<path d="M481.288 162.117C478.738 171.408 468.863 176.523 461.844 174.591C454.827 172.659 453.326 164.415 455.876 155.124C458.426 145.834 466.182 139.868 473.2 141.8C480.217 143.729 483.838 152.827 481.288 162.117Z" fill="#F09959"/>
<path d="M464.853 256.409C467.915 275.837 456.547 317.398 456.547 317.398C456.547 317.398 463.326 318.94 483.648 316.971C503.97 315.002 512.929 294.693 515.988 294.126C519.048 293.559 520.619 313.026 522.129 314.564C523.636 316.102 523.868 289.982 519.922 279.714C512.929 261.512 514.299 253.79 516.913 242.761C521.558 223.149 464.853 256.409 464.853 256.409Z" fill="#4F9CF9"/>
<path d="M447.437 443.722C449.266 451.168 445.654 457.075 440.818 461.379C436.885 464.88 424.794 466.368 425.375 468.118C425.959 469.869 440.235 470.424 445.042 469.693C449.849 468.965 451.16 466.63 457.143 466.632C461.066 466.635 461.793 463.44 460.045 459.491C458.297 455.542 457.685 453.36 459.265 449.82C460.847 446.282 447.437 443.722 447.437 443.722Z" fill="#4476BD"/>
<path d="M518.778 443.722C518.488 451.452 517.59 457.213 519.484 460.795C526.798 466.921 532.877 473.879 530.556 474.36C519.484 476.649 515.26 470.006 508.995 468.116C501.308 465.799 509.723 456.126 506.712 443.72C505.038 436.823 518.319 438.475 518.319 438.475L518.778 443.722Z" fill="#4476BD"/>
<path d="M521.574 286.05C521.132 283.626 520.586 281.444 519.922 279.714C512.929 261.512 514.299 253.79 516.913 242.76C517.118 241.892 517.201 241.128 517.177 240.459C517.767 238.492 518.315 236.498 518.798 234.494L516.425 213.043L499.313 192.695C486.488 211.511 495.144 234.923 493.219 247.832C491.296 260.741 469.807 277.202 469.807 277.202L470.506 281.781C471.465 288.065 477.282 292.428 483.569 291.555C492.426 290.325 504.044 287.851 509.214 283.048C514.216 278.396 518.648 281.993 521.574 286.05Z" fill="#043873"/>
<path d="M474.831 276.46C474.831 276.46 465.345 279.119 464.211 279.712C463.077 280.305 462.45 283.446 462.45 283.446C462.45 283.446 457.019 288.168 459.1 289.84C461.18 291.511 464.895 295.745 469.807 293.776C472.823 292.568 475.158 281.477 477.134 281.388C479.111 281.298 474.831 276.46 474.831 276.46Z" fill="#F09959"/>
<path d="M501.696 190.211C511.849 190.5 521.055 208.809 524.263 224.694C527.47 240.579 530.846 263.161 530.846 263.161C530.846 263.161 514.021 276.458 497.396 280.344C482.893 283.733 475.49 285.059 475.49 285.059L472.548 276.768L507.249 256.361C507.249 256.361 494.49 232.293 493.22 214.132C491.951 195.974 493.981 189.992 501.696 190.211Z" fill="#4F9CF9"/>
<path d="M404.045 181.048L378.735 186.132L381.959 202.226L407.269 197.142L404.045 181.048Z" fill="#F5DC95"/>
<path d="M406.906 203.777C407.256 197.121 403.963 188.041 402.068 188.054C400.174 188.067 402.652 194.003 401.631 197.942C401.078 200.077 406.906 203.777 406.906 203.777Z" fill="#F09959"/>
<path d="M457.735 144.701C458.296 162.934 479.567 161.535 485.392 160.413C491.22 159.288 478.299 198.88 489.398 201.164C497.549 202.843 495.713 190.076 504.766 190.929C508.772 191.307 512.799 197.506 512.799 197.506C512.799 197.506 512.196 193.686 509.136 190.929C506.077 188.17 498.058 171.25 495.949 159.144C493.84 147.038 479.565 139.207 475.341 138.964C471.117 138.721 460.772 143.535 460.772 143.535L457.735 144.701Z" fill="#303C60"/>
<path d="M489.214 205.291C488.926 205.291 488.635 205.26 488.338 205.197C484.785 204.44 483.063 200.7 482.917 193.432C482.792 187.2 483.819 179.203 484.91 170.738C485.349 167.318 485.806 163.78 486.179 160.356C486.212 160.063 486.472 159.85 486.767 159.883C487.06 159.916 487.27 160.179 487.239 160.472C486.863 163.907 486.406 167.449 485.967 170.876C483.861 187.257 481.87 202.729 488.561 204.155C488.769 204.199 488.976 204.221 489.184 204.221C493.028 204.221 496.489 196.72 498.508 189.415C498.587 189.13 498.879 188.964 499.164 189.043C499.448 189.121 499.614 189.415 499.535 189.699C498.198 194.519 494.616 205.291 489.214 205.291Z" fill="#303C60"/>
<path d="M487.791 209.529C486.581 209.529 485.525 209.059 484.645 208.129C477.394 200.456 484.564 161.949 484.872 160.315C484.926 160.026 485.206 159.836 485.495 159.89C485.783 159.945 485.973 160.223 485.918 160.514C485.844 160.91 478.539 200.117 485.418 207.398C486.218 208.245 487.164 208.582 488.311 208.431C492.076 207.932 494.251 202.819 496.167 198.305C498.026 193.927 499.777 189.794 502.893 189.901C503.186 189.912 503.417 190.159 503.406 190.452C503.395 190.748 503.148 190.984 502.856 190.966C502.829 190.966 502.803 190.964 502.779 190.964C500.443 190.964 498.842 194.734 497.146 198.721C495.116 203.497 492.817 208.908 488.449 209.486C488.228 209.514 488.007 209.529 487.791 209.529Z" fill="#303C60"/>
<path d="M486.184 163.916C484.685 165.85 482.335 166.537 480.937 165.452C479.538 164.365 479.619 161.916 481.118 159.982C482.617 158.048 484.966 157.361 486.365 158.446C487.763 159.533 487.683 161.982 486.184 163.916Z" fill="#F09959"/>
<path d="M320.929 231.433C326.121 241.831 321.822 253.804 311.611 258.033C301.332 262.291 290.092 259.873 284.9 249.476C279.708 239.078 283.564 226.611 293.514 221.629C303.46 216.649 315.734 221.038 320.929 231.433Z" fill="#303C60"/>
<path d="M292.937 259.282C291.789 259.282 289.532 258.877 286.659 256.324C284.303 254.23 282.61 251.02 281.895 247.288C280.993 242.575 281.58 237.155 283.643 231.18C283.739 230.902 284.041 230.753 284.321 230.849C284.598 230.945 284.747 231.25 284.651 231.527C282.649 237.323 282.074 242.557 282.942 247.086C283.613 250.592 285.184 253.589 287.367 255.528C291.009 258.764 293.45 258.175 293.476 258.169C293.758 258.094 294.051 258.263 294.128 258.543C294.204 258.825 294.042 259.116 293.763 259.195C293.726 259.206 293.437 259.282 292.937 259.282Z" fill="#303C60"/>
<path d="M308.814 271.892C314.725 273.218 322.186 289.66 325.839 300.196C329.523 310.821 335.771 324.001 339.861 328.097C343.952 332.193 370.827 341.687 370.827 341.687C370.827 341.687 304.422 341.816 305.781 341.684C307.143 341.551 308.814 271.892 308.814 271.892Z" fill="#A8CEFF"/>
<path d="M344.07 336.403C340.434 335.882 327.321 337.573 332.904 335.232C338.487 332.891 337.709 329.902 337.709 329.902C337.709 329.902 329.788 336.532 328.361 330.734C327.129 325.734 326.659 308.084 321.985 290.391C318.124 281.62 313.069 272.844 308.819 271.89C308.819 271.89 308.671 278.119 308.424 286.853C310.054 306.182 312.822 334.578 313.524 341.735C322.326 341.748 337.056 341.735 349.38 341.72L357.577 341.328C357.575 341.328 347.706 336.924 344.07 336.403Z" fill="#043873"/>
<path d="M287.089 268.249C287.089 268.249 268.29 278.767 263.909 281.003C259.527 283.239 276.185 348.89 279.891 351.703C283.595 354.517 316.213 352.187 319.928 348.642C323.642 345.098 317.078 334.219 320.293 312.438C323.507 290.656 310.49 271.85 308.818 271.892C307.147 271.933 296.234 268.249 296.234 268.249H287.089Z" fill="#4F9CF9"/>
<path d="M279.89 351.703C283.594 354.517 306.936 354.581 316.87 351.485C317.991 351.135 323.082 349.104 323.202 347.194C322.002 346.969 317.243 347.542 315.309 347.096C308.59 345.549 304.89 337.215 304.89 337.215C304.89 337.215 301.191 335.882 292.914 332.372C284.636 328.863 288.045 318.234 287.85 313.553C287.656 308.873 279.671 293.564 264.675 281.961L263.298 282.578C262.225 293.247 276.461 349.1 279.89 351.703Z" fill="#043873"/>
<path d="M409.038 300.196H363.773L343.158 344.124H393.017L411.678 304.36C412.589 302.421 411.178 300.196 409.038 300.196Z" fill="#75A1DE"/>
<path d="M345.858 344.746H318.62C316.931 344.746 315.561 343.374 315.561 341.683C315.561 339.991 316.931 338.619 318.62 338.619H343.904L361.001 301.778C361.713 300.244 363.532 299.579 365.066 300.29C366.597 301.003 367.262 302.824 366.551 304.36L348.633 342.973C348.13 344.054 347.049 344.746 345.858 344.746Z" fill="#3E6BAB"/>
<path d="M298.624 335.364C310.439 337.573 313.345 340.291 319.785 341.33C327.085 342.509 326.218 344.124 320.794 344.124C315.371 344.124 301.744 344.334 297.068 343.295C292.391 342.254 298.624 335.364 298.624 335.364Z" fill="#F09959"/>
<path d="M262.431 282.235C253.376 311.226 240.538 344.122 242.583 344.122C244.629 344.122 296.627 346.227 298.672 344.474C300.718 342.722 300.134 335.994 299.841 335.116C299.548 334.239 270.278 329.038 270.278 329.038C270.278 329.038 274.133 321.516 275.592 306.817C277.054 292.118 264.149 276.736 262.431 282.235Z" fill="#4F9CF9"/>
<path d="M293.973 243.056L286.679 269.748C286.679 269.748 299.006 289.013 302.395 287.302C305.784 285.591 300.5 271.642 300.5 269.748C300.5 267.853 305.784 248.296 305.784 248.296L293.973 243.056Z" fill="#F09959"/>
<path d="M300.753 271.108C300.596 270.476 300.499 270.004 300.499 269.748C300.499 267.853 305.783 248.296 305.783 248.296L293.975 243.056L291.56 251.889C293.669 261.013 297.473 267.089 300.753 271.108Z" fill="#E38540"/>
<path d="M321.268 242.614C322.658 250.353 321.743 260.634 314.879 263.247C308.015 265.862 299.747 260.86 296.412 252.079C293.078 243.297 295.938 234.059 302.802 231.447C309.665 228.832 319.608 233.368 321.268 242.614Z" fill="#F09959"/>
<path d="M298.039 246.97C299 249.677 298.165 252.445 296.173 253.156C294.18 253.867 291.785 252.248 290.821 249.544C289.86 246.837 290.694 244.069 292.687 243.358C294.68 242.647 297.077 244.264 298.039 246.97Z" fill="#F09959"/>
<path d="M321.349 232.891C319.014 251.053 296.974 248.714 296.974 248.714C296.974 248.714 292.429 242.732 290.383 245.87C288.338 249.007 293.22 227.456 305.865 226.777C310.022 226.552 321.349 232.891 321.349 232.891Z" fill="#303C60"/>
<path d="M287.011 236.424C293.604 236.424 298.949 231.404 298.949 225.211C298.949 219.018 293.604 213.997 287.011 213.997C280.418 213.997 275.074 219.018 275.074 225.211C275.074 231.404 280.418 236.424 287.011 236.424Z" fill="#303C60"/>
<path d="M263.235 476.095H265.964L283.59 394.328H277.585L263.235 476.095Z" fill="#2E5B9A"/>
<path d="M348.095 476.095H345.366L324.853 391.437H330.858L348.095 476.095Z" fill="#2E5B9A"/>
<path d="M294.378 397.391C283.443 397.391 276.516 395.424 272.096 391.113C266.615 385.768 265.481 377.489 265.466 366.702C265.453 358.212 265.252 352.683 264.791 348.213C264.618 346.531 265.84 345.025 267.52 344.852C269.2 344.68 270.704 345.903 270.876 347.585C271.357 352.27 271.569 357.985 271.582 366.691C271.6 377.624 272.985 383.427 276.363 386.724C279.829 390.105 286.098 391.501 296.681 391.236C306.901 390.984 313.935 389.551 319.588 388.4C327.022 386.888 332.396 385.794 338.765 388.842C340.291 389.571 340.935 391.4 340.208 392.927C339.48 394.454 337.653 395.1 336.128 394.371C331.607 392.207 327.772 392.988 320.808 394.406C314.919 395.605 307.592 397.095 296.832 397.362C295.995 397.38 295.176 397.391 294.378 397.391Z" fill="#2E5B9A"/>
<path d="M269.537 344.474L286.273 345.172L281.818 391.442C281.818 391.442 269.342 383.468 269.537 374.887C269.734 366.306 269.537 344.474 269.537 344.474Z" fill="#2E5B9A"/>
<path d="M352.159 348.784C366.313 346.633 371.12 347.312 379.782 363.453C388.442 379.591 399.973 408.652 406.603 412.405C416.587 418.056 419.895 431.915 423.995 431.292C428.094 430.668 430.731 432.484 426.271 436.195C421.812 439.908 414.607 443.067 412.144 442.409C409.682 441.75 407.772 431.092 401.337 427.633C394.903 424.172 396.835 421.33 397.259 418.269C397.681 415.208 378.48 401.117 364.003 383.591C355.157 372.883 350.604 365.813 349.928 359.407C349.251 353.001 352.159 348.784 352.159 348.784Z" fill="#F09959"/>
<path d="M387.242 407.309C383.955 398.959 380.658 385.179 377.559 372.546C373.152 354.58 368.532 350.314 365.606 348.397C362.069 347.509 357.875 347.916 352.159 348.784C352.159 348.784 349.253 353 349.928 359.407C350.603 365.813 355.157 372.881 364.003 383.591C371.622 392.818 380.553 401.093 387.242 407.309Z" fill="#E38540"/>
<path d="M356.468 362.989C356.468 362.989 352.703 391.437 349.195 394.327C346.687 396.395 344.91 396.533 343.158 388.048C341.405 379.563 345.885 347.896 345.885 347.896L356.468 362.989Z" fill="#373D44"/>
<path d="M353.468 378.383L318.619 384.247L338.295 355.998L353.267 352.946L362.246 355.013L353.468 378.383Z" fill="#F09959"/>
<path d="M397.256 418.269C396.126 422.829 396.261 426.198 398.226 427.887C400.188 429.576 407.607 442.125 407.607 442.125L409.917 441.774L404.567 430.292L397.256 418.269Z" fill="#4F9CF9"/>
<path d="M412.14 442.409C414.603 443.067 421.807 439.908 426.267 436.195C430.727 432.482 428.09 430.668 423.99 431.292C423.759 431.327 423.532 431.311 423.304 431.257C421.257 435.836 414.522 439.271 412.35 434.434C410.198 429.64 400.97 420.098 397.253 418.056C397.262 418.131 397.264 418.203 397.255 418.269C396.833 421.33 394.899 424.172 401.333 427.633C407.766 431.092 409.678 441.75 412.14 442.409Z" fill="#043873"/>
<path d="M281.03 349.924C268.666 372.141 277.112 386.262 292.139 387.7C307.167 389.139 330.889 386.391 344.719 374.885C358.547 363.378 369.899 351.213 368.312 349.397C366.726 347.581 281.03 349.924 281.03 349.924Z" fill="#E38540"/>
<path d="M351.144 366.5C353.677 358.895 356.594 353.06 362.245 352.955C368.186 352.843 371.84 355.939 372.095 365.671C372.397 377.261 372.806 415.643 372.27 432.709C371.866 445.627 375.627 449.765 375.308 463.232C375.069 473.375 385.868 468.251 381.697 473.511C378.828 477.128 370.288 475.946 365.044 475.277C360.37 474.682 367.463 460.657 360.995 456.906C355.444 453.688 355.335 448.465 358.84 444.509C362.345 440.555 359.229 428.854 356.893 420.662C354.555 412.472 350.932 403.611 348.55 384.243C347.871 378.725 349.597 371.146 351.144 366.5Z" fill="#F09959"/>
<path d="M378.002 469.369C376.213 469.916 374.008 470.518 372.085 470.582C368.189 470.711 367.022 466.422 366.762 460.593C366.534 455.504 362.844 447.492 359.059 444.24C358.989 444.332 358.917 444.424 358.843 444.509C355.338 448.463 355.447 453.688 360.997 456.907C367.465 460.657 360.372 474.682 365.046 475.277C370.291 475.944 378.83 477.128 381.7 473.511C384.409 470.091 381.044 469.82 378.002 469.369Z" fill="#043873"/>
<path d="M359.716 443.061C359.716 443.061 354.034 449.001 354.554 451.471C355.074 453.942 356.825 460.182 357.118 464.993C357.41 469.805 357.67 475.325 357.67 475.325C357.67 475.325 359.716 475.325 359.878 474.743C360.039 474.161 361.176 455.191 361.176 455.191L359.716 443.061Z" fill="#4F9CF9"/>
<path d="M275.074 347.898C275.074 347.898 267.741 379.062 277.006 387.7C286.271 396.338 324.747 388.569 333.809 388.05C339.945 387.7 345.885 395.198 345.885 395.198C345.885 395.198 341.599 377.813 344.521 363.77C347.443 349.73 352.156 348.784 352.156 348.784L345.882 347.9H275.074V347.898Z" fill="#212529"/>
<path d="M273.415 339.75C276.55 346.412 270.039 357.919 272.322 361.234C274.603 364.549 287.669 361.698 296.23 354.799C304.792 347.898 320.997 346.382 320.997 346.382L273.415 339.75Z" fill="#4F9CF9"/>
<path d="M286.677 396.533C312.582 397.509 339.848 397.047 339.848 393.183C339.848 389.319 338.679 386.588 318.62 388.148C298.56 389.709 284.927 391.855 278.889 390.49C272.851 389.124 286.677 396.533 286.677 396.533Z" fill="#2E5B9A"/>
<path d="M562.916 351.182H197.945C196.387 351.182 195.124 349.918 195.124 348.358V346.947C195.124 345.386 196.387 344.122 197.945 344.122H562.914C564.472 344.122 565.735 345.386 565.735 346.947V348.358C565.737 349.918 564.474 351.182 562.916 351.182Z" fill="#2E5B9A"/>
<path d="M611.411 249.491C613.922 258.35 607.792 267.478 601.04 269.397C594.288 271.314 589.469 265.295 586.961 256.438C584.452 247.578 587.89 238.844 594.642 236.925C601.394 235.006 608.9 240.631 611.411 249.491Z" fill="#F09959"/>
<path d="M573.555 421.15C573.555 421.15 590.86 448.061 593.196 449.231C595.532 450.402 601.375 450.693 599.185 455.082C596.994 459.469 596.117 476.728 594.072 477.605C592.027 478.483 574.499 480.531 577.128 477.605C579.757 474.68 581.374 476.144 582.7 470.877C584.027 465.613 585.891 455.666 583.408 453.618C580.926 451.57 565.735 433.143 565.735 433.143L573.555 421.15Z" fill="#F09959"/>
<path d="M486.463 432.707C486.463 432.707 465.428 467.42 461.532 470.54C457.636 473.66 444.783 478.34 455.3 479.121C465.817 479.902 470.88 475.612 477.504 473.66C484.127 471.708 492.306 470.54 489.19 465.47C486.074 460.401 487.367 449.332 494.087 442.31C500.804 435.289 486.463 432.707 486.463 432.707Z" fill="#F09959"/>
<path d="M593.804 352.213C593.804 352.213 541.734 350.85 521.089 367.813C509.013 386.144 479.8 440.232 477.53 446.192C479.088 447.752 487.852 450.568 491.748 450.176C503.24 436.457 518.427 424.596 524.469 413.836C531.914 400.574 534.206 393.945 546.284 392.774C558.361 391.603 585.625 387.704 593.807 387.704C601.988 387.704 593.804 352.213 593.804 352.213Z" fill="#6791C9"/>
<path d="M639.211 479.215H636.482L616.91 397.448H622.914L639.211 479.215Z" fill="#2E5B9A"/>
<path d="M557.449 479.215H560.18L582.639 394.557H576.635L557.449 479.215Z" fill="#2E5B9A"/>
<path d="M623.468 348.642L593.194 353.874C593.194 353.874 552.965 354.243 534.575 357.674C517.845 360.794 515.381 379.828 534.575 406.038C545.479 420.927 554.698 432.803 573.552 446.194C578.348 442.669 580.182 441.334 581.508 432.852C580.142 430.979 576.611 419.253 575.514 416.958C565.086 395.131 551.167 387.192 550.972 385.046C553.311 381.243 612.878 404.867 624.722 390.971C636.035 377.703 623.468 348.642 623.468 348.642Z" fill="#75A1DE"/>
<path d="M624.726 280.018C616.753 278.897 608.633 280.414 601.039 285.921C594.403 292.695 586.895 303.865 587.353 322.29C587.937 345.69 583.737 347.194 588.118 353.629C606.395 361.186 637.652 393.654 630.292 358.845C624.962 333.641 641.983 314.853 628.251 286.897C627.132 284.619 625.736 282.411 624.726 280.018Z" fill="#FFE492"/>
<path d="M587.349 331.095C586.993 343.295 585.273 346.888 586.589 350.712C594.04 351.474 607.669 354.46 611.073 359.234C614.969 364.696 618.863 365.475 617.045 361.444C615.227 357.414 610.424 351.695 617.825 332.062C625.227 312.431 628.732 299.169 621.462 285.519L587.349 331.095Z" fill="#FFF0C2"/>
<path d="M624.727 280.018C619.817 268.38 618.611 255.304 618.611 255.304L605.758 259.107C605.758 259.107 613.06 275.486 606.05 281.337C604.56 282.58 602.832 284.09 601.04 285.919C608.633 280.414 616.753 278.895 624.727 280.018Z" fill="#F09959"/>
<path d="M618.999 258.402C618.238 257.724 617.286 256.877 616.285 255.991L605.8 259.094C605.794 259.114 605.785 259.131 605.778 259.151C606.032 259.731 608.702 265.971 609.054 271.972C612.179 270.075 615.599 266.979 619.51 261.573C619.298 260.374 619.13 259.304 618.999 258.402Z" fill="#E38540"/>
<path d="M615.689 283.676C602.449 288.312 603.917 302.276 591.735 322.872C585.428 333.53 579.572 333.372 579.572 333.372C579.572 333.372 564.783 333.49 546.897 331.3C535.696 329.928 534.986 333.267 542.776 336.057C558.488 341.682 574.791 347.736 587.937 346.272C601.083 344.811 623.566 311.225 624.726 302.482C626.33 290.393 622.356 281.341 615.689 283.676Z" fill="#F09959"/>
<path d="M608.876 400.513C608.054 400.513 607.215 400.502 606.35 400.48C595.59 400.213 588.263 398.723 582.374 397.524C575.412 396.106 571.575 395.327 567.054 397.489C565.529 398.218 563.704 397.572 562.974 396.045C562.244 394.518 562.891 392.691 564.416 391.96C570.786 388.912 576.157 390.006 583.593 391.518C589.247 392.669 596.281 394.1 606.501 394.354C618.01 394.638 625.05 392.912 628.647 388.917C631.859 385.35 632.806 379.403 631.623 370.205C631.224 367.089 630.824 364.498 630.47 362.212C629.48 355.799 628.824 351.563 629.633 345.032C630.387 338.943 632.404 330.821 637.078 315.061C637.558 313.439 639.261 312.516 640.882 312.995C642.501 313.477 643.426 315.181 642.945 316.805C634.204 346.283 634.648 349.161 636.518 361.276C636.877 363.597 637.283 366.229 637.694 369.422C639.121 380.526 637.689 388.024 633.192 393.017C628.555 398.167 620.999 400.513 608.876 400.513Z" fill="#2E5B9A"/>
<path d="M487.892 461.965C473.935 468.8 466.423 472.717 461.95 472.343C460.894 472.255 460.018 472.146 459.284 472.032C454.306 474.977 446.361 478.458 455.3 479.121C465.817 479.902 470.88 475.612 477.504 473.66C484.125 471.71 492.306 470.54 489.19 465.47C488.593 464.499 488.158 463.306 487.892 461.965Z" fill="#D54A41"/>
<path d="M594.717 449.802C594.376 460.867 592.857 471.831 586.099 473.903C584.307 474.452 582.674 474.531 581.23 474.338C580.168 475.653 578.87 475.669 577.128 477.605C574.5 480.53 592.027 478.482 594.072 477.605C596.118 476.728 596.994 459.469 599.186 455.082C600.984 451.478 597.361 450.636 594.717 449.802Z" fill="#D54A41"/>
<path d="M540.957 344.745H496.617C495.426 344.745 494.345 344.054 493.842 342.973L475.924 304.359C475.211 302.825 475.878 301.003 477.41 300.289C478.941 299.576 480.762 300.243 481.474 301.777L498.571 338.619H540.959C542.648 338.619 544.018 339.991 544.018 341.682C544.018 343.373 542.648 344.745 540.957 344.745Z" fill="#75A1DE"/>
<path d="M550.233 331.687C541.274 331.558 532.389 326.211 527.975 326.99C523.561 327.771 509.148 337.781 510.966 338.17C512.784 338.56 524.21 332.63 524.599 332.541C524.988 332.451 527.455 336.647 533.558 338.19C539.662 339.732 533.602 333.61 552.519 339.33C564.819 343.052 550.233 331.687 550.233 331.687Z" fill="#F09959"/>
<path d="M623.41 269.397L624.728 280.018C624.728 280.018 613.135 280.709 607.364 283.958C601.596 287.21 593.082 296.598 593.082 296.598L600.038 284.608L601.038 276.937L623.41 269.397Z" fill="#FFF0C2"/>
<path d="M618.475 282.398C609.864 280.783 605.88 288.509 600.297 301.119C594.714 313.73 585.182 329.046 583.288 331.022C581.393 332.998 551.347 331.022 551.347 331.022C551.347 331.022 550.438 339.733 551.347 340.772C552.256 341.811 557.45 341.682 557.45 341.682C557.45 341.682 559.528 343.343 561.475 344.658C563.422 345.973 579.914 348.443 587.573 348.053C595.234 347.664 602.244 347.014 603.284 345.844C604.322 344.673 625.228 312.431 626.526 300.86C627.824 289.288 622.87 283.223 618.475 282.398Z" fill="#FFE492"/>
<path d="M593.082 229.352C576.795 230.134 579.35 254.665 579.35 254.665C579.35 254.665 583.58 255.974 592.441 254.51C591.759 251.878 592.052 245.15 592.052 245.15C592.052 245.15 593.082 250.611 594.39 253.926C596.263 254.786 598.383 254.024 601.986 253.151C603.837 260.947 609.064 264.24 612.645 265.367C616.601 266.612 620.787 268.097 625.461 265.756C630.136 263.415 627.566 239.494 625.083 234.685C621.358 227.464 615.165 221.001 604.453 224.414C599.08 226.125 593.082 229.352 593.082 229.352Z" fill="#303C60"/>
<path d="M621.403 258.488L628.062 268.227C628.062 268.227 620.682 286.689 642.145 295.052C658.953 301.602 656.974 313.144 649.378 324.752C641.782 336.359 653.923 346.496 653.923 346.496C653.923 346.496 655.774 333.637 672.106 331.21C694.373 327.902 700.679 297.966 684.046 282.998C670.284 270.612 666.095 280.869 656.779 269.754C647.464 258.639 629.875 266.146 629.875 266.146L623.429 256.733L621.403 258.488Z" fill="#303C60"/>
<path d="M691.705 313.094C691.617 313.094 691.53 313.072 691.449 313.028C691.191 312.886 691.097 312.562 691.237 312.304C696.849 302.033 692.271 289.59 689.965 286.221C689.723 285.864 689.491 285.503 689.246 285.122C686.983 281.584 684.164 277.18 669.145 274.473C665.548 273.826 662.629 271.679 659.539 269.408C653.132 264.697 645.871 259.361 630.094 266.631C629.827 266.754 629.511 266.638 629.388 266.371C629.266 266.104 629.382 265.787 629.648 265.664C645.995 258.131 653.526 263.667 660.169 268.55C663.156 270.747 665.977 272.821 669.333 273.425C684.808 276.215 687.767 280.836 690.142 284.549C690.383 284.923 690.608 285.278 690.844 285.621C692.231 287.652 693.947 291.859 694.648 296.679C695.258 300.86 695.321 307.053 692.17 312.818C692.076 312.993 691.893 313.094 691.705 313.094Z" fill="#303C60"/>
<path d="M617.847 268.406C616.785 268.406 615.636 268.314 614.397 268.128C608.72 267.277 601.104 264.043 600.506 245.883C600.497 245.59 600.726 245.342 601.019 245.334C601.321 245.32 601.559 245.555 601.568 245.848C601.815 253.366 603.307 258.93 605.999 262.387C608.049 265.019 610.767 266.507 614.552 267.076C619.853 267.87 623.367 266.885 624.999 264.15C625.15 263.899 625.478 263.816 625.729 263.967C625.98 264.117 626.063 264.446 625.913 264.697C624.444 267.163 621.737 268.406 617.847 268.406Z" fill="#303C60"/>
<path d="M109.576 281.294C90.674 292.116 64.3821 337.105 69.9324 344.446C75.4827 351.789 105.28 332.482 105.28 332.482L109.576 281.294Z" fill="#96CFE0"/>
<path d="M144.89 229.123C137.672 228.926 140.351 223.555 132.05 225.699C127.686 226.826 130.907 228.624 125.239 228.04C119.57 227.456 116.78 226.869 116.065 230.576C115.351 234.282 115.006 235.451 112.279 236.037C109.551 236.621 108.321 241.498 112.279 244.813C116.236 248.128 114.313 249.493 113.437 252.224C112.56 254.955 115.548 255.149 117.171 257.685C118.795 260.221 115.676 260.7 118.015 262.897C120.353 265.096 123.63 264.899 123.63 264.899L133.47 246.01L144.89 229.123Z" fill="#303C60"/>
<path d="M291.948 455.846C291.948 455.846 302.465 456.139 310.644 452.92C318.823 449.702 324.374 444.731 322.914 450.579C321.454 456.43 314.735 466.466 308.892 467.444C303.049 468.422 301.003 474.857 297.791 474.857C294.579 474.857 289.903 467.444 281.723 463.738C274.268 460.364 291.948 455.846 291.948 455.846Z" fill="#4F9CF9"/>
<path d="M209.067 454.859C209.067 454.859 213.49 460.966 221.188 465.215C229.138 469.602 238.311 471.715 232.623 473.7C226.935 475.684 218.621 477.227 210.51 474.868C204.822 473.214 198.152 472.868 196.389 470.177C194.628 467.486 198.463 460.727 196.868 450.627C195.591 442.532 209.067 454.859 209.067 454.859Z" fill="#4F9CF9"/>
<path d="M159.824 356.692C159.824 356.692 220.747 379.533 225.655 385.918C230.563 392.302 294.601 450.468 294.601 454.759C294.601 459.049 283.695 466.849 283.695 466.849C283.695 466.849 228.771 433.113 215.137 415.95C201.504 398.79 168.231 390.515 150.542 388.926C132.853 387.338 159.824 356.692 159.824 356.692Z" fill="#043873"/>
<path d="M162.159 356.692C162.159 356.692 203.839 355.132 212.799 356.692C221.758 358.252 241.409 358.235 228.556 394.558C218.482 423.028 215.156 459.073 215.156 459.073L195.125 464.001C195.125 464.001 195.92 399.186 205.478 381.927C198.516 383.075 185.74 385.318 168.033 390.388C135.183 399.794 117.171 395.083 117.171 395.083L112.281 377.923L162.159 356.692Z" fill="#043873"/>
<path d="M127.354 248.942L117.171 279.071L130.035 287.554L137.327 261.521L127.354 248.942Z" fill="#A86B48"/>
<path d="M131.186 283.444L137.326 261.519L127.353 248.94L123.627 259.961C124.914 269.916 128.019 278.15 131.186 283.444Z" fill="#7A4E34"/>
<path d="M153.331 254.042C153.661 263.206 149.166 271.137 142.021 271.842C134.875 272.546 128.355 265.722 127.456 256.596C126.558 247.47 131.621 239.501 138.767 238.796C145.912 238.092 152.809 239.582 153.331 254.042Z" fill="#A86B48"/>
<path d="M112.279 278.193C81.0184 299.332 100.462 333.491 107.326 358.454C113.173 379.714 112.981 392.564 113.857 392.564C114.733 392.564 136.233 389.346 148.501 378.231C160.771 367.116 169.065 356.349 169.065 356.349C169.065 356.349 153.345 353.546 148.208 333.184C145.599 322.846 146.785 317.234 140.84 300.854C134.898 284.475 112.279 278.193 112.279 278.193Z" fill="#FFE492"/>
<path d="M112.279 278.193L115.626 269.99C115.626 269.99 126.242 277.012 130.477 280.327C134.714 283.641 137.325 284.423 137.325 284.423C137.325 284.423 138.857 296.181 137.863 295.113C125.335 281.668 112.279 278.193 112.279 278.193Z" fill="#FFE492"/>
<path d="M98.4265 479.216H101.156L120.728 397.448H114.723L98.4265 479.216Z" fill="#2E5B9A"/>
<path d="M180.188 479.216H177.459L155 394.558H161.005L180.188 479.216Z" fill="#2E5B9A"/>
<path d="M128.833 400.511C117.898 400.511 110.971 398.544 106.551 394.234C101.07 388.889 99.9361 380.609 99.9208 369.822C99.8858 347.144 98.6337 342.455 92.2574 328.607C91.5494 327.071 92.2203 325.251 93.7543 324.542C95.2883 323.833 97.1063 324.505 97.8143 326.04C104.553 340.678 106.004 346.059 106.039 369.811C106.057 380.745 107.44 386.547 110.82 389.845C114.286 393.225 120.553 394.619 131.138 394.356C141.358 394.105 148.392 392.672 154.045 391.521C161.479 390.007 166.853 388.915 173.222 391.963C174.748 392.691 175.392 394.521 174.664 396.048C173.937 397.575 172.11 398.22 170.585 397.492C166.064 395.328 162.229 396.109 155.265 397.527C149.376 398.726 142.049 400.216 131.289 400.483C130.45 400.503 129.628 400.511 128.833 400.511Z" fill="#2E5B9A"/>
<path d="M263.904 344.391H219.563C217.873 344.391 216.503 343.02 216.503 341.328C216.503 339.637 217.873 338.265 219.563 338.265H261.95L279.047 301.423C279.76 299.89 281.578 299.225 283.112 299.936C284.643 300.649 285.308 302.469 284.598 304.005L266.679 342.619C266.177 343.7 265.093 344.391 263.904 344.391Z" fill="#3E6BAB"/>
<path d="M113.437 308.97C113.437 308.97 121.227 332.762 130.868 342.61C140.509 352.458 159.911 355.767 165.986 355.379C161.143 353.43 151.92 347.883 148.212 333.182C145.602 322.844 146.789 317.232 140.843 300.852C136.429 288.694 122.831 282.099 116.114 279.508C124.496 285.536 134.978 295.465 138.199 303.021C141.774 311.409 113.437 308.97 113.437 308.97Z" fill="#FFF0C2"/>
<path d="M220.965 329.85C220.965 329.85 234.403 323.708 235.863 324.292C237.323 324.877 252.223 333.885 252.223 335.377C252.223 336.869 239.078 329.815 239.078 329.815C239.078 329.815 240.537 333.714 239.661 335.585C238.785 337.455 228.678 337.455 219.564 336.869C210.45 336.283 220.965 329.85 220.965 329.85Z" fill="#A86B48"/>
<path d="M113.868 290.588C101.48 316.011 143.973 341.781 169.181 344.072C194.391 346.363 224.341 338.103 224.341 338.103L220.965 329.85C220.965 329.85 170.462 323.249 169.181 322.325C167.903 321.402 118.404 281.278 113.868 290.588Z" fill="#FFE492"/>
<path d="M129.972 249.8C131.119 252.824 130.278 255.948 128.093 256.782C125.905 257.615 123.202 255.839 122.055 252.815C120.908 249.791 121.749 246.667 123.937 245.833C126.122 245.002 128.825 246.776 129.972 249.8Z" fill="#A86B48"/>
<path d="M153.349 230.445C156.771 229.014 160.626 227.482 159.432 233.304C158.912 235.84 159.432 235.125 160.342 237.464C161.251 239.805 158.051 241.641 157.011 242.943C155.973 244.242 158.523 245.656 156.445 247.216C154.367 248.776 151.629 246.638 149.693 247.216C143.916 248.942 144.63 244.391 141.383 243.446C138.136 242.498 136.545 242.645 135.929 244.726C135.313 246.807 138.201 253.651 135.734 253.001C133.267 252.351 132.712 257.876 132.048 260.996C131.384 264.116 129.692 258.843 129.802 255.272C129.97 249.798 128.613 247.498 126.598 245.966C124.583 244.435 123.727 230.508 133.464 229.987C143.201 229.467 143.264 228.526 147.418 227.646C151.579 226.769 151.789 231.097 153.349 230.445Z" fill="#303C60"/>
<path d="M375.342 98.1449C375.342 78.1225 359.259 61.8591 339.322 61.6053C319.292 61.3493 302.672 77.4989 302.353 97.552C302.198 107.341 305.889 116.266 312.007 122.911C314.826 125.972 316.393 129.985 316.393 134.148V150.53C316.393 161.129 325.052 169.8 335.635 169.8H342.051C352.636 169.8 361.296 161.129 361.296 150.53V134.151C361.296 129.952 362.913 125.933 365.747 122.839C371.706 116.334 375.342 107.665 375.342 98.1449Z" fill="#F5DC95"/>
<path opacity="0.5" d="M370.245 100.598C370.245 83.3716 356.408 69.3816 339.257 69.1628C322.027 68.9418 307.727 82.8356 307.454 100.088C307.32 108.51 310.496 116.187 315.76 121.905C318.185 124.539 319.531 127.989 319.531 131.573V145.666C319.531 154.784 326.98 162.242 336.086 162.242H341.606C350.711 162.242 358.161 154.784 358.161 145.666V131.575C358.161 127.963 359.553 124.506 361.991 121.843C367.115 116.246 370.245 108.787 370.245 100.598Z" fill="white"/>
<path d="M344.239 140.717H332.221C331.657 140.717 331.185 140.286 331.132 139.723C331.111 139.489 328.869 116.259 318.493 109.752C317.982 109.43 317.827 108.756 318.148 108.244C318.467 107.733 319.142 107.577 319.654 107.899C329.773 114.244 332.649 133.82 333.204 138.531H343.085C343.046 136.914 343.14 133.796 344.069 129.759C345.312 124.363 348.36 116.224 355.823 108.087C356.231 107.643 356.922 107.612 357.368 108.021C357.811 108.43 357.842 109.122 357.433 109.566C343.793 124.436 345.31 139.351 345.327 139.5C345.362 139.811 345.264 140.119 345.056 140.351C344.847 140.585 344.549 140.717 344.239 140.717Z" fill="#94BDF2"/>
<path d="M353.236 111.249C349.178 111.249 343.648 108.363 337.82 105.234C330.294 109.247 323.267 112.846 319.333 110.457C317.485 109.334 316.6 107.138 316.63 103.742C316.659 100.545 317.574 98.3899 319.351 97.3353C323.293 94.9985 330.333 98.7269 337.822 102.751C345.459 98.6722 352.648 94.876 356.575 97.2696C358.339 98.344 359.21 100.53 359.171 103.764C359.127 107.129 358.162 109.393 356.3 110.492C355.415 111.019 354.383 111.249 353.236 111.249ZM340.143 103.996C346.143 107.188 352.419 110.247 355.192 108.61C356.352 107.925 356.955 106.286 356.988 103.737C357.019 101.331 356.499 99.7837 355.441 99.1404C352.762 97.5081 346.257 100.749 340.143 103.996ZM322.305 98.7925C321.584 98.7925 320.963 98.9238 320.465 99.2192C319.392 99.8559 318.837 101.383 318.815 103.761C318.793 106.284 319.349 107.908 320.465 108.586C323.162 110.223 329.459 107.181 335.499 103.989C330.617 101.381 325.491 98.7925 322.305 98.7925Z" fill="#94BDF2"/>
<path d="M342.711 174.996H335.718C333.256 174.996 331.239 172.977 331.239 170.511V169.855C331.239 167.389 333.256 165.369 335.718 165.369H342.711C345.174 165.369 347.19 167.389 347.19 169.855V170.511C347.19 172.979 345.174 174.996 342.711 174.996Z" fill="#94BDF2"/>
<path d="M315.333 138.748V150.335C315.333 161.433 324.401 170.515 335.486 170.515H342.206C353.289 170.515 362.36 161.435 362.36 150.335V138.748H315.333Z" fill="#94BDF2"/>
<path d="M362.158 142.395H316.124C314.681 142.395 313.501 141.213 313.501 139.769V139.478C313.501 138.034 314.681 136.853 316.124 136.853H362.158C363.601 136.853 364.781 138.034 364.781 139.478V139.769C364.781 141.213 363.601 142.395 362.158 142.395Z" fill="#9EC8FF"/>
<path d="M362.322 146.55L316.635 152.201C315.204 152.379 313.888 151.35 313.711 149.917L313.676 149.628C313.499 148.195 314.526 146.878 315.958 146.701L361.645 141.049C363.076 140.872 364.392 141.9 364.569 143.333L364.604 143.622C364.781 145.055 363.754 146.373 362.322 146.55Z" fill="#9EC8FF"/>
<path d="M362.322 154.556L316.635 160.207C315.204 160.385 313.888 159.356 313.711 157.923L313.676 157.634C313.499 156.201 314.526 154.884 315.958 154.707L361.645 149.055C363.076 148.878 364.392 149.906 364.569 151.339L364.604 151.628C364.781 153.061 363.754 154.381 362.322 154.556Z" fill="#9EC8FF"/>
<path d="M359.504 163.124L321.454 167.83C320.141 167.992 318.932 167.049 318.771 165.734L318.681 165.017C318.519 163.702 319.461 162.492 320.774 162.33L358.825 157.623C360.138 157.461 361.346 158.404 361.508 159.719L361.598 160.437C361.759 161.752 360.818 162.962 359.504 163.124Z" fill="#9EC8FF"/>
<path d="M688.948 173.513H713.475C713.475 186.984 702.402 198.071 688.948 198.071C675.494 198.071 664.422 186.984 664.422 173.513C664.422 160.041 675.494 148.955 688.948 148.955V173.513Z" fill="#9EC8FF"/>
<path d="M717.583 170.073C717.583 156.51 706.603 145.515 693.057 145.515V170.073H717.583Z" fill="#FFE492"/>
<path d="M668.529 170.073C668.529 183.637 679.51 194.631 693.056 194.631C679.602 194.631 668.529 183.545 668.529 170.073Z" fill="#F39892"/>
<path d="M693.056 145.515C679.51 145.515 668.529 156.51 668.529 170.073C668.529 156.602 679.602 145.515 693.056 145.515Z" fill="#F39892"/>
<path d="M693.057 194.631C706.603 194.631 717.583 183.637 717.583 170.073C717.583 183.545 706.511 194.631 693.057 194.631Z" fill="#F39892"/>
<path d="M214.308 157.267H208.952V172.786H214.308V157.267Z" fill="#9EC8FF"/>
<path d="M282.963 162.317H277.607V172.786H282.963V162.317Z" fill="#9EC8FF"/>
<path d="M237.008 136.477H231.652V172.786H237.008V136.477Z" fill="#9EC8FF"/>
<path d="M248.36 156.466H243.004V172.787H248.36V156.466Z" fill="#9EC8FF"/>
<path d="M259.708 151.847H254.352V172.789H259.708V151.847Z" fill="#9EC8FF"/>
<path d="M225.658 147.021H220.302V172.786H225.658V147.021Z" fill="#9EC8FF"/>
<path d="M271.099 141.052H265.743V172.787H271.099V141.052Z" fill="#9EC8FF"/>
<path d="M66.1887 127.788L38.0983 110.588L33.0178 143.163C46.2119 145.246 59.3011 139.054 66.1887 127.788Z" fill="#A2DFF2"/>
<path d="M66.2164 127.749C66.2929 127.624 66.3912 127.453 66.3868 127.46C72.3196 117.509 72.5599 105.149 67.1167 95.0029C57.1763 100.217 63.096 97.0487 38.0955 110.586C66.2339 127.816 61.8635 125.158 66.2164 127.749Z" fill="#FFE492"/>
<path d="M7.21704 99.1929L38.0978 110.586L67.0666 94.9023C53.5142 69.8125 17.0416 72.821 7.21704 99.1929Z" fill="#9EC8FF"/>
<path d="M33.0151 143.163L38.0956 110.588L7.21477 99.1951C-0.127398 118.905 12.9071 139.988 33.0151 143.163Z" fill="#043873"/>
<path d="M5.19492 104.587C5.76962 104.587 6.29844 104.733 6.75514 104.991C7.02173 103.514 7.3932 102.048 7.87612 100.604L24.6429 106.79C24.6429 106.785 24.6407 106.779 24.6407 106.775C24.6058 106.009 24.8942 105.293 25.3684 104.727L23.6902 104.107L8.63656 98.5542C9.87118 95.5435 11.5144 92.8063 13.4854 90.3864C12.7753 90.126 12.194 89.6228 11.8116 88.9795C9.68326 91.5876 7.91109 94.5458 6.58687 97.7971L6.5694 97.7906L6.18917 98.8124L5.80677 99.8407L5.82425 99.8473C5.29326 101.427 4.88682 103.031 4.59619 104.648C4.79504 104.608 4.99389 104.587 5.19492 104.587Z" fill="white"/>
<path d="M68.526 95.3553L68.5435 95.3465L68.0234 94.3838C68.0125 94.3641 68.0016 94.3444 67.9907 94.3269L67.5667 93.5349L67.5514 93.5436C64.2737 87.8417 59.5996 83.2929 53.9794 80.3609C48.4749 77.4881 42.2166 76.2037 35.8796 76.6457C28.4282 77.1643 21.6388 79.9605 16.248 84.4853C16.8817 84.8704 17.3668 85.4699 17.6356 86.1788C22.6855 81.9363 29.0466 79.3129 36.0304 78.8271C48.2171 77.9782 59.4357 83.9514 65.5695 94.4713L57.0146 99.1033C55.2489 100.055 52.7797 101.392 48.6454 103.633C45.9969 105.068 42.6645 106.873 38.3969 109.183L38.1325 109.326L37.2716 108.798L37.2257 109.098L31.2012 106.875C31.2077 107.643 30.8952 108.354 30.3948 108.91L36.8804 111.304L32.108 141.892C23.0964 140.15 15.2997 134.601 10.595 126.536C7.78269 121.716 6.32519 116.354 6.25963 110.954C5.91875 111.076 5.56038 111.148 5.19764 111.148C4.79776 111.148 4.4219 111.074 4.07446 110.943C4.13783 116.73 5.69586 122.476 8.7092 127.639C13.746 136.273 22.1087 142.207 31.7715 144.051L31.7693 144.071L32.8466 144.242C32.8488 144.242 33.9282 144.412 33.9282 144.412L33.9304 144.393C35.3289 144.568 36.7274 144.655 38.126 144.655C43.0382 144.655 47.9046 143.579 52.4301 141.47C58.2229 138.77 63.0915 134.547 66.5681 129.226L66.59 129.239L66.8041 128.889C66.8085 128.891 67.1516 128.318 67.1516 128.318C67.204 128.23 67.2695 128.121 67.3045 128.059L67.3286 128.02C67.3351 128.011 67.3395 128 67.346 127.989L67.6935 127.423L67.6782 127.414C73.2569 117.59 73.5738 105.457 68.526 95.3553ZM34.2648 142.233L38.9214 112.376L51.0425 119.797C55.9285 122.791 58.7234 124.502 60.4846 125.578L64.6692 128.14C57.9957 138.275 46.2679 143.712 34.2648 142.233ZM65.8295 126.245L65.6219 126.123C64.4747 125.442 63.9765 125.147 61.6886 123.749L40.2871 110.645L58.0525 101.027C60.6616 99.6219 61.7301 99.0618 64.3808 97.6746C65.0276 97.3354 65.7683 96.9482 66.6511 96.4865C71.2793 105.877 70.9778 117.117 65.8295 126.245Z" fill="#E7F3FE"/>
<path d="M218.235 116.616H127.646C126.661 116.616 125.861 115.815 125.861 114.829V75.7947C125.861 74.8079 126.661 74.0071 127.646 74.0071H218.235C219.22 74.0071 220.02 74.8079 220.02 75.7947V114.826C220.02 115.815 219.22 116.616 218.235 116.616Z" fill="#9EC8FF"/>
<path d="M216.003 114.616H129.877C129.079 114.616 128.435 113.971 128.435 113.172V86.647C128.435 85.8483 129.081 85.2029 129.877 85.2029H216.003C216.801 85.2029 217.445 85.8483 217.445 86.647V113.172C217.445 113.969 216.798 114.616 216.003 114.616Z" fill="white"/>
<path d="M132.631 80.4681H130.54C130.099 80.4681 129.74 80.1093 129.74 79.6673V77.9431C129.74 77.5012 130.099 77.1423 130.54 77.1423H132.631C133.073 77.1423 133.431 77.5012 133.431 77.9431V79.6673C133.431 80.1093 133.073 80.4681 132.631 80.4681Z" fill="white"/>
<path d="M139.34 80.4681H137.249C136.807 80.4681 136.449 80.1093 136.449 79.6673V77.9431C136.449 77.5012 136.807 77.1423 137.249 77.1423H139.34C139.781 77.1423 140.14 77.5012 140.14 77.9431V79.6673C140.138 80.1093 139.781 80.4681 139.34 80.4681Z" fill="white"/>
<path d="M146.046 80.4681H143.955C143.514 80.4681 143.155 80.1093 143.155 79.6673V77.9431C143.155 77.5012 143.514 77.1423 143.955 77.1423H146.046C146.488 77.1423 146.846 77.5012 146.846 77.9431V79.6673C146.846 80.1093 146.488 80.4681 146.046 80.4681Z" fill="white"/>
<path d="M213.823 91.6487H166.741C165.968 91.6487 165.332 91.0142 165.332 90.2374C165.332 89.4629 165.966 88.8262 166.741 88.8262H213.823C214.596 88.8262 215.232 89.4607 215.232 90.2374C215.232 91.0142 214.599 91.6487 213.823 91.6487Z" fill="#9EC8FF"/>
<path d="M178.412 113.406H131.331C130.555 113.406 129.921 112.772 129.921 111.995C129.921 111.22 130.555 110.584 131.331 110.584H178.412C179.186 110.584 179.822 111.218 179.822 111.995C179.819 112.772 179.186 113.406 178.412 113.406Z" fill="#9EC8FF"/>
<path d="M187.084 113.407H182.213C181.949 113.407 181.732 113.19 181.732 112.925V111.07C181.732 110.805 181.949 110.588 182.213 110.588H187.084C187.348 110.588 187.565 110.805 187.565 111.07V112.925C187.565 113.19 187.348 113.407 187.084 113.407Z" fill="#9EC8FF"/>
<path d="M194.429 113.407H189.558C189.293 113.407 189.077 113.19 189.077 112.925V111.07C189.077 110.805 189.293 110.588 189.558 110.588H194.429C194.693 110.588 194.909 110.805 194.909 111.07V112.925C194.909 113.19 194.693 113.407 194.429 113.407Z" fill="#9EC8FF"/>
<path d="M214.276 97.7929H136.309C135.783 97.7929 135.354 97.3619 135.354 96.8368C135.354 96.3095 135.785 95.8806 136.309 95.8806H214.276C214.803 95.8806 215.231 96.3116 215.231 96.8368C215.231 97.3641 214.801 97.7929 214.276 97.7929Z" fill="#9EC8FF"/>
<path d="M214.276 101.924H136.309C135.783 101.924 135.354 101.493 135.354 100.968C135.354 100.44 135.785 100.011 136.309 100.011H214.276C214.803 100.011 215.231 100.443 215.231 100.968C215.231 101.493 214.801 101.924 214.276 101.924Z" fill="#9EC8FF"/>
<path d="M449.49 89.4851H409.283V66.021H439.521C443.415 69.92 445.598 72.1058 449.49 76.0026V89.4851Z" fill="#FFB8B3"/>
<path d="M438.783 66.021V78.5451H449.49V76.1383L439.454 66.0888L438.783 66.021Z" fill="#F39892"/>
<path d="M439.521 66.021V76.1383H449.49L439.521 66.021Z" fill="#FFB8B3"/>
<path d="M431.736 74.8253H413.818C413.427 74.8253 413.108 74.5058 413.108 74.1142C413.108 73.7225 413.427 73.4031 413.818 73.4031H431.736C432.127 73.4031 432.446 73.7225 432.446 74.1142C432.446 74.5058 432.127 74.8253 431.736 74.8253Z" fill="white"/>
<path d="M431.736 78.4642H413.818C413.427 78.4642 413.108 78.1448 413.108 77.7531C413.108 77.3614 413.427 77.042 413.818 77.042H431.736C432.127 77.042 432.446 77.3614 432.446 77.7531C432.446 78.1426 432.127 78.4642 431.736 78.4642Z" fill="white"/>
<path d="M431.736 82.2933H413.818C413.427 82.2933 413.108 81.9738 413.108 81.5822C413.108 81.1905 413.427 80.8711 413.818 80.8711H431.736C432.127 80.8711 432.446 81.1905 432.446 81.5822C432.446 81.9716 432.127 82.2933 431.736 82.2933Z" fill="white"/>
<path d="M428.186 69.0272C428.849 69.0272 429.388 68.4884 429.388 67.8238C429.388 67.1591 428.849 66.6204 428.186 66.6204C427.522 66.6204 426.984 67.1591 426.984 67.8238C426.984 68.4884 427.522 69.0272 428.186 69.0272Z" fill="#3E6BAB"/>
<path d="M276.588 67.1645L251.5 62.3108L245.655 92.6001L270.743 97.4539L276.588 67.1645Z" fill="#FAE8B6"/>
<path d="M271.293 80.2624L257.992 77.6893C257.638 77.6215 257.404 77.2758 257.472 76.9214C257.54 76.5669 257.885 76.3328 258.239 76.4006L271.54 78.9737C271.894 79.0415 272.128 79.3872 272.06 79.7417C271.993 80.0961 271.647 80.3303 271.293 80.2624Z" fill="#9EC8FF"/>
<path d="M270.651 83.5923L257.35 81.0192C256.996 80.9514 256.762 80.6056 256.83 80.2512C256.898 79.8967 257.243 79.6626 257.597 79.7304L270.898 82.3035C271.252 82.3714 271.486 82.7171 271.418 83.0715C271.35 83.426 271.005 83.6601 270.651 83.5923Z" fill="#9EC8FF"/>
<path d="M269.993 87.0146L256.692 84.4415C256.338 84.3737 256.104 84.028 256.172 83.6736C256.239 83.3191 256.587 83.085 256.939 83.1528L270.24 85.7259C270.594 85.7937 270.828 86.1394 270.76 86.4939C270.692 86.8483 270.347 87.0825 269.993 87.0146Z" fill="#9EC8FF"/>
<path d="M262.289 66.375C262.176 66.968 261.601 67.3552 261.009 67.2415C260.417 67.1277 260.03 66.5522 260.143 65.9593C260.257 65.3663 260.832 64.9791 261.424 65.0928C262.016 65.2088 262.405 65.7821 262.289 66.375Z" fill="#3E6BAB"/>
<path d="M468.047 122.316L429.217 118.22L431.78 93.8499L462.567 97.0968C465.377 100.574 466.952 102.521 469.762 105.998L468.047 122.316Z" fill="#9EC8FF"/>
<path d="M462.019 98.8362L433.116 95.7861L430.954 116.349L466.885 120.141L468.153 108.1L461.123 107.358L462.019 98.8362Z" fill="white"/>
<path d="M458.099 106.306L439.377 104.331C438.948 104.285 438.634 103.897 438.679 103.466C438.725 103.037 439.112 102.722 439.543 102.768L458.265 104.744C458.693 104.79 459.008 105.177 458.962 105.608C458.916 106.037 458.53 106.352 458.099 106.306Z" fill="#9EC8FF"/>
<path d="M457.665 110.437L438.942 108.461C438.514 108.416 438.2 108.028 438.245 107.597C438.291 107.168 438.678 106.853 439.109 106.899L457.831 108.875C458.259 108.921 458.574 109.308 458.528 109.739C458.482 110.168 458.095 110.483 457.665 110.437Z" fill="#9EC8FF"/>
<path d="M457.213 114.752L438.49 112.776C438.062 112.73 437.747 112.343 437.793 111.912C437.839 111.483 438.226 111.168 438.656 111.214L457.379 113.189C457.807 113.235 458.122 113.623 458.076 114.054C458.03 114.485 457.641 114.795 457.213 114.752Z" fill="#9EC8FF"/>
<path d="M446.312 100.681C446.975 100.681 447.513 100.142 447.513 99.4773C447.513 98.8127 446.975 98.2739 446.312 98.2739C445.648 98.2739 445.11 98.8127 445.11 99.4773C445.11 100.142 445.648 100.681 446.312 100.681Z" fill="#3E6BAB"/>
<path d="M660.979 80.4678C660.979 87.8808 654.976 93.8912 647.573 93.8912C640.17 93.8912 634.167 87.8808 634.167 80.4678C634.167 73.0549 640.17 67.0444 647.573 67.0444C654.976 67.0444 660.979 73.0549 660.979 80.4678Z" fill="#9CD499"/>
<path d="M646.243 85.0627C646.234 85.0627 646.227 85.0627 646.219 85.0627C646.039 85.0561 645.869 84.9752 645.751 84.8395L642.111 80.6954C641.872 80.4241 641.899 80.0084 642.17 79.7699C642.44 79.5314 642.856 79.5577 643.094 79.829L646.278 83.4523L653.563 76.3129C653.821 76.0591 654.236 76.0634 654.49 76.3238C654.743 76.582 654.739 76.9977 654.481 77.2515L646.702 84.8745C646.579 84.9949 646.413 85.0627 646.243 85.0627Z" fill="white"/>
<path d="M43.5496 205.075H120.839C122.821 205.075 124.44 203.451 124.44 201.469V173.817C124.44 171.832 122.819 170.211 120.839 170.211H43.5496C41.5677 170.211 39.9485 171.835 39.9485 173.817V201.467C39.9485 203.451 41.5699 205.075 43.5496 205.075Z" fill="#9EC8FF"/>
<path d="M114.235 199.815V219.049L92.0991 196.885C92.0991 196.885 113.785 199.815 114.235 199.815Z" fill="#9EC8FF"/>
<path d="M47.3713 201.618H117.017C118.697 201.618 120.07 200.241 120.07 198.561V176.725C120.07 175.042 118.695 173.668 117.017 173.668H47.3713C45.6909 173.668 44.3186 175.044 44.3186 176.725V198.561C44.3186 200.241 45.6931 201.618 47.3713 201.618Z" fill="white"/>
<path d="M78.8193 180.58H113.037C113.863 180.58 114.538 179.904 114.538 179.077C114.538 178.25 113.863 177.574 113.037 177.574H78.8193C77.9933 177.574 77.3181 178.25 77.3181 179.077C77.3181 179.904 77.9933 180.58 78.8193 180.58Z" fill="#9EC8FF"/>
<path d="M50.2383 186.326H113.702C114.161 186.326 114.537 185.95 114.537 185.49V185.473C114.537 185.013 114.161 184.637 113.702 184.637H50.2383C49.7794 184.637 49.4036 185.013 49.4036 185.473V185.49C49.4036 185.95 49.7772 186.326 50.2383 186.326Z" fill="#9EC8FF"/>
<path d="M50.2383 189.597H113.702C114.161 189.597 114.537 189.22 114.537 188.761V188.744C114.537 188.284 114.161 187.908 113.702 187.908H50.2383C49.7794 187.908 49.4036 188.284 49.4036 188.744V188.761C49.4036 189.22 49.7772 189.597 50.2383 189.597Z" fill="#9EC8FF"/>
<path d="M615.183 180.716H619.234C620.091 180.716 620.784 180.022 620.784 179.165V175.824C620.784 174.968 620.091 174.272 619.234 174.272H615.183C614.326 174.272 613.634 174.966 613.634 175.824V179.165C613.636 180.022 614.329 180.716 615.183 180.716Z" fill="#9EC8FF"/>
<path d="M602.186 180.716H606.237C607.094 180.716 607.786 180.022 607.786 179.165V175.824C607.786 174.968 607.094 174.272 606.237 174.272H602.186C601.329 174.272 600.637 174.966 600.637 175.824V179.165C600.639 180.022 601.332 180.716 602.186 180.716Z" fill="#9EC8FF"/>
<path d="M589.189 180.716H593.24C594.097 180.716 594.79 180.022 594.79 179.165V175.824C594.79 174.968 594.097 174.272 593.24 174.272H589.189C588.335 174.272 587.64 174.966 587.64 175.824V179.165C587.642 180.022 588.335 180.716 589.189 180.716Z" fill="#9EC8FF"/>
</g>
<defs>
<clipPath id="clip0_20449_157">
<rect width="748" height="547" fill="white"/>
</clipPath>
</defs>
</svg>
