<svg width="714" height="533" viewBox="0 0 714 533" fill="none" xmlns="http://www.w3.org/2000/svg">
<path d="M714 467.598H0V467.955H714V467.598Z" fill="#EBEBEB"/>
<path d="M642.457 490.575H595.162V490.932H642.457V490.575Z" fill="#EBEBEB"/>
<path d="M472.982 494.459H460.573V494.816H472.982V494.459Z" fill="#EBEBEB"/>
<path d="M593.734 477.323H566.33V477.68H593.734V477.323Z" fill="#EBEBEB"/>
<path d="M136.588 479.722H74.9128V480.079H136.588V479.722Z" fill="#EBEBEB"/>
<path d="M158.351 479.722H149.312V480.079H158.351V479.722Z" fill="#EBEBEB"/>
<path d="M321.515 485.748H187.74V486.105H321.515V485.748Z" fill="#EBEBEB"/>
<path d="M338.451 403.91H62.7181C58.2199 403.91 54.5642 400.254 54.5642 395.756V8.15388C54.5642 3.65568 58.2199 0 62.7181 0H338.465C342.963 0 346.619 3.65568 346.619 8.15388V395.756C346.604 400.254 342.949 403.91 338.451 403.91ZM62.7181 0.357C58.4198 0.357 54.9212 3.8556 54.9212 8.15388V395.756C54.9212 400.054 58.4198 403.553 62.7181 403.553H338.465C342.763 403.553 346.262 400.054 346.262 395.756V8.15388C346.262 3.8556 342.763 0.357 338.465 0.357H62.7181V0.357Z" fill="#EBEBEB"/>
<path d="M647.327 403.91H371.58C367.082 403.91 363.426 400.254 363.426 395.756V8.15388C363.426 3.65568 367.082 0 371.58 0H647.327C651.825 0 655.481 3.65568 655.481 8.15388V395.756C655.481 400.254 651.825 403.91 647.327 403.91ZM371.58 0.357C367.282 0.357 363.783 3.8556 363.783 8.15388V395.756C363.783 400.054 367.282 403.553 371.58 403.553H647.327C651.625 403.553 655.124 400.054 655.124 395.756V8.15388C655.124 3.8556 651.625 0.357 647.327 0.357H371.58V0.357Z" fill="#EBEBEB"/>
<path d="M191.909 116.41H112.64L113.854 105.686H193.122L191.909 116.41Z" fill="#F5F5F5"/>
<path d="M186.225 166.505H106.957L108.171 155.78H187.439L186.225 166.505Z" fill="#F5F5F5"/>
<path d="M180.556 216.599H101.287L102.501 205.889H181.769L180.556 216.599Z" fill="#F5F5F5"/>
<path d="M174.872 266.693H95.6038L96.8176 255.983H176.086L174.872 266.693Z" fill="#F5F5F5"/>
<path d="M169.203 316.787H89.9343L91.1481 306.077H170.416L169.203 316.787Z" fill="#F5F5F5"/>
<path d="M163.534 366.896H84.2659L85.4797 356.172H164.748L163.534 366.896Z" fill="#F5F5F5"/>
<path d="M157.851 416.99H78.5823L79.7961 406.266H159.064L157.851 416.99Z" fill="#F5F5F5"/>
<path d="M78.2687 467.956H65.8594L109.313 84.3662H121.723L78.2687 467.956Z" fill="#EBEBEB"/>
<path d="M159.036 467.956H146.627L190.081 84.3662H202.49L159.036 467.956Z" fill="#EBEBEB"/>
<path d="M634.517 62.3752H485.005V467.956H634.517V62.3752Z" fill="#F5F5F5"/>
<path d="M626.334 71.2859H493.202V137.445H626.334V71.2859Z" fill="#EBEBEB"/>
<path d="M551.007 96.2758H509.838V137.445H551.007V96.2758Z" fill="#F0F0F0"/>
<path d="M595.104 108.142H565.801V137.445H595.104V108.142Z" fill="#F0F0F0"/>
<path d="M626.334 144.385H493.202V210.544H626.334V144.385Z" fill="#EBEBEB"/>
<path d="M529.659 169.375H509.838V210.544H529.659V169.375Z" fill="#F0F0F0"/>
<path d="M595.118 193.666H551.021V210.545H595.118V193.666Z" fill="#F0F0F0"/>
<path d="M585.45 168.49H542.639V193.666H585.45V168.49Z" fill="#F0F0F0"/>
<path d="M626.334 217.484H493.202V283.643H626.334V217.484Z" fill="#EBEBEB"/>
<path d="M551.021 242.474H542.639V283.644H551.021V242.474Z" fill="#F0F0F0"/>
<path d="M617.209 227.923H565.801V283.644H617.209V227.923Z" fill="#F0F0F0"/>
<path d="M626.334 290.584H493.202V356.743H626.334V290.584Z" fill="#EBEBEB"/>
<path d="M551.007 315.574H509.838V356.744H551.007V315.574Z" fill="#F0F0F0"/>
<path d="M595.104 327.441H565.801V356.743H595.104V327.441Z" fill="#F0F0F0"/>
<path d="M626.334 363.683H493.202V429.842H626.334V363.683Z" fill="#EBEBEB"/>
<path d="M551.007 388.659H509.838V429.828H551.007V388.659Z" fill="#F0F0F0"/>
<path d="M595.104 400.54H565.801V429.842H595.104V400.54Z" fill="#F0F0F0"/>
<path d="M551.022 41.9834H505.926V62.3752H551.022V41.9834Z" fill="#F0F0F0"/>
<path d="M591.506 52.1793H568.301V62.3752H591.506V52.1793Z" fill="#F0F0F0"/>
<path d="M139.045 467.953H268.521V351.843H139.045L139.045 467.953Z" fill="#EBEBEB"/>
<path d="M223.449 467.953H268.516V351.843H223.449V467.953Z" fill="#E0E0E0"/>
<path d="M113.27 354.24H242.747V259.721H113.27V354.24Z" fill="#F5F5F5"/>
<path d="M197.674 354.24H242.742V259.721H197.674V354.24Z" fill="#EBEBEB"/>
<path d="M143.654 259.706H268.518V213.439H143.654V259.706Z" fill="#FAFAFA"/>
<path d="M225.059 259.706H268.513V213.439H225.059V259.706Z" fill="#F0F0F0"/>
<path d="M270.663 41.9833H93.791V52.1792H270.663V41.9833Z" fill="#F0F0F0"/>
<path d="M132.647 27.5602H106.957V41.983H132.647V27.5602Z" fill="#F5F5F5"/>
<path d="M165.791 14.7655H138.573V41.9831H165.791V14.7655Z" fill="#F0F0F0"/>
<path d="M189.21 28.3743H175.601V41.9831H189.21V28.3743Z" fill="#EBEBEB"/>
<path d="M212.258 35.4143C212.258 39.2985 209.102 42.4544 205.218 42.4544C201.319 42.4544 198.177 39.2985 198.177 35.4143C198.177 31.5159 201.333 28.3743 205.218 28.3743C209.102 28.3743 212.258 31.5302 212.258 35.4143Z" fill="#F5F5F5"/>
<path d="M221.169 41.9831L229.723 14.7655H243.845L251.657 42.4687L221.169 41.9831Z" fill="#EBEBEB"/>
<path d="M149.311 66.6591C189.181 -18.2355 330.753 -6.25454 385.388 53.4359C440.023 113.141 457.787 151.397 507.068 129.091C556.348 106.786 619.194 112.755 622.793 183.584C626.391 254.413 568.657 338.179 477.008 362.955C385.359 387.731 385.388 475.424 264.093 457.731C197.963 448.078 196.449 376.535 205.788 317.359C215.127 258.182 103.072 165.105 149.311 66.6591Z" fill="#407BFF"/>
<path opacity="0.9" d="M149.311 66.6591C189.181 -18.2355 330.753 -6.25454 385.388 53.4359C440.023 113.141 457.787 151.397 507.068 129.091C556.348 106.786 619.194 112.755 622.793 183.584C626.391 254.413 568.657 338.179 477.008 362.955C385.359 387.731 385.388 475.424 264.093 457.731C197.963 448.078 196.449 376.535 205.788 317.359C215.127 258.182 103.072 165.105 149.311 66.6591Z" fill="#FFE492"/>
<path d="M357 532.087C509.914 532.087 633.875 524.849 633.875 515.922C633.875 506.994 509.914 499.757 357 499.757C204.087 499.757 80.1255 506.994 80.1255 515.922C80.1255 524.849 204.087 532.087 357 532.087Z" fill="#F5F5F5"/>
<path d="M467.841 90.5637V513.923C467.841 517.407 465.042 520.106 461.558 520.106H264.537C262.966 520.106 261.595 519.521 260.596 518.521C259.553 517.507 258.925 516.065 258.925 514.437V90.0496C258.925 87.2793 260.967 84.866 263.737 84.866H319.701C321.271 84.866 322.714 85.8941 323.299 87.3792L325.627 93.077C326.212 94.5478 327.64 95.576 329.225 95.576H397.698C399.283 95.576 400.711 94.5906 401.296 93.1198L403.624 87.3792C404.21 85.8941 405.638 84.8517 407.223 84.8517H462.372C465.399 84.866 467.841 87.5078 467.841 90.5637Z" fill="#407BFF"/>
<path opacity="0.6" d="M284.898 101.918H287.811V98.0339H284.898V101.918Z" fill="white"/>
<path opacity="0.6" d="M280.149 101.923H283.062V96.7537H280.149V101.923Z" fill="white"/>
<path opacity="0.6" d="M275.415 101.913H278.328V95.4444H275.415V101.913Z" fill="white"/>
<path opacity="0.6" d="M270.666 101.918H273.579V94.1493H270.666V101.918Z" fill="white"/>
<path opacity="0.6" d="M441.166 96.6178H439.438V100.502H441.166V96.6178Z" fill="white"/>
<path opacity="0.6" d="M442.359 101.912H456.111V95.2006H442.359V101.912Z" fill="white"/>
<g opacity="0.1">
<path opacity="0.1" d="M352.916 95.5758L292.769 320.857V320.871L292.097 323.399V323.413L291.012 327.469V327.483L290.327 330.011L258.925 447.649V305.278L317.773 84.8516H319.686C321.272 84.8516 322.7 85.8797 323.285 87.3648L325.598 93.0768C326.184 94.5477 327.626 95.5616 329.197 95.5616H352.916V95.5758Z" fill="white"/>
<path opacity="0.1" d="M467.841 210.63V353.001L430.342 493.517L429.428 496.93L423.231 520.12H385.232L391.415 496.944L392.414 493.217L397.37 474.61L398.369 470.883L400.368 463.443L401.354 459.716L403.339 452.276L404.324 448.549L435.597 331.424V331.41L437.039 325.998L467.841 210.63Z" fill="white"/>
<path opacity="0.1" d="M373.508 95.5758L313.732 319.458L313.375 320.8L310.105 333.067L309.748 334.409L260.596 518.535C259.553 517.521 258.925 516.065 258.925 514.437V492.774L301.208 334.395L301.565 333.052L304.835 320.786L305.192 319.443L364.968 95.5616H373.508V95.5758Z" fill="white"/>
</g>
<path opacity="0.3" d="M467.841 112.455H258.925V501.371H467.841V112.455Z" fill="white"/>
<path d="M427.643 283.358C431.656 283.358 434.926 280.102 434.926 276.075V161.193C434.926 157.18 431.67 153.91 427.643 153.91C423.631 153.91 420.36 157.166 420.36 161.193V276.075C420.36 280.102 423.631 283.358 427.643 283.358Z" fill="#407BFF"/>
<path opacity="0.3" d="M427.643 280.502C425.201 280.502 423.217 278.517 423.217 276.075V161.192C423.217 158.751 425.201 156.766 427.643 156.766C430.085 156.766 432.07 158.751 432.07 161.192V276.075C432.07 278.517 430.085 280.502 427.643 280.502Z" fill="black"/>
<path d="M438.071 174.205C439.004 168.452 435.098 163.031 429.345 162.098C423.592 161.164 418.171 165.071 417.237 170.824C416.304 176.577 420.21 181.997 425.963 182.931C431.716 183.865 437.137 179.958 438.071 174.205Z" fill="#407BFF"/>
<path d="M384.804 283.358C388.816 283.358 392.086 280.102 392.086 276.075V161.193C392.086 157.18 388.831 153.91 384.804 153.91C380.791 153.91 377.521 157.166 377.521 161.193V276.075C377.521 280.102 380.791 283.358 384.804 283.358Z" fill="#407BFF"/>
<path opacity="0.3" d="M384.804 280.502C382.362 280.502 380.377 278.517 380.377 276.075V161.192C380.377 158.751 382.362 156.766 384.804 156.766C387.246 156.766 389.231 158.751 389.231 161.192V276.075C389.231 278.517 387.246 280.502 384.804 280.502Z" fill="black"/>
<path d="M395.231 259.887C396.165 254.134 392.258 248.713 386.505 247.78C380.752 246.846 375.331 250.753 374.398 256.506C373.464 262.259 377.371 267.679 383.124 268.613C388.877 269.547 394.298 265.64 395.231 259.887Z" fill="#407BFF"/>
<path d="M341.963 283.358C345.976 283.358 349.246 280.102 349.246 276.075V161.193C349.246 157.18 345.99 153.91 341.963 153.91C337.951 153.91 334.681 157.166 334.681 161.193V276.075C334.681 280.102 337.951 283.358 341.963 283.358Z" fill="#407BFF"/>
<path opacity="0.3" d="M341.963 280.502C339.521 280.502 337.536 278.517 337.536 276.075V161.192C337.536 158.751 339.521 156.766 341.963 156.766C344.405 156.766 346.39 158.751 346.39 161.192V276.075C346.39 278.517 344.405 280.502 341.963 280.502Z" fill="black"/>
<path d="M352.39 202.767C353.324 197.014 349.417 191.593 343.664 190.659C337.911 189.726 332.49 193.632 331.556 199.385C330.623 205.138 334.53 210.559 340.283 211.493C346.036 212.427 351.456 208.52 352.39 202.767Z" fill="#407BFF"/>
<path d="M299.124 283.358C303.136 283.358 306.407 280.102 306.407 276.075V161.193C306.407 157.18 303.151 153.91 299.124 153.91C295.111 153.91 291.841 157.166 291.841 161.193V276.075C291.841 280.102 295.111 283.358 299.124 283.358Z" fill="#407BFF"/>
<path opacity="0.3" d="M299.124 280.502C296.682 280.502 294.697 278.517 294.697 276.075V161.192C294.697 158.751 296.682 156.766 299.124 156.766C301.566 156.766 303.551 158.751 303.551 161.192V276.075C303.551 278.517 301.566 280.502 299.124 280.502Z" fill="black"/>
<path d="M309.55 245.608C310.483 239.855 306.576 234.434 300.823 233.5C295.07 232.567 289.65 236.473 288.716 242.226C287.782 247.98 291.689 253.4 297.442 254.334C303.195 255.268 308.616 251.361 309.55 245.608Z" fill="#407BFF"/>
<path opacity="0.6" d="M438.071 174.205C439.004 168.452 435.098 163.031 429.345 162.098C423.592 161.164 418.171 165.071 417.237 170.824C416.304 176.577 420.21 181.997 425.963 182.931C431.716 183.865 437.137 179.958 438.071 174.205Z" fill="white"/>
<path opacity="0.6" d="M427.644 180.213C423.403 180.213 419.947 176.758 419.947 172.517C419.947 168.275 423.403 164.82 427.644 164.82C431.885 164.82 435.341 168.275 435.341 172.517C435.341 176.758 431.885 180.213 427.644 180.213Z" fill="white"/>
<path opacity="0.6" d="M395.231 259.887C396.165 254.134 392.258 248.713 386.505 247.78C380.752 246.846 375.331 250.753 374.398 256.506C373.464 262.259 377.371 267.679 383.124 268.613C388.877 269.547 394.298 265.64 395.231 259.887Z" fill="white"/>
<path opacity="0.6" d="M384.804 265.893C380.562 265.893 377.107 262.438 377.107 258.196C377.107 253.955 380.562 250.5 384.804 250.5C389.045 250.5 392.5 253.955 392.5 258.196C392.5 262.438 389.045 265.893 384.804 265.893Z" fill="white"/>
<path opacity="0.6" d="M352.39 202.767C353.324 197.014 349.417 191.593 343.664 190.659C337.911 189.726 332.49 193.632 331.556 199.385C330.623 205.138 334.53 210.559 340.283 211.493C346.036 212.427 351.456 208.52 352.39 202.767Z" fill="white"/>
<path opacity="0.6" d="M341.963 208.773C337.722 208.773 334.266 205.318 334.266 201.076C334.266 196.835 337.722 193.379 341.963 193.379C346.204 193.379 349.66 196.835 349.66 201.076C349.66 205.318 346.204 208.773 341.963 208.773Z" fill="white"/>
<path opacity="0.6" d="M309.55 245.608C310.483 239.855 306.576 234.434 300.823 233.5C295.07 232.567 289.65 236.473 288.716 242.226C287.782 247.98 291.689 253.4 297.442 254.334C303.195 255.268 308.616 251.361 309.55 245.608Z" fill="white"/>
<path opacity="0.6" d="M299.124 251.613C294.882 251.613 291.427 248.158 291.427 243.916C291.427 239.675 294.882 236.219 299.124 236.219C303.365 236.219 306.82 239.675 306.82 243.916C306.82 248.158 303.365 251.613 299.124 251.613Z" fill="white"/>
<path d="M453.818 486.105H272.948C270.777 486.105 269.021 484.349 269.021 482.178V313.246C269.021 311.075 270.777 309.319 272.948 309.319H453.818C455.989 309.319 457.745 311.075 457.745 313.246V482.164C457.745 484.349 455.989 486.105 453.818 486.105Z" fill="#407BFF"/>
<path opacity="0.3" d="M453.818 486.105H272.948C270.777 486.105 269.021 484.349 269.021 482.178V313.246C269.021 311.075 270.777 309.319 272.948 309.319H453.818C455.989 309.319 457.745 311.075 457.745 313.246V482.164C457.745 484.349 455.989 486.105 453.818 486.105Z" fill="black"/>
<path opacity="0.6" d="M346.362 423.916V439.11L354.187 439.852C355.244 444.95 357.257 449.677 360.028 453.89L355.001 459.959L365.754 470.712L371.823 465.685C376.035 468.441 380.762 470.469 385.86 471.526L386.603 479.351H401.797L402.539 471.526C407.637 470.469 412.364 468.455 416.576 465.685L422.645 470.712L433.384 459.959L428.357 453.89C431.113 449.677 433.141 444.95 434.198 439.852L442.023 439.11V423.916L434.198 423.173C433.141 418.076 431.128 413.349 428.357 409.136L433.384 403.067L422.645 392.329L416.576 397.355C412.364 394.599 407.637 392.571 402.539 391.515L401.797 383.689H386.603L385.86 391.515C380.762 392.571 376.035 394.585 371.823 397.355L365.754 392.329L355.001 403.067L360.028 409.136C357.271 413.349 355.244 418.076 354.187 423.173L346.362 423.916ZM394.185 410.935C405.552 410.935 414.763 420.146 414.763 431.513C414.763 442.88 405.552 452.09 394.185 452.09C382.818 452.09 373.608 442.88 373.608 431.513C373.608 420.146 382.818 410.935 394.185 410.935Z" fill="white"/>
<path opacity="0.4" d="M284.758 380.276V392.186L290.884 392.757C291.712 396.756 293.297 400.454 295.454 403.753L291.512 408.508L299.937 416.933L304.693 412.992C307.991 415.148 311.704 416.733 315.688 417.561L316.259 423.688H328.169L328.74 417.561C332.739 416.733 336.437 415.148 339.736 412.992L344.491 416.933L352.916 408.508L348.975 403.753C351.131 400.454 352.716 396.741 353.545 392.757L359.671 392.186V380.276L353.545 379.705C352.716 375.707 351.131 372.008 348.975 368.71L352.916 363.954L344.491 355.529L339.736 359.47C336.437 357.314 332.724 355.729 328.74 354.901L328.169 348.775H316.259L315.688 354.901C311.69 355.729 307.991 357.314 304.693 359.47L299.937 355.529L291.512 363.954L295.454 368.71C293.297 372.008 291.712 375.721 290.884 379.705L284.758 380.276ZM322.243 370.109C331.139 370.109 338.365 377.32 338.365 386.231C338.365 395.142 331.154 402.353 322.243 402.353C313.346 402.353 306.121 395.142 306.121 386.231C306.121 377.32 313.332 370.109 322.243 370.109Z" fill="white"/>
<path opacity="0.2" d="M351.174 343.505V353.501L356.329 353.987C357.029 357.343 358.357 360.456 360.17 363.226L356.857 367.224L363.926 374.293L367.924 370.98C370.695 372.794 373.808 374.122 377.163 374.821L377.649 379.977H387.645L388.13 374.821C391.486 374.122 394.599 372.794 397.37 370.98L401.368 374.293L408.437 367.224L405.124 363.226C406.937 360.456 408.265 357.343 408.965 353.987L414.12 353.501V343.505L408.965 343.02C408.265 339.664 406.937 336.551 405.124 333.781L408.437 329.782L401.368 322.714L397.37 326.027C394.599 324.213 391.486 322.885 388.13 322.185L387.645 317.03H377.649L377.163 322.185C373.808 322.885 370.695 324.213 367.924 326.027L363.926 322.714L356.857 329.782L360.17 333.781C358.357 336.551 357.029 339.664 356.329 343.02L351.174 343.505ZM382.661 334.966C390.144 334.966 396.199 341.035 396.199 348.503C396.199 355.986 390.13 362.041 382.661 362.041C375.179 362.041 369.124 355.972 369.124 348.503C369.109 341.035 375.179 334.966 382.661 334.966Z" fill="white"/>
<path opacity="0.6" d="M333.71 383.146L325.313 374.75L313.846 377.834L310.762 389.301L319.158 397.698L330.639 394.627L333.71 383.146Z" fill="white"/>
<path opacity="0.8" d="M396.028 416.919L382.462 422.602L380.62 437.196L392.329 446.107L405.895 440.409L407.752 425.815L396.028 416.919Z" fill="white"/>
<path opacity="0.4" d="M391.087 353.373V343.634L382.662 338.764L374.222 343.634V353.373L382.662 358.242L391.087 353.373Z" fill="white"/>
<path d="M587.18 260.839L602.374 273.177C602.374 273.177 606.087 273.248 607.258 274.476C608.429 275.704 612.913 284.815 612.27 286.057C611.628 287.3 604.131 289.756 602.56 288.285C600.975 286.814 598.233 278.375 598.29 277.475L578.884 264.452L587.18 260.839Z" fill="#B97964"/>
<path d="M595.605 266.265L592.207 273.677C592.207 273.677 571.315 263.895 566.788 258.197C565.632 256.726 564.032 254.384 562.304 251.714C559.463 247.301 556.25 241.989 554.022 238.262C552.365 235.478 551.252 233.578 551.252 233.578L563.075 214.929C565.66 216.914 573.571 248.787 574.985 250.5C576.399 252.214 595.605 266.265 595.605 266.265Z" fill="#263238"/>
<path opacity="0.2" d="M562.305 251.714C559.463 247.301 556.25 241.989 554.022 238.262L559.52 224.696C559.52 224.696 562.505 240.261 562.305 251.714Z" fill="black"/>
<path d="M466 190.067L449.978 178.672C449.978 178.672 448.079 175.487 446.436 175.073C444.794 174.659 434.655 175.273 433.884 176.444C433.113 177.615 434.698 185.34 436.755 185.983C438.811 186.626 447.507 184.841 448.264 184.355L464.529 195.593L466 190.067Z" fill="#B97964"/>
<path d="M592.406 509.568L583.438 511.153L579.768 498.929L576.413 487.719L586.751 484.106L589.75 497.587L592.406 509.568Z" fill="#B97964"/>
<path opacity="0.2" d="M589.793 497.858L579.811 499.172L576.427 487.834L586.751 484.164L589.793 497.858Z" fill="black"/>
<path d="M532.559 509.796H523.462L521.963 497.587L520.606 486.191L531.416 484.535L532.03 497.944L532.559 509.796Z" fill="#B97964"/>
<path opacity="0.2" d="M532.03 498.744L521.963 498.301L520.606 486.534L531.416 484.721L532.03 498.744Z" fill="black"/>
<path d="M590.637 488.062L575.9 490.661C561.034 453.605 550.453 422.688 542.984 397.027C538.957 383.176 535.773 370.866 533.36 359.942L533.974 400.269V491.247H519.108C482.708 318.459 508.498 278.289 508.498 278.289L552.052 271.006C553.709 277.504 554.965 288.128 555.694 295.454L557.664 309.891L574.686 397.813L590.637 488.062Z" fill="#407BFF"/>
<path d="M573.6 488.833L591.878 482.779L591.621 490.547L576.513 495.374L573.6 488.833Z" fill="#407BFF"/>
<path opacity="0.6" d="M573.6 488.833L591.878 482.779L591.621 490.547L576.513 495.374L573.6 488.833Z" fill="white"/>
<path d="M517.179 489.676L536.229 486.891L534.629 494.502L518.907 496.63L517.179 489.676Z" fill="#407BFF"/>
<path opacity="0.6" d="M517.179 489.676L536.229 486.891L534.629 494.502L518.907 496.63L517.179 489.676Z" fill="white"/>
<path opacity="0.2" d="M544.997 403.796C544.311 401.497 543.583 399.241 542.926 397.013C539.285 384.446 536.843 373.137 533.987 362.998V362.969L532.502 344.291C532.502 344.291 541.812 323.771 538.328 309.334C538.656 310.148 544.811 325.884 542.398 341.606C542.398 341.592 541.227 369.967 544.997 403.796Z" fill="black"/>
<path d="M546.239 196.179C546.125 196.265 545.982 196.336 545.854 196.393C544.083 197.336 542.098 198.193 539.928 198.392C533.844 198.992 529.931 197.65 527.647 194.637C527.632 194.637 527.632 194.637 527.632 194.637C524.477 190.153 524.477 182.941 526.104 174.459C526.847 170.561 527.847 167.219 529.275 164.706C529.289 164.677 529.303 164.577 529.317 164.563C529.389 164.463 529.446 164.32 529.517 164.22C531.617 160.722 534.615 158.665 539.028 158.209C540.556 158.051 542.255 158.08 544.154 158.294C560.862 160.293 560.276 188.311 546.239 196.179Z" fill="#B97964"/>
<path opacity="0.2" d="M545.868 196.393C544.097 197.335 542.141 197.949 539.971 198.164C533.887 198.763 529.989 197.235 527.718 194.18C530.531 195.193 534.401 195.95 538.414 194.694C540.942 193.894 543.526 194.808 545.868 196.393Z" fill="black"/>
<path d="M547.11 210.045C548.61 214.714 542.626 217.256 542.626 217.256C532.102 213.929 529.703 208.745 529.703 208.745C537.7 203.519 534.044 191.338 534.044 191.338L535.843 192.009L548.11 193.18C548.11 193.18 545.397 199.92 545.097 201.42C545.097 201.434 545.082 201.448 545.082 201.462C543.569 209.331 547.11 210.045 547.11 210.045Z" fill="#B97964"/>
<path d="M529.289 164.592C529.289 164.592 526.847 176.173 537.286 182.641C537.286 182.641 540.47 195.408 547.453 196.493C556.978 197.964 567.159 185.469 565.66 171.189C563.689 152.682 536.672 147.684 529.289 164.592Z" fill="#263238"/>
<path d="M532.102 178.558C532.344 176.73 534.215 173.859 536.985 174.645C539.87 175.459 540.555 182.913 533.13 183.584C532.059 183.684 531.602 182.356 532.102 178.558Z" fill="#B97964"/>
<path d="M522.491 508.068H532.644C533.073 508.068 533.458 508.368 533.544 508.797L535.629 518.221C535.815 519.064 535.272 519.892 534.429 520.078C534.315 520.106 534.201 520.106 534.087 520.106C529.931 520.035 529.589 519.778 524.376 519.778C521.163 519.778 511.453 520.121 507.012 520.121C502.571 520.121 501.985 515.737 503.813 515.337C511.967 513.566 518.107 511.096 520.721 508.754C521.206 508.297 521.835 508.054 522.491 508.068Z" fill="#263238"/>
<path d="M518.993 509.925C518.279 509.982 517.551 509.796 516.965 509.382C516.566 509.054 516.366 508.54 516.437 508.04C516.423 507.74 516.594 507.469 516.865 507.34C518.036 506.741 521.449 508.84 521.835 509.082C521.921 509.125 521.978 509.225 521.949 509.325C521.935 509.425 521.863 509.511 521.763 509.539C520.864 509.768 519.936 509.896 518.993 509.925ZM517.422 507.74C517.308 507.726 517.194 507.754 517.094 507.812C517.022 507.812 516.951 507.912 516.937 508.111C516.894 508.454 517.022 508.783 517.28 509.011C518.465 509.554 519.807 509.611 521.049 509.197C519.936 508.483 518.708 507.983 517.422 507.74Z" fill="#407BFF"/>
<path d="M521.706 509.554H521.592C520.507 508.968 518.393 506.626 518.607 505.513C518.679 505.127 519.022 504.856 519.421 504.856C519.807 504.798 520.192 504.927 520.478 505.184C521.706 506.184 521.963 509.225 521.977 509.368C521.977 509.454 521.935 509.539 521.863 509.597C521.792 509.597 521.735 509.582 521.706 509.554ZM519.578 505.255H519.464C519.136 505.255 519.121 505.441 519.107 505.513C518.979 506.198 520.321 507.969 521.406 508.783C521.335 507.583 520.892 506.426 520.15 505.47C519.978 505.341 519.778 505.255 519.578 505.255Z" fill="#407BFF"/>
<path d="M583.096 508.068H593.249C593.677 508.068 594.063 508.368 594.149 508.797L596.233 518.221C596.419 519.064 595.876 519.892 595.034 520.078C594.92 520.106 594.805 520.106 594.691 520.106C590.536 520.035 590.193 519.778 584.981 519.778C581.768 519.778 572.057 520.121 567.616 520.121C563.175 520.121 562.59 515.737 564.418 515.337C572.571 513.566 578.712 511.096 581.325 508.754C581.796 508.297 582.439 508.054 583.096 508.068Z" fill="#263238"/>
<path d="M579.597 509.925C578.883 509.982 578.155 509.796 577.57 509.382C577.17 509.054 576.97 508.54 577.041 508.04C577.027 507.74 577.198 507.469 577.47 507.34C578.641 506.741 582.054 508.84 582.439 509.082C582.525 509.125 582.582 509.225 582.553 509.325C582.539 509.425 582.468 509.511 582.368 509.539C581.454 509.768 580.526 509.896 579.597 509.925ZM578.027 507.74C577.912 507.726 577.798 507.754 577.698 507.812C577.627 507.812 577.555 507.912 577.541 508.111C577.498 508.454 577.627 508.783 577.884 509.011C579.069 509.554 580.411 509.611 581.654 509.197C580.54 508.483 579.312 507.983 578.027 507.74Z" fill="#407BFF"/>
<path d="M582.296 509.554H582.182C581.097 508.968 578.983 506.626 579.198 505.513C579.269 505.127 579.612 504.856 580.012 504.856C580.397 504.798 580.783 504.927 581.068 505.184C582.296 506.184 582.553 509.225 582.568 509.368C582.568 509.454 582.525 509.539 582.453 509.597C582.382 509.597 582.339 509.582 582.296 509.554ZM580.169 505.255H580.054C579.726 505.255 579.697 505.441 579.697 505.513C579.569 506.198 580.911 507.969 581.996 508.783C581.925 507.583 581.482 506.426 580.74 505.47C580.583 505.341 580.383 505.255 580.169 505.255Z" fill="#407BFF"/>
<path d="M508.526 278.432C508.526 278.432 500.215 227.809 514.495 205.118C514.495 205.118 543.012 203.348 563.075 214.929C563.075 214.929 554.779 237.462 553.551 278.432H508.526Z" fill="#263238"/>
<path opacity="0.2" d="M505.927 239.704C505.313 232.836 507.298 226.224 507.64 220.398C512.881 216.028 517.022 209.702 517.022 209.702C517.022 209.702 519.621 230.194 505.927 239.704Z" fill="black"/>
<path d="M518.022 205.018C518.022 205.018 489.762 201.705 485.507 199.92C482.85 198.806 462.073 185.226 462.073 185.226L457.204 192.48C457.204 192.48 478.452 209.645 482.051 211.615C490.476 216.242 509.411 222.768 509.411 222.768C509.411 222.768 520.864 214.828 518.022 205.018Z" fill="#263238"/>
<path d="M559.519 162.078C559.519 162.078 569.215 153.839 578.84 159.022C588.465 164.206 577.255 184.184 580.068 190.31C582.881 196.436 588.979 195.979 581.282 200.006C573.585 204.033 581.039 207.375 581.039 207.375C581.039 207.375 574.156 209.716 573.585 204.033C573.014 198.35 570.529 193.666 568.301 192.695C566.074 191.724 572.086 180.957 570.001 175.63C567.916 170.304 561.875 170.761 561.875 170.761L559.519 162.078Z" fill="#263238"/>
<path d="M544.155 158.294C544.155 158.294 531.931 150.626 526.176 156.081C517.294 164.492 529.96 176.573 543.369 182.299L544.155 158.294Z" fill="#263238"/>
<path d="M284.929 313.075L184.769 201.548C188.325 193.708 187.625 184.241 182.342 177.015C176.487 169.004 166.962 165.734 158.109 167.376C156.781 167.619 156.224 169.204 157.123 170.203L170.261 184.826C170.775 185.397 170.946 186.197 170.704 186.925L167.862 195.65C167.619 196.379 167.019 196.921 166.263 197.093L157.295 198.992C156.538 199.149 155.767 198.892 155.253 198.321L142.115 183.698C141.215 182.698 139.573 183.084 139.188 184.383C136.832 192.266 138.502 201.134 144.4 207.703C151.112 215.171 161.365 217.513 170.304 214.528L270.464 326.055C266.908 333.895 267.608 343.363 272.891 350.588C278.746 358.599 288.271 361.87 297.125 360.227C298.453 359.985 299.009 358.4 298.11 357.4L284.972 342.777C284.458 342.206 284.287 341.406 284.53 340.678L287.371 331.953C287.614 331.225 288.214 330.682 288.971 330.511L297.938 328.611C298.695 328.454 299.466 328.711 299.981 329.283L313.118 343.905C314.018 344.905 315.66 344.519 316.046 343.22C318.402 335.337 316.731 326.469 310.833 319.901C304.136 312.432 293.883 310.09 284.929 313.075Z" fill="#407BFF"/>
<path opacity="0.7" d="M284.929 313.075L184.769 201.548C188.325 193.708 187.625 184.241 182.342 177.015C176.487 169.004 166.962 165.734 158.109 167.376C156.781 167.619 156.224 169.204 157.123 170.203L170.261 184.826C170.775 185.397 170.946 186.197 170.704 186.925L167.862 195.65C167.619 196.379 167.019 196.921 166.263 197.093L157.295 198.992C156.538 199.149 155.767 198.892 155.253 198.321L142.115 183.698C141.215 182.698 139.573 183.084 139.188 184.383C136.832 192.266 138.502 201.134 144.4 207.703C151.112 215.171 161.365 217.513 170.304 214.528L270.464 326.055C266.908 333.895 267.608 343.363 272.891 350.588C278.746 358.599 288.271 361.87 297.125 360.227C298.453 359.985 299.009 358.4 298.11 357.4L284.972 342.777C284.458 342.206 284.287 341.406 284.53 340.678L287.371 331.953C287.614 331.225 288.214 330.682 288.971 330.511L297.938 328.611C298.695 328.454 299.466 328.711 299.981 329.283L313.118 343.905C314.018 344.905 315.66 344.519 316.046 343.22C318.402 335.337 316.731 326.469 310.833 319.901C304.136 312.432 293.883 310.09 284.929 313.075Z" fill="white"/>
<path d="M171.775 181.656C171.775 181.656 142.044 185.554 138.188 190.866C134.333 196.179 134.118 201.091 151.697 206.132L156.838 202.39C156.838 202.39 149.541 199.606 150.412 197.892C151.269 196.179 171.775 196.821 171.775 196.821V181.656V181.656Z" fill="#E4897B"/>
<path d="M182.942 181.27L178.801 195.722L171.846 196.778L157.281 198.992L156.852 193.165L156.01 181.656C156.01 181.656 170.318 178.771 182.942 181.27Z" fill="#407BFF"/>
<path opacity="0.2" d="M175.601 187.382L171.846 196.778L157.28 198.992L156.852 193.165C164.249 187.41 175.601 187.382 175.601 187.382Z" fill="black"/>
<path d="M172.746 509.482L184.312 510.695L184.912 503.984L186.497 485.72L174.916 484.492L173.16 504.669L172.746 509.482Z" fill="#E4897B"/>
<path d="M114.94 508.011H126.165L126.264 505.469L126.279 505.155L126.836 488.876L126.864 488.547L127.093 482.307H115.854L114.94 508.011Z" fill="#E4897B"/>
<path opacity="0.2" d="M174.917 484.492L173.16 504.669L184.913 503.984L186.498 485.72L174.917 484.492Z" fill="black"/>
<path opacity="0.2" d="M114.997 506.583H115.026L126.264 505.155H126.279L126.864 489.447H126.835L115.597 490.347L115.026 506.097L114.997 506.583Z" fill="black"/>
<path d="M127.707 507.34H114.069C113.612 507.34 113.212 507.668 113.112 508.111L110.899 518.107C110.713 519.006 111.285 519.878 112.17 520.063C112.284 520.092 112.413 520.106 112.541 520.106C116.954 520.035 120.167 519.763 125.707 519.763C129.12 519.763 139.416 520.12 144.129 520.12C148.841 520.12 149.455 515.465 147.527 515.037C138.874 513.152 132.362 510.538 129.592 508.054C129.092 507.582 128.406 507.325 127.707 507.34Z" fill="#263238"/>
<path d="M185.54 506.982H171.903C171.446 506.982 171.046 507.311 170.946 507.754L168.733 517.75C168.547 518.649 169.118 519.52 170.004 519.706C170.118 519.735 170.246 519.749 170.375 519.749C174.787 519.677 178 519.406 183.541 519.406C186.954 519.406 197.25 519.763 201.962 519.763C206.675 519.763 207.289 515.108 205.361 514.679C196.707 512.794 190.196 510.181 187.425 507.696C186.925 507.225 186.24 506.968 185.54 506.982Z" fill="#263238"/>
<path d="M187.554 502.299H171.089C171.089 502.299 166.363 359.956 148.555 312.089C150.74 401.097 129.763 503.727 129.763 503.727H113.498C113.498 503.727 120.938 423.373 120.938 388.23C120.938 325.955 103.859 295.539 120.495 255.255H180.071C194.651 343.148 200.263 405.195 187.554 502.299Z" fill="#263238"/>
<path d="M189.396 497.658L188.597 502.299H169.147V498.015L189.396 497.658Z" fill="#407BFF"/>
<path d="M131.633 499.443L129.763 503.727H113.455L112.384 499.443H131.633Z" fill="#407BFF"/>
<path d="M231.379 186.497C230.937 186.854 230.494 187.183 230.051 187.482C227.338 189.31 224.225 190.153 221.183 190.124C220.384 190.124 219.584 190.053 218.799 189.924C214.657 189.253 210.887 186.897 208.703 183.113C207.803 181.585 207.16 179.785 206.889 177.772C205.747 169.861 209.774 164.677 215.871 155.381C217.156 153.353 218.884 151.654 220.941 150.44C228.152 146.128 237.491 148.484 241.789 155.681C247.901 165.734 239.262 179.9 231.379 186.497Z" fill="#E4897B"/>
<path opacity="0.2" d="M221.169 190.124C220.369 190.124 219.57 190.053 218.784 189.924C214.643 189.253 210.873 186.897 208.688 183.113C210.588 181.856 212.53 181.27 212.53 181.27C212.53 181.27 218.47 184.398 221.169 190.124Z" fill="black"/>
<path d="M194.651 188.382C196.093 195.636 207.946 202.133 207.946 202.133C207.946 202.133 216.028 205.275 216.171 202.133C212.701 198.549 212.144 195.279 213.115 192.323C213.672 190.609 214.757 189.01 216.057 187.511C216.728 186.711 217.485 185.954 218.256 185.226L212.244 165.505C209.174 173.316 202.448 186.868 194.651 188.382Z" fill="#E4897B"/>
<path d="M246.744 157.037C245.53 150.254 242.103 149.954 242.103 149.954C241.775 144.556 229.037 139.101 220.712 140.843C212.387 142.6 206.689 149.968 204.418 156.737C201.091 166.59 203.105 178.843 203.105 178.843C209.845 183.983 216.87 184.926 219.012 181.113C221.154 177.3 226.424 176.001 226.424 176.001C229.637 178.785 234.72 176.029 234.72 176.029C234.72 176.029 240.475 174.044 241.475 168.418C242.446 162.792 247.758 162.749 246.744 157.037Z" fill="#263238"/>
<path d="M226.153 172.802C225.253 175.144 225.253 177.358 226.181 178.971C227.423 181.085 230.522 179.414 232.236 176.529C233.749 173.973 234.992 169.704 232.721 168.718C230.451 167.719 227.295 169.946 226.153 172.802Z" fill="#E4897B"/>
<path d="M227.609 140.786C240.133 137.045 250.214 157.608 249.715 168.504C249.315 177.358 240.018 176.287 240.018 176.287C240.018 176.287 245.145 175.944 244.659 169.718C244.659 169.718 242.432 177.329 237.448 172.331C232.464 167.333 238.362 155.423 238.362 155.423L227.609 140.786Z" fill="#263238"/>
<path opacity="0.2" d="M147.184 370.28C144.985 348.075 140.887 329.182 140.887 329.182C124.022 307.991 133.232 288.427 133.232 288.427C135.489 302.036 148.555 312.089 148.555 312.089C149.026 331.239 148.426 351.016 147.184 370.28Z" fill="black"/>
<path d="M194.622 185.126C194.622 185.126 198.249 182.441 204.932 186.397C211.615 190.352 213.814 197.921 213.814 197.921L194.622 185.126Z" fill="#407BFF"/>
<path d="M186.496 283.358C186.496 283.358 186.496 248.615 222.824 206.56C222.824 206.56 206.517 183.783 182.955 181.27C182.955 181.27 139.458 196.207 115.767 259.796L186.496 283.358Z" fill="#407BFF"/>
<path opacity="0.6" d="M222.811 206.56C218.97 211.015 215.528 215.385 212.458 219.64C206.389 228.051 201.734 236.02 198.178 243.274C186.497 267.064 186.497 283.358 186.497 283.358L115.754 259.796C139.444 196.193 182.941 181.27 182.941 181.27C206.503 183.798 222.811 206.56 222.811 206.56Z" fill="white"/>
<path d="M186.926 278.374C186.769 279.545 186.669 280.516 186.612 281.287L116.711 257.282C117.054 256.383 117.411 255.497 117.768 254.626L186.926 278.374Z" fill="#407BFF"/>
<path d="M188.154 271.305C187.94 272.319 187.74 273.262 187.583 274.147C163.364 264.794 135.789 254.355 120.181 248.957C120.567 248.072 120.967 247.215 121.367 246.358C138.774 252.356 168.905 263.866 188.154 271.305Z" fill="#407BFF"/>
<path d="M189.996 264.137C189.71 265.093 189.453 266.022 189.211 266.907C169.99 258.596 141.016 246.387 124.08 240.789C124.522 239.918 124.965 239.075 125.408 238.233C142.658 243.973 170.989 255.897 189.996 264.137Z" fill="#407BFF"/>
<path d="M192.381 256.811C192.052 257.753 191.724 258.667 191.424 259.553C172.66 250.499 145.742 238.118 128.421 232.835C128.906 231.978 129.406 231.135 129.906 230.321C147.527 235.776 173.86 247.871 192.381 256.811Z" fill="#407BFF"/>
<path d="M195.336 249.428C194.937 250.328 194.565 251.213 194.223 252.099C176.273 242.502 151.354 230.164 133.219 225.095C133.775 224.253 134.347 223.41 134.918 222.596C153.296 227.894 177.658 239.946 195.336 249.428Z" fill="#407BFF"/>
<path d="M198.821 241.96C198.379 242.845 197.95 243.731 197.536 244.602C180.657 234.649 157.695 222.525 138.574 217.555C139.202 216.713 139.831 215.899 140.473 215.085C159.737 220.311 182.199 232.15 198.821 241.96Z" fill="#407BFF"/>
<path d="M202.833 234.506C202.334 235.377 201.862 236.234 201.391 237.076C185.726 226.966 164.577 215.199 144.571 210.173C145.285 209.344 145.999 208.545 146.742 207.759C166.762 213.029 187.425 224.524 202.833 234.506Z" fill="#407BFF"/>
<path d="M207.289 227.209C206.761 228.008 206.261 228.808 205.761 229.608C191.367 219.483 171.918 208.159 151.312 203.004C152.126 202.204 152.925 201.433 153.725 200.691C174.046 206.117 193.095 217.241 207.289 227.209Z" fill="#407BFF"/>
<path d="M212.258 219.912C211.701 220.697 211.158 221.468 210.616 222.225C197.55 212.244 179.728 201.419 158.979 196.05C159.922 195.279 160.836 194.536 161.735 193.837C181.999 199.477 199.392 210.087 212.258 219.912Z" fill="#407BFF"/>
<path d="M217.699 212.729C217.1 213.486 216.514 214.228 215.943 214.985C204.233 205.303 188.068 195.036 167.805 189.424C168.905 188.681 169.961 188.01 170.975 187.382C190.525 193.222 206.19 203.247 217.699 212.729Z" fill="#407BFF"/>
<path d="M222.812 206.56C222.426 207.002 222.055 207.445 221.683 207.888C211.43 198.734 197.136 189.195 178.244 183.326C180 182.455 181.328 181.898 182.114 181.584C197.236 186.71 209.345 194.122 218.742 201.676C218.742 201.676 218.756 201.676 218.756 201.69C221.384 204.56 222.812 206.56 222.812 206.56Z" fill="#407BFF"/>
<path opacity="0.2" d="M212.458 219.641C206.389 228.052 201.734 236.02 198.178 243.274C197.721 224.967 211.373 214.985 211.373 214.985L212.458 219.641Z" fill="black"/>
<path d="M222.812 217.298V261.309L239.848 291.969L246.859 299.78C246.859 299.78 238.662 304.835 236.406 301.593C234.15 298.337 231.894 291.969 231.894 291.969C231.894 291.969 214.958 269.22 212.316 263.794C209.66 258.353 208.703 225.509 208.703 225.509L222.812 217.298Z" fill="#E4897B"/>
<path d="M222.812 206.56C225.496 213.985 225.468 239.29 225.468 239.29L206.447 240.96L204.919 230.964C204.919 230.964 205.062 221.911 211.459 212.957C215.829 206.86 222.812 206.56 222.812 206.56Z" fill="#407BFF"/>
</svg>
